<?xml version="1.0" encoding="UTF-8"?>
<svg width="370px" height="22px" viewBox="0 0 370 22" version="1.1" xmlns="http://www.w3.org/2000/svg" xmlns:xlink="http://www.w3.org/1999/xlink">
    <title>Artboard</title>
    <g id="Artboard" stroke="none" stroke-width="1" fill="none" fill-rule="evenodd">
        <path d="M9.90711678,21.7985537 C12.1376665,21.7985537 14.1364707,21.4074833 15.9035296,20.6253425 L15.9035296,20.6253425 L15.9035296,15.7876569 C15.0151721,16.1545871 14.1316427,16.468409 13.2529413,16.7291226 C12.3742399,16.9898362 11.4665703,17.120193 10.5299326,17.120193 C7.43033758,17.120193 5.88054008,15.0827645 5.88054008,11.0079075 C5.88054008,9.0477275 6.26195441,7.51000007 7.02478309,6.39472523 C7.78761177,5.27945039 8.84977829,4.72181297 10.2112826,4.72181297 C11.1092962,4.72181297 11.9493733,4.84734174 12.7315141,5.09839928 C13.5136549,5.34945682 14.2957957,5.65845071 15.0779365,6.02538096 L15.0779365,6.02538096 L16.8305112,1.52082933 C14.7448025,0.526255228 12.557705,0.0289681777 10.269219,0.0289681777 C8.17385414,0.0289681777 6.35127296,0.475560917 4.80147546,1.3687464 C3.25167795,2.26193188 2.06398266,3.53894571 1.2383896,5.1997879 C0.412796532,6.86063009 0,8.78701391 0,10.9789394 C0,14.4840889 0.852147228,17.1636453 2.55644168,19.0176087 C4.26073614,20.871572 6.71096117,21.7985537 9.90711678,21.7985537 Z M42.706731,21.7985537 C46.0766957,21.7985537 48.6355514,20.871572 50.3832981,19.0176087 C52.1310448,17.1636453 53.0049182,14.4551207 53.0049182,10.8920348 C53.0049182,7.3192929 52.1358729,4.61076829 50.3977822,2.76646097 C48.6596915,0.922153657 46.1056639,-8.2600593e-13 42.7356992,-8.2600593e-13 C39.3753906,-8.2600593e-13 36.8141209,0.929395702 35.05189,2.7881871 C33.2896592,4.64697851 32.4085438,7.33860502 32.4085438,10.8630666 C32.4085438,14.4261525 33.2944873,17.1395051 35.0663741,19.0031246 C36.838261,20.866744 39.3850466,21.7985537 42.706731,21.7985537 Z M42.706731,17.0332885 C39.8581935,17.0332885 38.4339248,14.9862039 38.4339248,10.8920348 C38.4339248,6.75924147 39.8678496,4.69284479 42.7356992,4.69284479 C44.1454838,4.69284479 45.2052363,5.19737388 45.9149567,6.20643207 C46.624677,7.21549026 46.9795372,8.77735785 46.9795372,10.8920348 C46.9795372,12.9970557 46.6295051,14.5468532 45.9294408,15.5414273 C45.2293765,16.5360014 44.1551399,17.0332885 42.706731,17.0332885 Z M72.7109161,21.7985537 C74.2848537,21.7985537 75.6101479,21.5981905 76.6867985,21.197464 C77.7634491,20.7967376 78.6880168,20.1594377 79.4605015,19.2855643 C80.2329862,18.4116909 81.0199551,17.0477726 81.821408,15.1938092 L81.821408,15.1938092 L88.2523434,0.333134044 L82.0821216,0.333134044 L79.9239923,6.22815821 C79.2770364,7.98556099 78.7894054,9.52087441 78.4610994,10.8340985 L78.4610994,10.8340985 L78.2583221,10.8340985 C78.1907297,10.5637288 78.0989971,10.2450788 77.9831244,9.8781486 C77.8672517,9.51121835 77.741723,9.14187408 77.6065381,8.7701158 C77.4713533,8.39835752 77.3337545,8.03866931 77.1937416,7.69105118 C77.0537287,7.34343305 76.935442,7.04409521 76.8388814,6.79303767 L76.8388814,6.79303767 L74.2317454,0.333134044 L68.0615236,0.333134044 L74.970434,15.483491 C74.7097204,16.1787273 74.3741723,16.6639442 73.9637898,16.9391419 C73.5534073,17.2143396 73.0488782,17.3519384 72.4502025,17.3519384 C71.05973,17.3519384 69.9106589,17.1733014 69.0029893,16.8160272 L69.0029893,16.8160272 L69.0029893,21.3640311 C70.1230922,21.6537128 71.3590678,21.7985537 72.7109161,21.7985537 Z M121.892035,21.5088719 L121.892035,0.333134044 L116.127367,0.333134044 L116.127367,9.28430096 C114.321684,9.94091298 112.800855,10.269219 111.564879,10.269219 C110.65721,10.269219 109.99577,10.0471296 109.580559,9.60295091 C109.165349,9.15877219 108.957743,8.42008365 108.957743,7.38688532 L108.957743,7.38688532 L108.957743,0.333134044 L103.193076,0.333134044 L103.193076,9.28430096 C103.193076,11.080328 103.755542,12.4732145 104.880472,13.4629606 C106.005403,14.4527067 107.572099,14.9475797 109.580559,14.9475797 C111.502115,14.9475797 113.684384,14.5227131 116.127367,13.6729799 L116.127367,13.6729799 L116.127367,21.5088719 L121.892035,21.5088719 Z M144.205169,21.5088719 L145.276991,17.5402316 L152.156934,17.5402316 L153.199788,21.5088719 L159.456914,21.5088719 L152.461099,0.246229511 L144.827985,0.246229511 L137.919074,21.5088719 L144.205169,21.5088719 Z M150.969238,12.8473868 L146.464687,12.8473868 C147.343388,9.52570244 147.910681,7.29998078 148.166567,6.17022185 C148.422453,5.04046292 148.593848,4.22935395 148.680752,3.73689492 C148.777313,4.26797818 148.977676,5.14667957 149.281842,6.3729991 C149.586008,7.59931862 149.844307,8.59872075 150.056741,9.37120549 L150.056741,9.37120549 L150.969238,12.8473868 Z M184.623414,21.7985537 C186.853963,21.7985537 188.852768,21.4074833 190.619826,20.6253425 L190.619826,20.6253425 L190.619826,15.7876569 C189.731469,16.1545871 188.84794,16.468409 187.969238,16.7291226 C187.090537,16.9898362 186.182867,17.120193 185.24623,17.120193 C182.146634,17.120193 180.596837,15.0827645 180.596837,11.0079075 C180.596837,9.0477275 180.978251,7.51000007 181.74108,6.39472523 C182.503909,5.27945039 183.566075,4.72181297 184.92758,4.72181297 C185.825593,4.72181297 186.66567,4.84734174 187.447811,5.09839928 C188.229952,5.34945682 189.012093,5.65845071 189.794233,6.02538096 L189.794233,6.02538096 L191.546808,1.52082933 C189.461099,0.526255228 187.274002,0.0289681777 184.985516,0.0289681777 C182.890151,0.0289681777 181.06757,0.475560917 179.517772,1.3687464 C177.967975,2.26193188 176.78028,3.53894571 175.954687,5.1997879 C175.129093,6.86063009 174.716297,8.78701391 174.716297,10.9789394 C174.716297,14.4840889 175.568444,17.1636453 177.272739,19.0176087 C178.977033,20.871572 181.427258,21.7985537 184.623414,21.7985537 Z M217.843066,21.5088719 L217.843066,5.01149474 L222.999402,5.01149474 L222.999402,0.333134044 L206.951032,0.333134044 L206.951032,5.01149474 L212.121851,5.01149474 L212.121851,21.5088719 L217.843066,21.5088719 Z M245.529797,21.5088719 L245.529797,12.876355 L252.177994,12.876355 L252.177994,21.5088719 L257.928177,21.5088719 L257.928177,0.333134044 L252.177994,0.333134044 L252.177994,8.1835102 L245.529797,8.1835102 L245.529797,0.333134044 L239.779614,0.333134044 L239.779614,21.5088719 L245.529797,21.5088719 Z M283.311938,21.5088719 L291.828582,6.61922861 L291.944455,6.61922861 C291.770646,9.29395702 291.683742,11.3024173 291.683742,12.6446096 L291.683742,12.6446096 L291.683742,21.5088719 L296.753173,21.5088719 L296.753173,0.333134044 L289.684937,0.333134044 L281.240713,15.2227774 L281.124841,15.2227774 C281.279338,12.3259596 281.356586,10.3947478 281.356586,9.42914184 L281.356586,9.42914184 L281.356586,0.333134044 L276.258187,0.333134044 L276.258187,21.5088719 L283.311938,21.5088719 Z M320.833365,21.5088719 L320.833365,10.7761621 L327.11946,21.5088719 L333.593848,21.5088719 L326.641485,10.4430281 L333.173809,0.333134044 L326.887715,0.333134044 L320.833365,10.587869 L320.833365,0.333134044 L315.083182,0.333134044 L315.083182,21.5088719 L320.833365,21.5088719 Z M356.558766,21.5088719 L365.07541,6.61922861 L365.191283,6.61922861 C365.017473,9.29395702 364.930569,11.3024173 364.930569,12.6446096 L364.930569,12.6446096 L364.930569,21.5088719 L370,21.5088719 L370,0.333134044 L362.931765,0.333134044 L354.487541,15.2227774 L354.371668,15.2227774 C354.526165,12.3259596 354.603414,10.3947478 354.603414,9.42914184 L354.603414,9.42914184 L354.603414,0.333134044 L349.505014,0.333134044 L349.505014,21.5088719 L356.558766,21.5088719 Z" id="СОУЧАСТНИКИ" fill="#000000" fill-rule="nonzero"></path>
    </g>
</svg>