<?xml version="1.0" encoding="UTF-8"?>
<svg width="354px" height="40px" viewBox="0 0 354 40" version="1.1" xmlns="http://www.w3.org/2000/svg" xmlns:xlink="http://www.w3.org/1999/xlink">
    <title>Artboard</title>
    <g id="Artboard" stroke="none" stroke-width="1" fill="none" fill-rule="evenodd">
        <g id="Group-8-Copy">
            <path d="M16.1035156,29 L16.8007812,24.9990234 L5.91015625,24.9990234 L7.0390625,18.5244141 L16.3027344,18.5244141 L17,14.6230469 L7.703125,14.6230469 L8.71582031,8.86230469 L19.5566406,8.86230469 L20.2705078,4.828125 L4.54882812,4.828125 L0.348632812,29 L16.1035156,29 Z M28.0292969,29 C31.3053385,29 34.0916341,27.9291992 36.3881836,25.7875977 C38.6847331,23.6459961 40.0764974,20.804362 40.5634766,17.2626953 L40.5634766,17.2626953 L40.6796875,16.3828125 C40.7903646,15.375651 40.8014323,14.390625 40.7128906,13.4277344 C40.546875,11.7786458 40.0598958,10.2955729 39.2519531,8.97851562 C38.4440104,7.66145833 37.3898112,6.65152995 36.0893555,5.94873047 C34.7888997,5.24593099 33.3251953,4.87792969 31.6982422,4.84472656 L31.6982422,4.84472656 L24.7587891,4.828125 L20.5585938,29 L28.0292969,29 Z M28.1455078,25.015625 L26.1201172,24.9990234 L28.9257812,8.86230469 L31.5820312,8.87890625 C33.031901,8.92317708 34.1220703,9.43229167 34.8525391,10.40625 C35.5830078,11.3802083 35.9316406,12.7802734 35.8984375,14.6064453 L35.8984375,14.6064453 L35.8652344,15.1376953 C35.6660156,18.4469401 34.8885091,20.9205729 33.5327148,22.5585938 C32.1769206,24.1966146 30.3811849,25.015625 28.1455078,25.015625 L28.1455078,25.015625 Z M52.8212891,29.3486328 C55.5439453,29.3929036 57.8238932,28.6402995 59.6611328,27.0908203 C61.4983724,25.5413411 62.6051432,23.4329427 62.9814453,20.765625 L62.9814453,20.765625 L65.7041016,4.828125 L60.8232422,4.828125 L58.1005859,20.7822266 C57.8460286,22.2652995 57.2815755,23.4052734 56.4072266,24.2021484 C55.5328776,24.9990234 54.4095052,25.3753255 53.0371094,25.3310547 C51.1223958,25.2646484 50.054362,24.3349609 49.8330078,22.5419922 C49.7666016,21.9996745 49.7721354,21.4186198 49.8496094,20.7988281 L49.8496094,20.7988281 L52.5556641,4.828125 L47.6914063,4.828125 L44.9853516,20.7822266 C44.7972005,22.4313151 45.0019531,23.9060872 45.5996094,25.206543 C46.1972656,26.5069987 47.1241862,27.5141602 48.3803711,28.2280273 C49.636556,28.9418945 51.116862,29.3154297 52.8212891,29.3486328 Z M76.3681641,29.3320313 C78.1389974,29.3652344 79.7880859,29.0359701 81.3154297,28.3442383 C82.8427734,27.6525065 84.0823568,26.6619466 85.0341797,25.3725586 C85.9860026,24.0831706 86.5559896,22.6028646 86.7441406,20.9316406 L86.7441406,20.9316406 L81.9130859,20.9648438 C81.6253255,22.3815104 81.0359701,23.4689128 80.1450195,24.2270508 C79.254069,24.9851888 78.0670573,25.3365885 76.5839844,25.28125 C75.5104167,25.2480469 74.6748047,24.8855794 74.0771484,24.1938477 C73.4794922,23.5021159 73.1529948,22.4257813 73.0976562,20.9648438 C73.0533854,19.8138021 73.2083333,18.0817057 73.5625,15.7685547 C73.9277344,13.3889974 74.6443685,11.5794271 75.7124023,10.3398438 C76.7804362,9.10026042 78.1445312,8.50813802 79.8046875,8.56347656 C81.0885417,8.6077474 82.0348307,8.98404948 82.6435547,9.69238281 C83.2522786,10.4007161 83.5566406,11.5185547 83.5566406,13.0458984 L83.5566406,13.0458984 L88.4042969,13.0625 C88.2604167,10.3951823 87.4552409,8.3116862 85.9887695,6.81201172 C84.5222982,5.31233724 82.5384115,4.54036458 80.0371094,4.49609375 C77.735026,4.45182292 75.6875,5.07161458 73.8945312,6.35546875 C72.6217448,7.27408854 71.5232747,8.51920573 70.5991211,10.0908203 C69.6749674,11.6624349 69.0330404,13.4609375 68.6733398,15.4863281 C68.3136393,17.5117188 68.172526,19.2050781 68.25,20.5664063 C68.3385417,22.3040365 68.7231445,23.839681 69.4038086,25.1733398 C70.0844727,26.5069987 71.0169271,27.5252279 72.2011719,28.2280273 C73.3854167,28.9308268 74.7744141,29.2988281 76.3681641,29.3320313 Z M93.5732422,29 L96.0634766,24.0195312 L104.49707,24.0195312 L105.260742,29 L110.224609,29 L105.625977,4.828125 L101.126953,4.828125 L88.2109375,29 L93.5732422,29 Z M103.882812,19.9853516 L98.0556641,19.9853516 L102.521484,10.9873047 L103.882812,19.9853516 Z M122.665039,29 L126.151367,8.86230469 L133.323242,8.86230469 L134.037109,4.828125 L114.912109,4.828125 L114.198242,8.86230469 L121.287109,8.86230469 L117.800781,29 L122.665039,29 Z M139.405273,29 L143.588867,4.828125 L138.724609,4.828125 L134.541016,29 L139.405273,29 Z M155.21582,29.3320312 C156.964518,29.3652344 158.588704,29.0055339 160.088379,28.2529297 C161.588053,27.5003255 162.89681,26.3714193 164.014648,24.8662109 C165.132487,23.3610026 165.957031,21.5791016 166.488281,19.5205078 C167.019531,17.4619141 167.229818,15.4586589 167.119141,13.5107422 C167.019531,11.7620443 166.621094,10.1987305 165.923828,8.82080078 C165.226562,7.44287109 164.269206,6.38590495 163.051758,5.64990234 C161.83431,4.91389974 160.412109,4.52929688 158.785156,4.49609375 C157.014323,4.46289062 155.368001,4.83365885 153.846191,5.60839844 C152.324382,6.38313802 150.999023,7.55078125 149.870117,9.11132812 C148.741211,10.671875 147.922201,12.4814453 147.413086,14.5400391 C146.903971,16.5986328 146.710286,18.5354818 146.832031,20.3505859 C146.942708,22.1214193 147.35498,23.6902669 148.068848,25.0571289 C148.782715,26.4239909 149.751139,27.4698893 150.974121,28.1948242 C152.197103,28.9197591 153.611003,29.2988281 155.21582,29.3320312 Z M155.70352,25.270608 L155.431641,25.2646484 C154.103516,25.2203776 153.124023,24.6697591 152.493164,23.612793 C151.862305,22.5558268 151.602214,21.0478516 151.712891,19.0888672 C151.867839,15.7464193 152.540202,13.1455078 153.72998,11.2861328 C154.919759,9.42675781 156.527344,8.53027344 158.552734,8.59667969 C159.847656,8.64095052 160.813314,9.17220052 161.449707,10.1904297 C162.0861,11.2086589 162.348958,12.7027995 162.238281,14.6728516 L162.238281,14.6728516 L162.105469,16.25 L161.989258,17.1464844 C161.635091,19.7695312 160.888021,21.7976888 159.748047,23.230957 C158.608073,24.6642253 157.169271,25.3421224 155.431641,25.2646484 L155.70352,25.270608 Z M174.811523,29 L177.617188,12.8798828 L184.34082,29 L189.055664,29 L193.239258,4.828125 L188.391602,4.828125 L185.585938,20.9814453 L178.845703,4.828125 L174.147461,4.828125 L169.947266,29 L174.811523,29 Z M208.076172,29 L210.566406,24.0195312 L219,24.0195312 L219.763672,29 L224.727539,29 L220.128906,4.828125 L215.629883,4.828125 L202.713867,29 L208.076172,29 Z M218.385742,19.9853516 L212.558594,19.9853516 L217.024414,10.9873047 L218.385742,19.9853516 Z M237.533203,29.3486328 C240.255859,29.3929036 242.535807,28.6402995 244.373047,27.0908203 C246.210286,25.5413411 247.317057,23.4329427 247.693359,20.765625 L247.693359,20.765625 L250.416016,4.828125 L245.535156,4.828125 L242.8125,20.7822266 C242.557943,22.2652995 241.99349,23.4052734 241.119141,24.2021484 C240.244792,24.9990234 239.121419,25.3753255 237.749023,25.3310547 C235.83431,25.2646484 234.766276,24.3349609 234.544922,22.5419922 C234.478516,21.9996745 234.484049,21.4186198 234.561523,20.7988281 L234.561523,20.7988281 L237.267578,4.828125 L232.40332,4.828125 L229.697266,20.7822266 C229.509115,22.4313151 229.713867,23.9060872 230.311523,25.206543 C230.90918,26.5069987 231.8361,27.5141602 233.092285,28.2280273 C234.34847,28.9418945 235.828776,29.3154297 237.533203,29.3486328 Z M260.582031,29.3486328 C262.264323,29.3818359 263.805501,29.1217448 265.205566,28.5683594 C266.605632,28.014974 267.712402,27.2208659 268.525879,26.1860352 C269.339355,25.1512044 269.795898,23.9199219 269.895508,22.4921875 C270.105794,19.5703125 268.578451,17.3014323 265.313477,15.6855469 L265.313477,15.6855469 L264.051758,15.1044922 L261.860352,14.2744141 C260.03418,13.5660807 259.226237,12.608724 259.436523,11.4023438 C259.591471,10.483724 260.078451,9.76155599 260.897461,9.23583984 C261.716471,8.7101237 262.679362,8.45833333 263.786133,8.48046875 C264.915039,8.50260417 265.747884,8.81803385 266.284668,9.42675781 C266.821452,10.0354818 267.062174,10.8876953 267.006836,11.9833984 L267.006836,11.9833984 L271.854492,11.9833984 C271.876628,9.72558594 271.168294,7.92431641 269.729492,6.57958984 C268.29069,5.23486328 266.403646,4.54036458 264.068359,4.49609375 C262.375,4.47395833 260.797852,4.75895182 259.336914,5.35107422 C257.875977,5.94319661 256.741536,6.7594401 255.933594,7.79980469 C255.125651,8.84016927 254.682943,10.0354818 254.605469,11.3857422 C254.417318,14.2965495 256.182617,16.5820312 259.901367,18.2421875 L259.901367,18.2421875 L263.105469,19.5205078 C264.632812,20.2177734 265.280273,21.2249349 265.047852,22.5419922 C264.903971,23.4052734 264.450195,24.0970052 263.686523,24.6171875 C262.922852,25.1373698 261.948893,25.3974609 260.764648,25.3974609 C258.030924,25.3531901 256.741536,24.0195313 256.896484,21.3964844 L256.896484,21.3964844 L252.032227,21.3798828 C251.987956,22.8740234 252.292318,24.2021484 252.945312,25.3642578 C253.642578,26.6149089 254.660807,27.5833333 256,28.2695313 C257.339193,28.9557292 258.866536,29.3154297 260.582031,29.3486328 Z M284.195312,29 L287.681641,8.86230469 L294.853516,8.86230469 L295.567383,4.828125 L276.442383,4.828125 L275.728516,8.86230469 L282.817383,8.86230469 L279.331055,29 L284.195312,29 Z M300.620117,29 L302.164062,20.1513672 L306.115234,20.1513672 L308.970703,29 L314.150391,29 L314.150391,28.734375 L310.74707,18.9228516 C314.056315,17.6279297 315.827148,15.3203125 316.05957,12 C316.225586,9.75325521 315.586426,7.99902344 314.14209,6.73730469 C312.697754,5.47558594 310.636393,4.84472656 307.958008,4.84472656 L307.958008,4.84472656 L299.956055,4.828125 L295.755859,29 L300.620117,29 Z M306.480469,16.1503906 L302.861328,16.1171875 L304.123047,8.86230469 L308.273438,8.87890625 C309.358073,8.92317708 310.149414,9.24967448 310.647461,9.85839844 C311.145508,10.4671224 311.317057,11.3082682 311.162109,12.3818359 C310.996094,13.5328776 310.49528,14.4431966 309.659668,15.112793 C308.824056,15.7823893 307.764323,16.1282552 306.480469,16.1503906 L306.480469,16.1503906 Z M323.652344,29 L327.835938,4.828125 L322.97168,4.828125 L318.788086,29 L323.652344,29 Z M333.336914,29 L335.827148,24.0195312 L344.260742,24.0195312 L345.024414,29 L349.988281,29 L345.389648,4.828125 L340.890625,4.828125 L327.974609,29 L333.336914,29 Z M343.646484,19.9853516 L337.819336,19.9853516 L342.285156,10.9873047 L343.646484,19.9853516 Z" id="EDUCATIONAUSTRIA" fill="#1E1E1E" fill-rule="nonzero"></path>
            <rect id="Rectangle" fill="#FCC950" x="44" y="36" width="66" height="4"></rect>
            <rect id="Rectangle-Copy-71" fill="#47943B" x="110" y="36" width="66" height="4"></rect>
            <rect id="Rectangle-Copy-72" fill="#649ACE" x="176" y="36" width="66" height="4"></rect>
            <rect id="Rectangle-Copy-73" fill="#813F71" x="242" y="36" width="66" height="4"></rect>
        </g>
    </g>
</svg>