<?xml version="1.0" encoding="UTF-8"?>
<svg width="240px" height="39px" viewBox="0 0 240 39" version="1.1" xmlns="http://www.w3.org/2000/svg" xmlns:xlink="http://www.w3.org/1999/xlink">
    <title>Artboard</title>
    <g id="Artboard" stroke="none" stroke-width="1" fill="none" fill-rule="evenodd">
        <g id="AutoBuyer-Copy" fill-rule="nonzero">
            <path d="M8.58666667,29.4518519 C9.4162963,29.4518519 9.95555556,29.1061728 10.2044444,28.4148148 L10.2044444,28.4148148 L11.2,25.677037 L20.1185185,25.677037 L21.1140741,28.4148148 C21.362963,29.1061728 21.9022222,29.4518519 22.7318519,29.4518519 L22.7318519,29.4518519 L30.4059259,29.4518519 C30.6548148,29.4518519 30.8691358,29.3619753 31.0488889,29.1822222 C31.228642,29.0024691 31.3185185,28.7881481 31.3185185,28.5392593 C31.3185185,28.428642 31.3046914,28.3318519 31.277037,28.2488889 L31.277037,28.2488889 L22.0266667,1.7837037 C21.9160494,1.42419753 21.708642,1.10617284 21.4044444,0.82962963 C21.1002469,0.55308642 20.6854321,0.414814815 20.16,0.414814815 L20.16,0.414814815 L11.1585185,0.414814815 C10.6330864,0.414814815 10.2182716,0.55308642 9.91407407,0.82962963 C9.60987654,1.10617284 9.40246914,1.42419753 9.29185185,1.7837037 L9.29185185,1.7837037 L0.0414814815,28.2488889 C0.0138271605,28.3318519 8.42124724e-14,28.428642 8.42124724e-14,28.5392593 C8.42124724e-14,28.7881481 0.0898765432,29.0024691 0.26962963,29.1822222 C0.449382716,29.3619753 0.663703704,29.4518519 0.912592593,29.4518519 L0.912592593,29.4518519 L8.58666667,29.4518519 Z M18.002963,17.5881481 L13.3155556,17.5881481 L15.6385185,9.87259259 L18.002963,17.5881481 Z M41.0251852,29.8666667 C42.5738272,29.8666667 43.942716,29.6246914 45.1318519,29.1407407 C46.3209877,28.6567901 47.2474074,27.9308642 47.9111111,26.962963 L47.9111111,26.962963 L47.9111111,28.3318519 C47.9111111,28.6360494 48.0217284,28.8987654 48.242963,29.12 C48.4641975,29.3412346 48.7269136,29.4518519 49.0311111,29.4518519 L49.0311111,29.4518519 L56.2903704,29.4518519 C56.5945679,29.4518519 56.857284,29.3412346 57.0785185,29.12 C57.2997531,28.8987654 57.4103704,28.6360494 57.4103704,28.3318519 L57.4103704,28.3318519 L57.4103704,9.00148148 C57.4103704,8.69728395 57.2997531,8.4345679 57.0785185,8.21333333 C56.857284,7.99209877 56.5945679,7.88148148 56.2903704,7.88148148 L56.2903704,7.88148148 L48.4088889,7.88148148 C48.1046914,7.88148148 47.8419753,7.99209877 47.6207407,8.21333333 C47.3995062,8.4345679 47.2888889,8.69728395 47.2888889,9.00148148 L47.2888889,9.00148148 L47.2888889,20.16 C47.2888889,20.9066667 47.1091358,21.4735802 46.7496296,21.8607407 C46.3901235,22.2479012 45.8785185,22.4414815 45.2148148,22.4414815 C44.5511111,22.4414815 44.0395062,22.2479012 43.68,21.8607407 C43.3204938,21.4735802 43.1407407,20.9066667 43.1407407,20.16 L43.1407407,20.16 L43.1407407,9.00148148 C43.1407407,8.69728395 43.0301235,8.4345679 42.8088889,8.21333333 C42.5876543,7.99209877 42.3249383,7.88148148 42.0207407,7.88148148 L42.0207407,7.88148148 L34.0977778,7.88148148 C33.7935802,7.88148148 33.5308642,7.99209877 33.3096296,8.21333333 C33.0883951,8.4345679 32.9777778,8.69728395 32.9777778,9.00148148 L32.9777778,9.00148148 L32.9777778,20.4503704 C32.9777778,22.5520988 33.3441975,24.3081481 34.077037,25.7185185 C34.8098765,27.1288889 35.7846914,28.1728395 37.0014815,28.8503704 C38.2182716,29.5279012 39.5595062,29.8666667 41.0251852,29.8666667 Z M79.1881481,29.4518519 C79.4923457,29.4518519 79.7550617,29.3412346 79.9762963,29.12 C80.1975309,28.8987654 80.3081481,28.6360494 80.3081481,28.3318519 L80.3081481,28.3318519 L80.3081481,22.8977778 C80.3081481,22.5935802 80.1975309,22.3308642 79.9762963,22.1096296 C79.7550617,21.8883951 79.4923457,21.7777778 79.1881481,21.7777778 L79.1881481,21.7777778 L75.4133333,21.7777778 C74.2241975,21.7777778 73.6296296,21.0864198 73.6296296,19.7037037 L73.6296296,19.7037037 L73.6296296,15.1407407 L78.8562963,15.1407407 C79.1604938,15.1407407 79.4232099,15.0301235 79.6444444,14.8088889 C79.865679,14.5876543 79.9762963,14.3249383 79.9762963,14.0207407 L79.9762963,14.0207407 L79.9762963,9.00148148 C79.9762963,8.69728395 79.865679,8.4345679 79.6444444,8.21333333 C79.4232099,7.99209877 79.1604938,7.88148148 78.8562963,7.88148148 L78.8562963,7.88148148 L73.6296296,7.88148148 L73.6296296,1.12 C73.6296296,0.815802469 73.5190123,0.55308642 73.2977778,0.331851852 C73.0765432,0.110617284 72.8138272,-2.10531181e-14 72.5096296,-2.10531181e-14 L72.5096296,-2.10531181e-14 L65.2503704,-2.10531181e-14 C64.9461728,-2.10531181e-14 64.6834568,0.110617284 64.4622222,0.331851852 C64.2409877,0.55308642 64.1303704,0.815802469 64.1303704,1.12 L64.1303704,1.12 L64.1303704,7.88148148 L60.8533333,7.88148148 C60.5491358,7.88148148 60.2864198,7.99209877 60.0651852,8.21333333 C59.8439506,8.4345679 59.7333333,8.69728395 59.7333333,9.00148148 L59.7333333,9.00148148 L59.7333333,14.0207407 C59.7333333,14.3249383 59.8439506,14.5876543 60.0651852,14.8088889 C60.2864198,15.0301235 60.5491358,15.1407407 60.8533333,15.1407407 L60.8533333,15.1407407 L64.1303704,15.1407407 L64.1303704,20.5333333 C64.1303704,23.7412346 65.042963,26.0296296 66.8681481,27.3985185 C68.6933333,28.7674074 71.2375309,29.4518519 74.5007407,29.4518519 L74.5007407,29.4518519 L79.1881481,29.4518519 Z M94.6607407,29.8666667 C102.265679,29.8666667 106.275556,26.7832099 106.69037,20.6162963 C106.745679,19.7866667 106.773333,19.1367901 106.773333,18.6666667 C106.773333,18.1965432 106.745679,17.5466667 106.69037,16.717037 C106.49679,13.702716 105.349136,11.4074074 103.247407,9.83111111 C101.145679,8.25481481 98.2834568,7.46666667 94.6607407,7.46666667 C91.0380247,7.46666667 88.1758025,8.25481481 86.0740741,9.83111111 C83.9723457,11.4074074 82.8246914,13.702716 82.6311111,16.717037 C82.6034568,17.1318519 82.5896296,17.7817284 82.5896296,18.6666667 L82.5902778,18.9875 C82.5933025,19.7104012 82.6069136,20.2533333 82.6311111,20.6162963 C83.0459259,26.7832099 87.0558025,29.8666667 94.6607407,29.8666667 Z M94.6607407,23.2296296 C93.9140741,23.2296296 93.4301235,23.0291358 93.2088889,22.6281481 C92.9876543,22.2271605 92.8493827,21.4874074 92.7940741,20.4088889 L92.7940741,20.4088889 L92.7525926,18.6666667 L92.7940741,16.9244444 C92.877037,15.8735802 93.0291358,15.1407407 93.2503704,14.7259259 C93.4716049,14.3111111 93.9417284,14.1037037 94.6607407,14.1037037 C95.3797531,14.1037037 95.8498765,14.3111111 96.0711111,14.7259259 C96.2923457,15.1407407 96.4444444,15.8735802 96.5274074,16.9244444 C96.5550617,17.2009877 96.5688889,17.7817284 96.5688889,18.6666667 C96.5688889,19.5516049 96.5550617,20.1323457 96.5274074,20.4088889 C96.4720988,21.4874074 96.3338272,22.2271605 96.1125926,22.6281481 C95.891358,23.0291358 95.4074074,23.2296296 94.6607407,23.2296296 Z" id="Auto" fill="#1A1A1A"></path>
            <path d="M125.564444,29.4518519 C129.380741,29.4518519 132.284444,28.6982716 134.275556,27.1911111 C136.266667,25.6839506 137.262222,23.3955556 137.262222,20.3259259 C137.262222,18.9985185 136.881975,17.7748148 136.121481,16.6548148 C135.360988,15.5348148 134.427654,14.7535802 133.321481,14.3111111 C134.151111,13.8962963 134.911605,13.225679 135.602963,12.2992593 C136.294321,11.3728395 136.64,10.3150617 136.64,9.12592593 C136.64,6.1945679 135.706667,4.00987654 133.84,2.57185185 C131.973333,1.13382716 129.076543,0.414814815 125.14963,0.414814815 L125.14963,0.414814815 L111.377778,0.414814815 C111.07358,0.414814815 110.810864,0.525432099 110.58963,0.746666667 C110.368395,0.967901235 110.257778,1.23061728 110.257778,1.53481481 L110.257778,1.53481481 L110.257778,28.3318519 C110.257778,28.6360494 110.368395,28.8987654 110.58963,29.12 C110.810864,29.3412346 111.07358,29.4518519 111.377778,29.4518519 L111.377778,29.4518519 L125.564444,29.4518519 Z M124.112593,11.3244444 L120.628148,11.3244444 L120.628148,7.54962963 L124.112593,7.54962963 C124.665679,7.54962963 125.087407,7.74320988 125.377778,8.13037037 C125.668148,8.51753086 125.813333,8.96 125.813333,9.45777778 C125.813333,9.95555556 125.668148,10.3911111 125.377778,10.7644444 C125.087407,11.1377778 124.665679,11.3244444 124.112593,11.3244444 L124.112593,11.3244444 Z M124.485926,22.317037 L120.628148,22.317037 L120.628148,18.2518519 L124.485926,18.2518519 C125.066667,18.2518519 125.529877,18.4592593 125.875556,18.8740741 C126.221235,19.2888889 126.394074,19.7590123 126.394074,20.2844444 C126.394074,20.8098765 126.235062,21.28 125.917037,21.6948148 C125.599012,22.1096296 125.121975,22.317037 124.485926,22.317037 L124.485926,22.317037 Z M148.13037,29.8666667 C149.679012,29.8666667 151.047901,29.6246914 152.237037,29.1407407 C153.426173,28.6567901 154.352593,27.9308642 155.016296,26.962963 L155.016296,26.962963 L155.016296,28.3318519 C155.016296,28.6360494 155.126914,28.8987654 155.348148,29.12 C155.569383,29.3412346 155.832099,29.4518519 156.136296,29.4518519 L156.136296,29.4518519 L163.395556,29.4518519 C163.699753,29.4518519 163.962469,29.3412346 164.183704,29.12 C164.404938,28.8987654 164.515556,28.6360494 164.515556,28.3318519 L164.515556,28.3318519 L164.515556,9.00148148 C164.515556,8.69728395 164.404938,8.4345679 164.183704,8.21333333 C163.962469,7.99209877 163.699753,7.88148148 163.395556,7.88148148 L163.395556,7.88148148 L155.514074,7.88148148 C155.209877,7.88148148 154.94716,7.99209877 154.725926,8.21333333 C154.504691,8.4345679 154.394074,8.69728395 154.394074,9.00148148 L154.394074,9.00148148 L154.394074,20.16 C154.394074,20.9066667 154.214321,21.4735802 153.854815,21.8607407 C153.495309,22.2479012 152.983704,22.4414815 152.32,22.4414815 C151.656296,22.4414815 151.144691,22.2479012 150.785185,21.8607407 C150.425679,21.4735802 150.245926,20.9066667 150.245926,20.16 L150.245926,20.16 L150.245926,9.00148148 C150.245926,8.69728395 150.135309,8.4345679 149.914074,8.21333333 C149.69284,7.99209877 149.430123,7.88148148 149.125926,7.88148148 L149.125926,7.88148148 L141.202963,7.88148148 C140.898765,7.88148148 140.636049,7.99209877 140.414815,8.21333333 C140.19358,8.4345679 140.082963,8.69728395 140.082963,9.00148148 L140.082963,9.00148148 L140.082963,20.4503704 C140.082963,22.5520988 140.449383,24.3081481 141.182222,25.7185185 C141.915062,27.1288889 142.889877,28.1728395 144.106667,28.8503704 C145.323457,29.5279012 146.664691,29.8666667 148.13037,29.8666667 Z M179.324444,37.3333333 C180.015802,37.3333333 180.499753,37.0014815 180.776296,36.3377778 L180.776296,36.3377778 L192.474074,9.16740741 C192.501728,9.05679012 192.515556,8.91851852 192.515556,8.75259259 C192.515556,8.53135802 192.418765,8.3308642 192.225185,8.15111111 C192.031605,7.97135802 191.81037,7.88148148 191.561481,7.88148148 L191.561481,7.88148148 L184.634074,7.88148148 C183.97037,7.88148148 183.500247,8.21333333 183.223704,8.87703704 L183.223704,8.87703704 L179.697778,18.3348148 L176.296296,8.87703704 C176.047407,8.21333333 175.604938,7.88148148 174.968889,7.88148148 L174.968889,7.88148148 L167.958519,7.88148148 C167.70963,7.88148148 167.488395,7.9782716 167.294815,8.17185185 C167.101235,8.3654321 166.97679,8.60049383 166.921481,8.87703704 C166.921481,8.98765432 166.935309,9.08444444 166.962963,9.16740741 L166.962963,9.16740741 L174.968889,28.082963 L171.65037,36.0474074 C171.595062,36.1303704 171.574321,36.2133333 171.588148,36.2962963 C171.601975,36.3792593 171.608889,36.4345679 171.608889,36.4622222 C171.608889,36.7111111 171.698765,36.9185185 171.878519,37.0844444 C172.058272,37.2503704 172.272593,37.3333333 172.521481,37.3333333 L172.521481,37.3333333 L179.324444,37.3333333 Z M205.78963,29.8666667 C208.167901,29.8666667 210.207407,29.4933333 211.908148,28.7466667 C213.608889,28 214.887901,27.1081481 215.745185,26.0711111 C216.602469,25.0340741 217.031111,24.1283951 217.031111,23.3540741 C217.031111,23.1051852 216.941235,22.9046914 216.761481,22.7525926 C216.581728,22.6004938 216.367407,22.5244444 216.118519,22.5244444 L216.118519,22.5244444 L208.278519,22.5244444 C207.946667,22.5244444 207.697778,22.5590123 207.531852,22.6281481 C207.365926,22.697284 207.158519,22.8562963 206.90963,23.1051852 C206.605432,23.4093827 206.384198,23.6098765 206.245926,23.7066667 C206.107654,23.8034568 205.927901,23.8518519 205.706667,23.8518519 C205.125926,23.8518519 204.711111,23.6444444 204.462222,23.2296296 C204.213333,22.8148148 204.088889,22.1787654 204.088889,21.3214815 L204.088889,21.3214815 L204.088889,21.1140741 L216.45037,21.1140741 C216.754568,21.1140741 217.017284,21.0034568 217.238519,20.7822222 C217.459753,20.5609877 217.57037,20.2982716 217.57037,19.9940741 L217.57037,19.9940741 L217.57037,18.7496296 C217.57037,16.6479012 217.141728,14.7466667 216.284444,13.0459259 C215.42716,11.3451852 214.106667,9.99012346 212.322963,8.98074074 C210.539259,7.97135802 208.347654,7.46666667 205.748148,7.46666667 C202.153086,7.46666667 199.297778,8.41382716 197.182222,10.3081481 C195.066667,12.2024691 193.981235,14.905679 193.925926,18.4177778 L193.925926,18.4177778 L193.925926,18.7081481 C193.925926,22.4691358 194.962963,25.2691358 197.037037,27.1081481 C199.111111,28.9471605 202.028642,29.8666667 205.78963,29.8666667 Z M207.407407,15.9288889 L204.088889,15.9288889 L204.088889,15.8874074 C204.088889,14.1451852 204.641975,13.2740741 205.748148,13.2740741 C206.854321,13.2740741 207.407407,14.1451852 207.407407,15.8874074 L207.407407,15.8874074 L207.407407,15.9288889 Z M229.475556,29.4518519 C229.779753,29.4518519 230.042469,29.3412346 230.263704,29.12 C230.484938,28.8987654 230.595556,28.6360494 230.595556,28.3318519 L230.595556,28.3318519 L230.595556,19.0814815 C230.595556,17.4222222 231.425185,16.5925926 233.084444,16.5925926 L233.084444,16.5925926 L238.435556,16.5925926 C238.739753,16.5925926 239.002469,16.4819753 239.223704,16.2607407 C239.444938,16.0395062 239.555556,15.7767901 239.555556,15.4725926 L239.555556,15.4725926 L239.555556,9.00148148 C239.555556,8.69728395 239.444938,8.4345679 239.223704,8.21333333 C239.002469,7.99209877 238.739753,7.88148148 238.435556,7.88148148 L238.435556,7.88148148 L236.444444,7.88148148 C235.255309,7.88148148 234.107654,8.10962963 233.001481,8.56592593 C231.895309,9.02222222 230.885926,9.65135802 229.973333,10.4533333 L229.973333,10.4533333 L229.973333,9.00148148 C229.973333,8.69728395 229.862716,8.4345679 229.641481,8.21333333 C229.420247,7.99209877 229.157531,7.88148148 228.853333,7.88148148 L228.853333,7.88148148 L221.594074,7.88148148 C221.289877,7.88148148 221.02716,7.99209877 220.805926,8.21333333 C220.584691,8.4345679 220.474074,8.69728395 220.474074,9.00148148 L220.474074,9.00148148 L220.474074,28.3318519 C220.474074,28.6360494 220.584691,28.8987654 220.805926,29.12 C221.02716,29.3412346 221.289877,29.4518519 221.594074,29.4518519 L221.594074,29.4518519 L229.475556,29.4518519 Z" id="Buyer" fill="#73C609"></path>
        </g>
    </g>
</svg>