<?xml version="1.0" encoding="UTF-8"?>
<svg width="240px" height="44px" viewBox="0 0 240 44" version="1.1" xmlns="http://www.w3.org/2000/svg" xmlns:xlink="http://www.w3.org/1999/xlink">
    <title>Artboard</title>
    <g id="Artboard" stroke="none" stroke-width="1" fill="none" fill-rule="evenodd">
        <g id="Group-Copy">
            <path d="M32.5912773,30.372448 C32.5912773,29.3360108 31.7477524,28.4944238 30.7058326,28.4944238 C29.6639129,28.4944238 28.8196943,29.3360108 28.8196943,30.372448 C28.8196943,31.4095762 29.6639129,32.2511633 30.7058326,32.2511633 C31.7477524,32.2511633 32.5912773,31.4095762 32.5912773,30.372448" id="Fill-1" fill="#231F20"></path>
            <path d="M18.704664,23.4565806 C18.704664,20.932658 16.9156664,19.0034093 14.4812754,19.0034093 L7.94856661,19.0034093 L7.94856661,27.9104401 L14.4812754,27.9104401 C16.9156664,27.9104401 18.704664,25.9805032 18.704664,23.4565806 L18.704664,23.4565806 Z M207.010996,18.0136628 L207.010996,18.0040269 C205.022299,21.8363696 200.968205,24.4456389 196.155394,24.4456389 L189.18321,24.4456389 L189.18321,35.3335394 L181.234643,35.3335394 L181.234643,23.6589349 C178.884554,30.9560789 172.069227,36.025949 164.027375,36.025949 C154.04036,36.025949 145.94392,28.2077771 145.94392,18.0136628 C145.94392,7.8188602 154.04036,0 164.027375,0 C172.069227,0 178.884554,5.07055837 181.234643,12.3677024 L181.234643,0.693097907 L196.155394,0.693097907 C202.525027,0.693097907 207.565177,5.26465332 208.247885,11.1921202 C210.805964,4.53163517 217.11548,0 225.095833,0 C231.403967,0 236.969967,3.11790816 240,8.01708483 L233.143904,11.9760711 C231.603666,9.30348005 228.622694,7.72043617 225.095833,7.72043617 C218.934191,7.72043617 214.960253,11.8274026 214.960253,18.0136628 C214.960253,24.1992347 218.934191,28.3062011 225.095833,28.3062011 C228.622694,28.3062011 231.652727,26.7231572 233.143904,24.0505662 L240,28.0095525 C237.019028,32.9087291 231.455101,36.025949 225.095833,36.025949 C214.61268,36.025949 207.010996,28.2077771 207.010996,18.0136628 L207.010996,18.0136628 Z M200.377401,12.5700567 L200.377401,12.5700567 C200.377401,10.0461341 198.589785,8.11550886 196.155394,8.11550886 L189.18321,8.11550886 L189.18321,17.0232279 L196.155394,17.0232279 C198.589785,17.0232279 200.377401,15.0939792 200.377401,12.5700567 L200.377401,12.5700567 Z M174.162955,18.0136628 L174.162955,18.0136628 C174.162955,11.8274026 169.690807,7.72043617 164.027375,7.72043617 C158.363944,7.72043617 153.892486,11.8274026 153.892486,18.0136628 C153.892486,24.1992347 158.363944,28.3062011 164.027375,28.3062011 C169.690807,28.3062011 174.162955,24.1992347 174.162955,18.0136628 L174.162955,18.0136628 Z M145.593583,27.7122155 L145.593583,41.9651167 L137.644325,41.9651167 L137.644325,35.3335394 L120.255324,35.3335394 L120.255324,41.9651167 L112.306758,41.9651167 L112.306758,27.7122155 L115.83431,27.7122155 C117.4243,25.4353855 118.567213,22.1206292 118.567213,16.231706 L118.567213,0.693097907 L141.867714,0.693097907 L141.867714,27.7122155 L145.593583,27.7122155 Z M133.918456,27.7122155 L133.918456,27.7122155 L133.918456,8.11550886 L126.515088,8.11550886 L126.515088,16.3308183 C126.515088,22.0222052 125.521431,25.4849416 124.280396,27.7122155 L133.918456,27.7122155 Z M111.266113,23.4565806 C111.266113,30.0386017 105.949563,35.3335394 99.0934663,35.3335394 L84.612191,35.3335394 L84.612191,0.693097907 L92.5607576,0.693097907 L92.5607576,11.5796218 L99.0934663,11.5796218 C105.949563,11.5796218 111.266113,16.8752478 111.266113,23.4565806 L111.266113,23.4565806 Z M103.316855,23.4565806 L103.316855,23.4565806 C103.316855,20.932658 101.527857,19.0034093 99.0934663,19.0034093 L92.5607576,19.0034093 L92.5607576,27.9104401 L99.0934663,27.9104401 C101.527857,27.9104401 103.316855,25.9805032 103.316855,23.4565806 L103.316855,23.4565806 Z M49.745741,28.0343305 L51.3792637,28.0343305 C54.0133536,28.0343305 55.5674113,26.4588577 55.5674113,21.5768881 L55.5674113,0.693097907 L79.613501,0.693097907 L79.613501,35.3335394 L71.6642434,35.3335394 L71.6642434,8.11550886 L63.5166689,8.11550886 L63.5166689,21.2795511 C63.5166689,32.3567286 57.6604486,35.3335394 51.8346323,35.3335394 L48.9013397,35.3335394 C47.1441281,40.1852247 42.8412745,43.5034224 37.8716065,43.5034224 L32.35674,43.5034224 L32.35674,36.4767724 L36.3811207,36.4767724 C39.809169,36.4767724 42.292621,34.1510744 42.292621,30.4391807 L42.292621,26.7451822 L36.3313688,26.7451822 C32.1135082,26.7451822 28.7006619,25.2275249 26.6235176,22.6168791 C26.6428656,22.8942559 26.6539216,23.1736975 26.6539216,23.4565806 C26.6539216,30.0386017 21.3373718,35.3335394 14.4812754,35.3335394 L0,35.3335394 L0,0.693097907 L20.7638423,0.693097907 L20.7638423,8.11550886 L7.94925761,8.11550886 L7.94856661,11.5796218 L14.4812754,11.5796218 C18.647311,11.5796218 22.2446541,13.5350252 24.4261394,16.5455617 C24.4137014,16.3191176 24.4074824,16.0899203 24.4074824,15.85797 L24.4074824,0.693097907 L32.35674,0.693097907 L32.35674,15.85797 C32.35674,18.3818926 34.1457375,19.322083 36.3313688,19.322083 L42.292621,19.322083 L42.292621,0.693097907 L49.745741,0.693097907 L49.745741,28.0343305 Z" id="Fill-3" fill="#F06F30"></path>
        </g>
    </g>
</svg>