<?xml version="1.0" encoding="UTF-8"?>
<svg width="120px" height="63px" viewBox="0 0 120 63" version="1.1" xmlns="http://www.w3.org/2000/svg" xmlns:xlink="http://www.w3.org/1999/xlink">
    <title>Artboard</title>
    <defs>
        <polygon id="path-1" points="0.382222222 0.572371978 25.3733333 0.572371978 25.3733333 45.7142857 0.382222222 45.7142857"></polygon>
        <polygon id="path-3" points="0 61.3174603 119.976508 61.3174603 119.976508 0 0 0"></polygon>
    </defs>
    <g id="Artboard" stroke="none" stroke-width="1" fill="none" fill-rule="evenodd">
        <g id="Group-9-Copy" transform="translate(0.000000, 0.000000)">
            <g id="Group-3" transform="translate(94.603175, 15.603175)">
                <mask id="mask-2" fill="white">
                    <use xlink:href="#path-1"></use>
                </mask>
                <g id="Clip-2"></g>
                <path d="M0.382222222,3.12019048 L0.382222222,42.0287619 C0.382222222,44.0573333 2.03936508,45.7144762 4.06730159,45.7144762 L21.688254,45.7144762 C23.7142857,45.7144762 25.3733333,44.0573333 25.3733333,42.0287619 L25.3733333,15.5132063 C25.3733333,13.4852698 23.8920635,11.0801905 22.0819048,10.1671746 L3.67238095,0.882095238 C1.86349206,-0.0315555556 0.382222222,1.18368254 0.382222222,3.12019048 L0.382222222,3.12019048 Z M9.06984127,15.2789206 C9.06984127,14.1246349 9.13460317,13.1995556 10.8780952,14.1646349 L14.9155556,16.2008254 C15.911746,16.7043175 16.7257143,18.0262222 16.7257143,19.139873 L16.7257143,35.4459048 C16.7257143,37.1449524 16.2095238,37.4732063 14.6996825,37.4732063 L11.095873,37.4732063 C9.4831746,37.4732063 9.06984127,37.1017778 9.06984127,35.4459048 L9.06984127,15.2789206 Z" id="Fill-1" fill="#E20025" mask="url(#mask-2)"></path>
            </g>
            <mask id="mask-4" fill="white">
                <use xlink:href="#path-3"></use>
            </mask>
            <g id="Clip-5"></g>
            <polygon id="Fill-4" fill="#E20025" mask="url(#mask-4)" points="55.1104762 61.3009524 63.7777778 61.3009524 63.7777778 0 55.1104762 0"></polygon>
            <path d="M73.5026032,4.00736508 C71.6924444,3.09434921 70.2124444,3.9311746 70.2124444,5.86768254 L70.2124444,57.632127 C70.2124444,59.6594286 71.8702222,61.3172063 73.8981587,61.3172063 L90.839746,61.3172063 L90.839746,52.6511746 L80.8746667,52.6511746 C79.3133968,52.6511746 78.8486349,52.2181587 78.8486349,50.6232381 L78.8486349,18.4543492 C78.8486349,17.3381587 79.6626032,16.8365714 80.6575238,17.3400635 L90.839746,22.3419683 L90.839746,12.6727619 L73.5026032,4.00736508 Z" id="Fill-6" fill="#E20025" mask="url(#mask-4)"></path>
            <path d="M24.380254,61.2996825 L33.0431111,61.2996825 L33.0431111,45.3568254 L37.940254,45.3568254 C39.5167619,45.3568254 39.9681905,46.8863492 39.9681905,48.6247619 L39.9764444,61.2819048 L48.644381,61.2819048 L48.6342222,46.2419048 C48.2539048,41.4736508 44.8640635,40.6069841 42.8380317,40.6069841 C45.7097778,39.8146032 48.644381,39.7415873 48.644381,33.6730159 L48.644381,6.08952381 C48.644381,4.06349206 47.2805714,3.10349206 45.5599365,3.95555556 C43.8393016,4.80698413 26.1973968,13.5263492 24.380254,14.4266667 L24.380254,61.2996825 Z M38.1866032,17.2330159 C39.1827937,16.7301587 39.9764444,17.1434921 39.9764444,18.2577778 L39.9764444,33.6730159 C39.9764444,33.6730159 40.0894603,36.7307937 37.9504127,36.7307937 L33.059619,36.7307937 L33.059619,19.815873 L38.1866032,17.2330159 Z" id="Fill-7" fill="#E20025" mask="url(#mask-4)"></path>
            <path d="M8.68768254,34.1152381 C8.68768254,33.0003175 9.50292063,31.6771429 10.4978413,31.1755556 C13.963873,29.4250794 19.9968889,26.4777778 19.9968889,26.4777778 L19.9968889,16.772381 L3.29149206,25.0606349 C1.48133333,25.9742857 6.34920635e-05,28.3787302 6.34920635e-05,30.4060317 L0.00895238095,61.2993651 L8.67625397,61.2993651 L8.67625397,45.3742857 L20.0870476,45.3742857 L20.0870476,36.7355556 L8.67625397,36.7355556 C8.67625397,35.1673016 8.68768254,35.0485714 8.68768254,34.1152381" id="Fill-8" fill="#E20025" mask="url(#mask-4)"></path>
        </g>
    </g>
</svg>