<?xml version="1.0" encoding="UTF-8"?>
<svg width="200px" height="64px" viewBox="0 0 200 64" version="1.1" xmlns="http://www.w3.org/2000/svg" xmlns:xlink="http://www.w3.org/1999/xlink">
    <title>Artboard</title>
    <g id="Artboard" stroke="none" stroke-width="1" fill="none" fill-rule="evenodd">
        <g id="Group-Copy" transform="translate(0.000000, -0.000000)">
            <path d="M48.0317779,0 C46.6445758,8.7678004 37.4218976,15.9228996 26.3565891,15.9228996 C15.456552,15.9228996 5.48870317,9.23548612 4.65116279,0 L4.65116279,42.2352783 C4.80649298,51.4619174 14.4634744,58.9147287 26.3634237,58.9147287 C38.2588166,58.9147287 47.9178691,51.4619174 48.0317779,42.2352783 L48.0317779,0 Z" id="Fill-1" fill="#231F20"></path>
            <polygon id="Fill-3" fill="#FFF100" points="7.75193798 41.8604651 10.574101 20.1570181 20.1550388 20.1550388 17.3535287 41.8580899"></polygon>
            <polygon id="Fill-5" fill="#FFF100" points="21.3924246 20.1589981 30.8750907 20.1586022 30.2486156 25.2590072 36.4009432 20.1582062 48.0620155 20.1550388 38.5638709 28.9253439 46.8738309 41.8604651 35.4123508 41.8572977 31.3814031 34.7344684 29.3247888 36.1685367 28.3675609 41.8557139 18.6046512 41.8572977"></polygon>
            <g id="Group-9" fill="#231F20">
                <path d="M0,1.621442e-13 L0,41.8604651 C0,54.2471279 11.7859533,63.5659704 26.2733578,63.5659704 C40.760366,63.5659704 52.7131783,54.2471279 52.7131783,41.8604651 L52.7131783,1.621442e-13 L49.6124031,1.621442e-13 L49.6124031,41.8604651 C49.6124031,52.8644711 39.374168,60.4651163 26.273556,60.4651163 C13.172944,60.4651163 3.10077519,52.8644711 3.10077519,41.8604651 L3.10077519,1.621442e-13 L0,1.621442e-13 Z" id="Fill-7"></path>
            </g>
            <polygon id="Fill-40" fill="#231F20" points="66.1286688 17.0542636 74.5447327 17.0542636 72.6707249 26.7503973 72.7461963 26.8321738 82.081095 17.0542636 93.0232558 17.0542636 79.9786763 29.1847012 87.858853 46.5116279 78.4085509 46.5116279 73.3966883 35.0846231 70.5291729 37.8894404 68.8819788 46.5116279 60.4651163 46.5116279"></polygon>
            <polygon id="Fill-42" fill="#231F20" points="87.9660502 32.5581395 99.2248062 32.5581395 98.0819539 40.3100775 86.8217054 40.3100775"></polygon>
            <polygon id="Fill-44" fill="#231F20" points="105.164267 17.0542636 127.131783 17.0542636 125.619035 24.6044427 112.421712 24.6044427 111.66513 28.277021 122.868205 28.277021 121.472399 35.2911959 110.267659 35.2911959 107.996248 46.5116279 99.2248062 46.5116279"></polygon>
            <polygon id="Fill-46" fill="#231F20" points="129.625112 17.0542636 137.945026 17.0542636 133.786056 38.9622239 145.736434 38.9622239 144.297747 46.5116279 124.031008 46.5116279"></polygon>
            <polygon id="Fill-48" fill="#231F20" points="151.361585 17.0542636 173.643411 17.0542636 172.248752 24.6044427 158.274174 24.6044427 157.556741 28.277021 170.509567 28.277021 169.187834 35.2911959 156.196771 35.2911959 155.478943 38.9622239 169.753897 38.9622239 168.31903 46.5116279 145.736434 46.5116279"></polygon>
            <polygon id="Fill-50" fill="#231F20" points="179.87676 30.9165527 173.843819 17.0542636 182.637297 17.0542636 185.175886 24.7287505 190.397829 17.0542636 200 17.0542636 189.074584 30.9165527 195.439295 46.5116279 186.351678 46.5116279 183.44599 38.2604499 177.375802 46.5116279 167.44186 46.5116279"></polygon>
            <rect id="Rectangle-2" fill="#FFEB00" x="9.30232558" y="48.0620155" width="32.5581395" height="1.5503876"></rect>
            <rect id="Rectangle-2" fill="#FFEB00" x="15.503876" y="52.7131783" width="20.1550388" height="1.5503876"></rect>
        </g>
    </g>
</svg>