<?xml version="1.0" encoding="UTF-8"?>
<svg width="350px" height="36px" viewBox="0 0 350 36" version="1.1" xmlns="http://www.w3.org/2000/svg" xmlns:xlink="http://www.w3.org/1999/xlink">
    <title>Artboard</title>
    <defs>
        <polygon id="path-1" points="0.315 0.40231383 26.9913298 0.40231383 26.9913298 33.5106383 0.315 33.5106383"></polygon>
        <polygon id="path-3" points="0.639308511 0.40268617 34.5055319 0.40268617 34.5055319 33.5106383 0.639308511 33.5106383"></polygon>
        <polygon id="path-5" points="1.20898936 0.4025 29.4472872 0.4025 29.4472872 33.5106383 1.20898936 33.5106383"></polygon>
        <polygon id="path-7" points="1.74944149 0.40212766 30.7435904 0.40212766 30.7435904 33.5106383 1.74944149 33.5106383"></polygon>
        <polygon id="path-9" points="1.49010638 0.40268617 35.3563298 0.40268617 35.3563298 33.5106383 1.49010638 33.5106383"></polygon>
        <polygon id="path-11" points="0.198643617 0.40212766 29.1927926 0.40212766 29.1927926 33.5106383 0.198643617 33.5106383"></polygon>
        <polygon id="path-13" points="1.80101064 0.40268617 35.6664894 0.40268617 35.6664894 33.5106383 1.80101064 33.5106383"></polygon>
        <polygon id="path-15" points="0 0.482180851 14.2412766 0.482180851 14.2412766 21.1619681 0 21.1619681"></polygon>
        <polygon id="path-17" points="0 34.9705851 348.432447 34.9705851 348.432447 1.86207447 0 1.86207447"></polygon>
    </defs>
    <g id="Artboard" stroke="none" stroke-width="1" fill="none" fill-rule="evenodd">
        <g id="Group-29-Copy" transform="translate(0.000000, 0.000000)">
            <g id="Group-3" transform="translate(59.574468, 1.459947)">
                <mask id="mask-2" fill="white">
                    <use xlink:href="#path-1"></use>
                </mask>
                <g id="Clip-2"></g>
                <path d="M14.646383,18.7065691 L5.70648936,18.7065691 L5.70648936,28.7802394 L13.8905319,28.7802394 C17.5785638,28.7802394 21.5048936,28.3557713 21.5048936,23.7685372 C21.5048936,19.3674734 17.6269681,18.7065691 14.646383,18.7065691 L14.646383,18.7065691 Z M13.7490426,5.08635638 L5.70648936,5.08635638 L5.70648936,14.1193351 L14.5048936,14.1677394 C17.6269681,14.1677394 20.1812234,12.8422074 20.1812234,9.62518617 C20.1812234,6.31507979 17.7200532,5.08635638 13.7490426,5.08635638 L13.7490426,5.08635638 Z M14.315,0.40231383 C21.2200532,0.40231383 25.6657979,3.14646277 25.6657979,8.7743883 C25.6657979,12.7938032 23.2548936,15.1600266 20.4642021,16.057367 C23.4447872,16.9100266 26.9913298,19.1794415 26.9913298,24.3344947 C26.9913298,31.8539096 19.6599468,33.5108245 14.4099468,33.5108245 L0.315,33.5108245 L0.315,0.40231383 L14.315,0.40231383 Z" id="Fill-1" fill="#1B6270" mask="url(#mask-2)"></path>
            </g>
            <g id="Group-6" transform="translate(96.808511, 1.459947)">
                <mask id="mask-4" fill="white">
                    <use xlink:href="#path-3"></use>
                </mask>
                <g id="Clip-5"></g>
                <path d="M11.1393085,21.6391223 L24.0055319,21.6391223 L18.1877128,7.49577128 C17.9978191,6.97635638 17.8097872,6.45694149 17.5714894,5.65268617 C17.3350532,6.45694149 17.1470213,6.97635638 16.9571277,7.49577128 L11.1393085,21.6391223 Z M0.639308511,33.5111968 L14.6393085,0.40268617 L20.5520745,0.40268617 L34.5055319,33.5111968 L28.8292021,33.5111968 L25.8970213,26.3697074 L9.2943617,26.3697074 L6.36218085,33.5111968 L0.639308511,33.5111968 Z" id="Fill-4" fill="#1B6270" mask="url(#mask-4)"></path>
            </g>
            <g id="Group-9" transform="translate(143.351064, 1.459947)">
                <mask id="mask-6" fill="white">
                    <use xlink:href="#path-5"></use>
                </mask>
                <g id="Clip-8"></g>
                <path d="M1.20898936,33.5110106 L1.20898936,0.4025 L6.27095745,0.4025 L24.1023404,24.6195213 C24.0539362,23.483883 24.0539362,22.2067553 24.0539362,20.9780319 L24.0539362,0.4025 L29.4472872,0.4025 L29.4472872,33.5110106 L24.3853191,33.5110106 L6.55393617,9.29398936 C6.60047872,10.4296277 6.60047872,11.7067553 6.60047872,12.8889362 L6.60047872,33.5110106 L1.20898936,33.5110106 Z" id="Fill-7" fill="#1B6270" mask="url(#mask-6)"></path>
            </g>
            <g id="Group-12" transform="translate(188.031915, 1.459947)">
                <mask id="mask-8" fill="white">
                    <use xlink:href="#path-7"></use>
                </mask>
                <g id="Clip-11"></g>
                <path d="M13.290133,5.3218617 L7.14093085,5.3218617 L7.14093085,28.5912766 L13.290133,28.5912766 C21.1427926,28.5912766 25.2571543,24.3819681 25.2571543,16.9575 C25.2571543,9.53117021 21.1427926,5.3218617 13.290133,5.3218617 L13.290133,5.3218617 Z M13.3366755,0.401382979 C25.0672606,0.401382979 30.7435904,7.35484043 30.7435904,16.9575 C30.7435904,26.5582979 25.0672606,33.5117553 13.3366755,33.5117553 L1.74944149,33.5117553 L1.74944149,0.401382979 L13.3366755,0.401382979 Z" id="Fill-10" fill="#1B6270" mask="url(#mask-8)"></path>
            </g>
            <g id="Group-15" transform="translate(227.127660, 1.459947)">
                <mask id="mask-10" fill="white">
                    <use xlink:href="#path-9"></use>
                </mask>
                <g id="Clip-14"></g>
                <path d="M11.9919681,21.6391223 L24.8563298,21.6391223 L19.0385106,7.49577128 C18.8504787,6.97635638 18.6605851,6.45694149 18.4241489,5.65268617 C18.1877128,6.45694149 17.9996809,6.97635638 17.8079255,7.49577128 L11.9919681,21.6391223 Z M1.49010638,33.5111968 L15.4919681,0.40268617 L21.404734,0.40268617 L35.3563298,33.5111968 L29.68,33.5111968 L26.7478191,26.3697074 L10.1470213,26.3697074 L7.21484043,33.5111968 L1.49010638,33.5111968 Z" id="Fill-13" fill="#1B6270" mask="url(#mask-10)"></path>
            </g>
            <g id="Group-18" transform="translate(275.531915, 1.459947)">
                <mask id="mask-12" fill="white">
                    <use xlink:href="#path-11"></use>
                </mask>
                <g id="Clip-17"></g>
                <path d="M11.7393351,5.3218617 L5.59013298,5.3218617 L5.59013298,28.5912766 L11.7393351,28.5912766 C19.5919947,28.5912766 23.7063564,24.3819681 23.7063564,16.9575 C23.7063564,9.53117021 19.5919947,5.3218617 11.7393351,5.3218617 L11.7393351,5.3218617 Z M11.7858777,0.401382979 C23.5164628,0.401382979 29.1927926,7.35484043 29.1927926,16.9575 C29.1927926,26.5582979 23.5164628,33.5117553 11.7858777,33.5117553 L0.198643617,33.5117553 L0.198643617,0.401382979 L11.7858777,0.401382979 Z" id="Fill-16" fill="#1B6270" mask="url(#mask-12)"></path>
            </g>
            <g id="Group-21" transform="translate(312.765957, 1.459947)">
                <mask id="mask-14" fill="white">
                    <use xlink:href="#path-13"></use>
                </mask>
                <g id="Clip-20"></g>
                <path d="M12.3028723,21.6391223 L25.167234,21.6391223 L19.3494149,7.49577128 C19.161383,6.97635638 18.9714894,6.45694149 18.7350532,5.65268617 C18.498617,6.45694149 18.3105851,6.97635638 18.1188298,7.49577128 L12.3028723,21.6391223 Z M1.80101064,33.5111968 L15.8028723,0.40268617 L21.7156383,0.40268617 L35.667234,33.5111968 L29.9909043,33.5111968 L27.0587234,26.3697074 L10.4579255,26.3697074 L7.52574468,33.5111968 L1.80101064,33.5111968 Z" id="Fill-19" fill="#1B6270" mask="url(#mask-14)"></path>
            </g>
            <g id="Group-24" transform="translate(0.000000, 1.459947)">
                <mask id="mask-16" fill="white">
                    <use xlink:href="#path-15"></use>
                </mask>
                <g id="Clip-23"></g>
                <polygon id="Fill-22" fill="#1B6270" mask="url(#mask-16)" points="3.36893617 0.482180851 3.36893617 18.0305851 14.2412766 18.0305851 14.2412766 21.1619681 -0.000744680851 21.1619681 -0.000744680851 0.482180851"></polygon>
            </g>
            <path d="M25.8301862,15.2067553 L33.8652926,15.2067553 L30.2331117,6.37484043 C30.1139628,6.04904255 29.9966755,5.72324468 29.8477394,5.22244681 C29.7006649,5.72324468 29.581516,6.04904255 29.4642287,6.37484043 L25.8301862,15.2067553 Z M19.2714096,22.6219149 L28.0158245,1.94212766 L31.7094415,1.94212766 L40.4240691,22.6219149 L36.8793883,22.6219149 L35.0474734,18.1612766 L24.6777926,18.1612766 L22.8458777,22.6219149 L19.2714096,22.6219149 Z" id="Fill-25" fill="#1B6270"></path>
            <mask id="mask-18" fill="white">
                <use xlink:href="#path-17"></use>
            </mask>
            <g id="Clip-28"></g>
            <polygon id="Fill-27" fill="#1B6270" mask="url(#mask-18)" points="0.0484042553 34.965 39.3489362 34.965 39.3489362 31.8931915 0.0484042553 31.8931915"></polygon>
        </g>
    </g>
</svg>