<?xml version="1.0" encoding="UTF-8"?>
<svg width="200px" height="53px" viewBox="0 0 200 53" version="1.1" xmlns="http://www.w3.org/2000/svg" xmlns:xlink="http://www.w3.org/1999/xlink">
    <title>Artboard</title>
    <defs>
        <polygon id="path-1" points="0 0.25918688 199.733724 0.25918688 199.733724 43.0989011 0 43.0989011"></polygon>
        <polygon id="path-3" points="0.543049853 0.432736264 14.8462757 0.432736264 14.8462757 5.05264725 0.543049853 5.05264725"></polygon>
    </defs>
    <g id="Artboard" stroke="none" stroke-width="1" fill="none" fill-rule="evenodd">
        <g id="Group-7-Copy">
            <g id="Group-3" transform="translate(0.000000, 9.468537)">
                <mask id="mask-2" fill="white">
                    <use xlink:href="#path-1"></use>
                </mask>
                <g id="Clip-2"></g>
                <path d="M185.583578,25.9869484 L174.329032,25.9869484 L180.051613,8.1871022 L185.583578,25.9869484 Z M199.733724,42.4728604 L186.211144,4.25345385 C185.083284,0.81951978 182.127273,0.382706593 180.302639,0.382706593 C178.228152,0.382706593 176.276833,0.81951978 175.272141,1.25691538 L160.680938,42.4728604 L169.234018,42.4728604 L172.692669,32.2310473 L187.219355,32.2310473 L190.805865,42.4728604 L199.733724,42.4728604 Z M128.104399,3.19112418 C126.909677,1.25575055 125.649853,0.382706593 122.946628,0.382706593 C121.498534,0.382706593 119.930205,0.567332967 119.111437,0.754289011 L119.111437,42.4728604 L127.34956,42.4728604 L127.34956,14.9967286 L145.274487,42.4728604 L152.568328,42.4728604 L152.568328,5.25521209 C152.568328,1.06995934 149.42522,0.382706593 147.094428,0.382706593 C146.530205,0.382706593 145.900293,0.510256044 145.334897,0.567332967 L144.330205,0.69197033 L144.330205,29.4837835 L128.104399,3.19112418 Z M97.6651026,25.9869484 L86.4117302,25.9869484 L92.1302053,8.1871022 L97.6651026,25.9869484 Z M111.814076,42.4728604 L98.2956012,4.25345385 C97.1624633,0.81951978 94.2064516,0.382706593 92.3818182,0.382706593 C90.3096774,0.382706593 88.3577713,0.81951978 87.3524927,1.25691538 L72.7636364,42.4728604 L81.3120235,42.4728604 L84.7741935,32.2310473 L99.3002933,32.2310473 L102.887977,42.4728604 L111.814076,42.4728604 Z M57.3536657,13.4358495 C57.3536657,18.4935637 54.2087977,20.9274868 49.2439883,20.9274868 L46.285044,20.926322 L46.285044,6.50042088 C47.0410557,6.43868462 48.1096774,6.31637692 49.6181818,6.31637692 C54.397654,6.31637692 57.3536657,8.1871022 57.3536657,13.4358495 L57.3536657,13.4358495 Z M66.4082111,12.6227945 C66.4082111,4.31577253 60.940176,0.25918688 48.8005865,0.25918688 C45.5941349,0.25573956 41.4439883,0.44619011 37.6692082,0.881838462 L37.6692082,42.4728604 L46.3501466,42.4728604 L46.3501466,26.7347725 L49.8087977,26.7347725 L56.9771261,38.8513879 C58.7384164,41.8490912 60.6868035,43.0989593 63.7695015,43.0989593 C65.340176,43.0989593 67.2281525,42.7221352 68.8017595,42.0377945 L58.4234604,24.8011462 C62.5096774,23.3020033 66.4082111,19.5523989 66.4082111,12.6227945 L66.4082111,12.6227945 Z M20.0604106,13.3706187 C20.0604106,19.4271791 16.7900293,21.4901022 10.6879765,21.4901022 L8.61231672,21.4901022 L8.61231672,6.50042088 C9.55777126,6.37578352 10.6879765,6.31637692 12.0105572,6.31637692 C16.7284457,6.31637692 20.0604106,8.3129044 20.0604106,13.3706187 L20.0604106,13.3706187 Z M28.8645161,12.9314758 C28.8645161,4.62794835 23.3941349,0.25918688 11.1313783,0.25918688 C7.92258065,0.25573956 3.771261,0.44619011 0,0.881838462 L0,42.4728604 L8.67741935,42.4728604 L8.67741935,27.5460802 L11.6961877,27.5460802 C20.9431085,27.5460802 28.8645161,23.7993879 28.8645161,12.9314758 L28.8645161,12.9314758 Z" id="Fill-1" fill="#7C5DA7" mask="url(#mask-2)"></path>
            </g>
            <g id="Group-6" transform="translate(84.457478, 0.149856)">
                <mask id="mask-4" fill="white">
                    <use xlink:href="#path-3"></use>
                </mask>
                <g id="Clip-5"></g>
                <path d="M1.25038123,5.05264725 L14.1377713,5.05264725 C14.5283871,5.05264725 14.8462757,4.73697692 14.8462757,4.34966923 L14.8462757,1.13647143 C14.8462757,0.749163736 14.5283871,0.432328571 14.1377713,0.432328571 L1.25038123,0.432328571 C0.859178886,0.432328571 0.543049853,0.749163736 0.543049853,1.13647143 L0.543049853,4.34966923 C0.543049853,4.73697692 0.859178886,5.05264725 1.25038123,5.05264725" id="Fill-4" fill="#7C5DA7" mask="url(#mask-4)"></path>
            </g>
        </g>
    </g>
</svg>