<?xml version="1.0" encoding="UTF-8"?>
<svg width="80px" height="102px" viewBox="0 0 80 102" version="1.1" xmlns="http://www.w3.org/2000/svg" xmlns:xlink="http://www.w3.org/1999/xlink">
    <title>Artboard</title>
    <g id="Artboard" stroke="none" stroke-width="1" fill="none" fill-rule="evenodd">
        <g id="Provkus_logo_bez-slogana-Copy">
            <path d="M78.5,1.5 L1.5,1.5 L1.5,100.23913 L78.5,100.23913 L78.5,1.5 Z" id="Fill-1" stroke="#D8197F" stroke-width="3" fill="#FFFFFE"></path>
            <g id="Group-20" transform="translate(12.173913, 17.820759)" fill="#1A1919">
                <path d="M8.42951301,56.113821 C9.26863553,55.6176761 9.71567898,54.7507049 9.71567898,53.6111106 C9.71567898,52.5052277 9.25471123,51.7386581 8.34670004,51.3319219 C7.65121771,51.0065329 6.50136335,50.8291812 5.10087152,50.8291812 L2.5248753,50.8291812 L2.5248753,56.7550718 L5.28628462,56.7550718 C6.64353782,56.7550718 7.67247059,56.5454744 8.42951301,56.113821 Z M9.04951096,64.2976474 C10.1114223,63.5911722 10.3342112,62.4127364 10.3342112,61.5486967 C10.3342112,59.4021553 8.6046661,58.313861 5.19321164,58.313861 L2.5248753,58.313861 L2.5248753,65.0334369 L5.687158,65.0334369 C7.15360706,65.0334369 8.3474329,64.7718066 9.04951096,64.2976474 Z M9.07003099,57.4322327 C11.9333076,58.3461068 12.2850795,60.5490782 12.2850795,61.5714153 C12.2850795,63.5794465 11.5170442,64.9462268 9.93846784,65.7487064 C8.83038639,66.3152058 7.3698002,66.5907604 5.47316343,66.5907604 L0.573274177,66.5907604 L0.573274177,49.2703921 L5.87403682,49.2703921 C7.61750624,49.2703921 8.95057512,49.5906511 9.95092643,50.2502233 C11.1073765,51.0167929 11.6687458,52.0948272 11.6687458,53.5444205 C11.6687458,54.9654324 11.3191725,56.4853801 9.07003099,57.4322327 Z" id="Fill-2"></path>
                <polygon id="Fill-4" points="27.317758 49.2701722 24.9279077 49.2701722 16.7682656 57.8028391 16.7682656 49.2701722 14.8173974 49.2701722 14.8173974 66.5912734 16.7682656 66.5912734 16.7682656 60.065172 19.276106 57.612296 25.4079298 66.5912734 27.6438798 66.5912734 20.6025792 56.3048771"></polygon>
                <path d="M35.7317018,60.9883534 L30.1341316,49.2699524 L27.9809945,49.2699524 L34.7218234,62.9538788 L34.263787,63.9051286 C33.8101479,64.8233998 33.2099371,65.2154789 32.2579544,65.2154789 C31.8050481,65.2154789 31.6650722,65.194226 31.5221649,65.1729731 L31.0047671,65.096023 L31.0047671,66.6504151 L31.3477447,66.7354266 C31.5822593,66.7933224 31.9538183,66.8175067 32.6295135,66.8175067 C34.1406669,66.8175067 35.2758641,66.0054999 36.0035922,64.4086021 L43.0668785,49.2699524 L40.8917557,49.2699524 L35.7317018,60.9883534 Z" id="Fill-6"></path>
                <path d="M54.8235347,60.5550144 L54.8235347,61.0057221 C54.8235347,61.9613691 54.5186658,63.0394033 54.0313151,63.8147672 C53.3563528,64.8627543 52.1639927,65.4402465 50.6733593,65.4402465 C49.2039788,65.4402465 47.979373,64.9213829 47.2267277,63.9833246 C46.3810094,62.9104203 45.933966,60.7704747 45.933966,57.7950708 C45.933966,55.0637086 46.3736809,53.0212331 47.2010777,51.8940974 C47.9192786,50.9443133 49.0749958,50.4210526 50.4564333,50.4210526 C51.8327408,50.4210526 53.0265667,50.8768903 53.732309,51.6713085 C54.2907469,52.3030322 54.6381216,53.1839276 54.6381216,53.9724829 L54.6381216,54.4231907 L56.6520157,54.4231907 L56.6520157,53.9724829 C56.6520157,52.7046384 56.0767221,51.4492525 55.0294679,50.4349769 C53.897935,49.3628055 52.4644645,48.8637291 50.5187263,48.8637291 C47.8108156,48.8637291 46.0636819,49.8039861 45.0208248,51.8222773 C44.3114182,53.2066462 43.9515848,55.1018173 43.9515848,57.4557575 C43.9515848,59.4740487 44.0827664,60.9588192 44.3641839,62.1247964 C44.7335444,63.7458785 45.3081052,64.8620214 46.1692134,65.6381182 C47.1834891,66.5534579 48.5854466,66.9983028 50.4564333,66.9983028 C52.6278919,66.9983028 54.1580996,66.4112835 55.2749753,65.1471032 C56.2767924,63.9957832 56.8066488,62.5637784 56.8066488,61.0057221 L56.8066488,60.5550144 L54.8235347,60.5550144 Z" id="Fill-8"></path>
                <path d="M25.8806965,0.325364568 C25.1302498,0.325364568 24.2933259,0.88013815 24.2933259,1.67748776 C24.2933259,2.47410452 25.1302498,3.02961096 25.8806965,3.02961096 C31.3045793,3.02961096 35.241493,6.08856067 35.241493,10.3083576 C35.241493,14.0686525 31.9604873,18.0663935 25.8806965,18.0663935 C25.1302498,18.0663935 24.2933259,18.6204342 24.2933259,19.4148524 L24.2933259,44.0015088 L27.4688,44.0015088 L27.4688,20.7083469 C33.7545239,20.0568361 38.4147686,15.6743446 38.4147686,10.3083576 C38.4147686,4.6169816 33.026063,0.325364568 25.8806965,0.325364568" id="Fill-10"></path>
                <path d="M3.57572053,44.0012889 L3.57572053,3.0293911 L7.46646418,3.0293911 C9.68189422,3.0293911 11.3520778,4.16751973 11.3520778,5.67427598 L11.3520778,44.0012889 L14.5282848,44.0012889 L14.5282848,5.67427598 C14.5282848,2.72598785 11.3608721,0.32514471 7.46646418,0.32514471 L1.99274703,0.32514471 C1.2393689,0.32514471 0.405376387,0.879918292 0.405376387,1.67726791 L0.405376387,44.0012889 L3.57572053,44.0012889 Z" id="Fill-12"></path>
                <path d="M54.0699368,25.9715139 L54.0699368,38.9606909 C54.0699368,40.4674471 52.395356,41.6041101 50.1806588,41.6041101 C47.9666945,41.6041101 46.2950452,40.4674471 46.2950452,38.9606909 L46.2950452,25.9715139 L46.2950452,20.7843443 L46.2950452,5.36647558 C46.2950452,3.85898647 47.9666945,2.71939212 50.1806588,2.71939212 C52.395356,2.71939212 54.0699368,3.85898647 54.0699368,5.36647558 L54.0699368,20.7843443 L54.0699368,25.9715139 Z M50.1806588,0.0232071732 C46.2877166,0.0232071732 43.1203039,2.41965316 43.1203039,5.36647558 L43.1203039,20.7843443 L43.1203039,25.9715139 L43.1203039,38.9606909 C43.1203039,41.9075133 46.2877166,44.3039593 50.1806588,44.3039593 C54.0750668,44.3039593 57.2410138,41.9075133 57.2410138,38.9606909 L57.2410138,25.9715139 L57.2410138,20.7843443 L57.2410138,5.36647558 C57.2410138,2.41965316 54.0750668,0.0232071732 50.1806588,0.0232071732 L50.1806588,0.0232071732 Z" id="Fill-19"></path>
            </g>
        </g>
    </g>
</svg>