<?xml version="1.0" encoding="UTF-8"?>
<svg width="200px" height="75px" viewBox="0 0 200 75" version="1.1" xmlns="http://www.w3.org/2000/svg" xmlns:xlink="http://www.w3.org/1999/xlink">
    <title>Artboard</title>
    <g id="Artboard" stroke="none" stroke-width="1" fill="none" fill-rule="evenodd">
        <g id="Group-Copy" fill="#1E1E1E">
            <path d="M15.5921053,40 L15.5921053,39.0570175 C13.1359649,38.9692982 11.9078947,37.6973684 11.9078947,35.2412281 L11.9078947,35.2412281 L11.9078947,26.25 L15.7675439,26.25 C18.7646199,26.25 21.2280702,25.6359649 23.1578947,24.4078947 C25.4678363,22.9459064 26.622807,20.8040936 26.622807,17.9824561 C26.622807,12.2660819 22.880117,9.40789474 15.3947368,9.40789474 L15.3947368,9.40789474 L1.0745614,9.40789474 L1.0745614,10.3508772 C3.53070175,10.497076 4.75877193,11.7690058 4.75877193,14.1666667 L4.75877193,14.1666667 L4.75877193,35.2412281 C4.75877193,37.6973684 3.53070175,38.9692982 1.0745614,39.0570175 L1.0745614,39.0570175 L1.0745614,40 L15.5921053,40 Z M11.9078947,24.8245614 L11.9078947,12.872807 C11.9078947,11.5862573 12.624269,10.9429825 14.0570175,10.9429825 L14.0570175,10.9429825 L14.8245614,10.9429825 C16.505848,10.9429825 17.7631579,11.7324561 18.5964912,13.3114035 C19.254386,14.5540936 19.5833333,16.0964912 19.5833333,17.9385965 C19.5833333,21.1549708 18.5964912,23.1798246 16.622807,24.0131579 C15.5116959,24.4809942 13.9400585,24.751462 11.9078947,24.8245614 L11.9078947,24.8245614 Z M37.5877193,40.8114035 C40.2777778,40.8114035 42.4488304,39.9707602 44.1008772,38.2894737 C44.6564327,37.7339181 45.3143275,36.8055556 46.0745614,35.504386 L46.0745614,35.504386 L45.2192982,34.8245614 C43.6842105,36.7251462 41.8859649,37.6754386 39.8245614,37.6754386 C38.128655,37.6754386 36.7909357,36.6666667 35.8114035,34.6491228 C35.0219298,33.0263158 34.627193,31.2792398 34.627193,29.4078947 L34.627193,29.4078947 L34.627193,29.1666667 L45.9868421,29.1666667 C45.9429825,26.622807 45.6725146,24.8026316 45.1754386,23.7061404 C44.4883041,22.1856725 43.4722222,20.9722222 42.127193,20.0657895 C40.7821637,19.1593567 39.2836257,18.7061404 37.6315789,18.7061404 C35,18.7061404 32.7923977,19.9049708 31.0087719,22.3026316 C29.371345,24.495614 28.5526316,26.9517544 28.5526316,29.6710526 C28.5526316,32.7119883 29.2836257,35.2631579 30.745614,37.3245614 C32.3976608,39.6491228 34.6783626,40.8114035 37.5877193,40.8114035 Z M40.6798246,27.3903509 L34.627193,27.3903509 C34.8318713,22.5657895 35.9502924,20.1535088 37.9824561,20.1535088 C39.0350877,20.1535088 39.7733918,20.6140351 40.1973684,21.5350877 C40.5190058,22.2222222 40.6798246,23.5380117 40.6798246,25.4824561 L40.6798246,25.4824561 L40.6798246,27.3903509 Z M55.0438596,40 L55.0438596,39.0131579 C54.0935673,38.9839181 53.4429825,38.8157895 53.0921053,38.5087719 C52.6827485,38.1578947 52.4780702,37.5292398 52.4780702,36.622807 L52.4780702,36.622807 L52.4780702,24.5394737 L52.5877193,24.5394737 L59.1885965,40 L60.3947368,40 L67.1710526,23.4210526 L67.2587719,23.4210526 L67.2587719,35.9649123 C67.2587719,37.2222222 67.1929825,37.9751462 67.0614035,38.2236842 C66.7982456,38.7207602 66.1038012,38.9839181 64.9780702,39.0131579 L64.9780702,39.0131579 L64.9780702,40 L75.4824561,40 L75.4824561,39.0131579 C74.3859649,38.9839181 73.7207602,38.5526316 73.4868421,37.7192982 C73.4137427,37.4561404 73.377193,36.5716374 73.377193,35.0657895 L73.377193,22.9824561 C73.377193,22.002924 73.4795322,21.3523392 73.6842105,21.0307018 C73.9473684,20.6067251 74.5467836,20.372807 75.4824561,20.3289474 L75.4824561,20.3289474 L75.4824561,19.3421053 L67.0394737,19.3421053 L62.1929825,31.4254386 L56.8421053,19.3421053 L48.1359649,19.3421053 L48.1359649,20.3289474 C49.8172515,20.4751462 50.6578947,21.0599415 50.6578947,22.0833333 L50.6578947,22.0833333 L50.6578947,36.622807 C50.6578947,37.5292398 50.4714912,38.1469298 50.0986842,38.4758772 C49.7258772,38.8048246 49.0716374,38.9839181 48.1359649,39.0131579 L48.1359649,39.0131579 L48.1359649,40 L55.0438596,40 Z M92.5,40 L92.5,39.0570175 C90.0438596,38.9692982 88.8157895,37.6973684 88.8157895,35.2412281 L88.8157895,35.2412281 L88.8157895,15.1535088 C88.8157895,12.6096491 90.0438596,11.3377193 92.5,11.3377193 L92.5,11.3377193 L95.8991228,11.3377193 C98.3552632,11.3377193 99.5833333,12.6096491 99.5833333,15.1535088 L99.5833333,15.1535088 L99.5833333,35.2412281 C99.5833333,37.6973684 98.3552632,38.9692982 95.8991228,39.0570175 L95.8991228,39.0570175 L95.8991228,40 L110.416667,40 L110.416667,39.0570175 C107.960526,38.9692982 106.732456,37.6973684 106.732456,35.2412281 L106.732456,35.2412281 L106.732456,14.1666667 C106.732456,11.7690058 107.960526,10.497076 110.416667,10.3508772 L110.416667,10.3508772 L110.416667,9.40789474 L77.9824561,9.40789474 L77.9824561,10.3508772 C80.4385965,10.497076 81.6666667,11.7690058 81.6666667,14.1666667 L81.6666667,14.1666667 L81.6666667,35.2412281 C81.6666667,37.6973684 80.4385965,38.9692982 77.9824561,39.0570175 L77.9824561,39.0570175 L77.9824561,40 L92.5,40 Z M115.701754,40.8114035 C117.763158,40.8114035 119.166667,39.744152 119.912281,37.6096491 C120.336257,36.3669591 120.570175,34.4225146 120.614035,31.7763158 L120.614035,31.7763158 L120.745614,23.75 C120.760234,22.6388889 120.833333,21.9444444 120.964912,21.6666667 C121.21345,21.1111111 121.812865,20.8333333 122.763158,20.8333333 L122.763158,20.8333333 L124.276316,20.8333333 C125.694444,20.8333333 126.403509,21.3815789 126.403509,22.4780702 L126.403509,22.4780702 L126.403509,36.9078947 C126.403509,37.9020468 126.162281,38.5233918 125.679825,38.7719298 C125.387427,38.9181287 124.904971,38.998538 124.232456,39.0131579 L124.232456,39.0131579 L124.232456,40 L134.671053,40 L134.671053,39.0131579 C134.115497,38.998538 133.69152,38.9400585 133.399123,38.8377193 C132.799708,38.6330409 132.5,37.9897661 132.5,36.9078947 L132.5,36.9078947 L132.5,22.4780702 C132.5,21.630117 132.646199,21.0672515 132.938596,20.7894737 C133.230994,20.5116959 133.80848,20.3581871 134.671053,20.3289474 L134.671053,20.3289474 L134.671053,19.3421053 L115.833333,19.3421053 L115.833333,20.3289474 C117.163743,20.3289474 118.019006,20.5263158 118.399123,20.9210526 C118.910819,21.4619883 119.166667,22.8362573 119.166667,25.0438596 C119.166667,28.7134503 119.093567,31.6154971 118.947368,33.75 C118.72807,36.878655 118.187135,38.4356725 117.324561,38.4210526 C117.002924,38.4210526 116.842105,38.2309942 116.842105,37.8508772 C116.842105,37.7339181 116.864035,37.5548246 116.907895,37.3135965 C116.951754,37.0723684 116.973684,36.8932749 116.973684,36.7763158 C116.973684,36.1038012 116.736111,35.5372807 116.260965,35.0767544 C115.785819,34.6162281 115.211988,34.3859649 114.539474,34.3859649 C113.70614,34.3859649 113.055556,34.6747076 112.587719,35.252193 C112.119883,35.8296784 111.885965,36.5423977 111.885965,37.3903509 C111.885965,39.6710526 113.157895,40.8114035 115.701754,40.8114035 Z M142.171053,40.8552632 C143.413743,40.8552632 144.627193,40.5701754 145.811404,40 C146.673977,39.5906433 147.704678,38.9181287 148.903509,37.9824561 C149.839181,39.8684211 151.096491,40.8114035 152.675439,40.8114035 C154.239766,40.8114035 155.899123,40.0292398 157.653509,38.4649123 L157.653509,38.4649123 L157.302632,37.4780702 C156.805556,37.8143275 156.366959,37.9824561 155.986842,37.9824561 C155.387427,37.9824561 155.087719,37.7119883 155.087719,37.1710526 L155.087719,37.1710526 L155.087719,24.6491228 C155.087719,22.6169591 154.071637,21.0818713 152.039474,20.0438596 C150.445906,19.2105263 148.530702,18.7938596 146.29386,18.7938596 C144.305556,18.7938596 142.52924,19.1959064 140.964912,20 C139.005848,20.994152 138.026316,22.3903509 138.026316,24.1885965 C138.026316,25.0804094 138.278509,25.8114035 138.782895,26.3815789 C139.287281,26.9517544 139.97807,27.2368421 140.855263,27.2368421 C141.630117,27.2368421 142.317251,26.995614 142.916667,26.5131579 C143.516082,26.0307018 143.815789,25.4093567 143.815789,24.6491228 C143.815789,24.2251462 143.611111,23.7134503 143.201754,23.1140351 C142.719298,22.3976608 142.47807,21.8859649 142.47807,21.5789474 C142.47807,21.1111111 142.872807,20.745614 143.662281,20.4824561 C144.247076,20.2923977 144.839181,20.1973684 145.438596,20.1973684 C146.739766,20.1973684 147.657164,20.4824561 148.190789,21.0526316 C148.724415,21.622807 148.991228,22.5657895 148.991228,23.8815789 L148.991228,23.8815789 L148.991228,27.6973684 C146.608187,28.3991228 144.868421,28.9546784 143.77193,29.3640351 C139.254386,31.0453216 136.995614,33.3187135 136.995614,36.1842105 C136.995614,37.5877193 137.51462,38.7280702 138.552632,39.6052632 C139.532164,40.4385965 140.738304,40.8552632 142.171053,40.8552632 Z M145.570175,37.7192982 C144.853801,37.7192982 144.290936,37.3830409 143.881579,36.7105263 C143.545322,36.1403509 143.377193,35.4678363 143.377193,34.6929825 C143.377193,31.7836257 145.248538,29.9269006 148.991228,29.122807 L148.991228,29.122807 L148.991228,35.8333333 C147.997076,37.0906433 146.856725,37.7192982 145.570175,37.7192982 Z M169.298246,40.8114035 C170.847953,40.8114035 172.339181,40.3947368 173.77193,39.5614035 C174.912281,38.9035088 176.111111,37.7339181 177.368421,36.0526316 L177.368421,36.0526316 L176.557018,35.2412281 L176.030702,35.7675439 C174.802632,36.995614 173.501462,37.6096491 172.127193,37.6096491 C169.861111,37.6096491 168.165205,36.5131579 167.039474,34.3201754 C166.147661,32.5950292 165.701754,30.4897661 165.701754,28.004386 C165.701754,26.2353801 165.913743,24.6564327 166.337719,23.2675439 C166.966374,21.1915205 167.967836,20.1535088 169.342105,20.1535088 C169.824561,20.1535088 170.277778,20.2777778 170.701754,20.5263158 C171.19883,20.8187135 171.461988,21.1842105 171.491228,21.622807 L171.491228,21.622807 L171.578947,23.245614 C171.695906,25.380117 172.565789,26.4473684 174.188596,26.4473684 C174.97807,26.4473684 175.63231,26.2207602 176.151316,25.7675439 C176.670322,25.3143275 176.929825,24.7002924 176.929825,23.9254386 C176.929825,22.2002924 176.169591,20.877193 174.649123,19.9561404 C173.377193,19.1812865 171.827485,18.7938596 170,18.7938596 C166.959064,18.7938596 164.429825,19.8830409 162.412281,22.0614035 C160.438596,24.1812865 159.451754,26.7763158 159.451754,29.8464912 C159.451754,32.8581871 160.328947,35.4020468 162.083333,37.4780702 C163.940058,39.7002924 166.345029,40.8114035 169.298246,40.8114035 Z M194.890351,40 L194.890351,39.0131579 C193.925439,39.0131579 193.252924,38.8961988 192.872807,38.6622807 C192.361111,38.3552632 192.105263,37.755848 192.105263,36.8640351 L192.105263,36.8640351 L192.105263,22.0833333 C192.105263,21.3084795 192.565789,20.9210526 193.486842,20.9210526 C195.358187,20.9210526 196.973684,22.7412281 198.333333,26.3815789 L198.333333,26.3815789 L199.276316,26.3815789 L199.057018,19.3421053 L179.561404,19.3421053 L179.342105,26.3815789 L180.285088,26.3815789 C181.644737,22.7412281 183.260234,20.9210526 185.131579,20.9210526 C186.038012,20.9210526 186.491228,21.3084795 186.491228,22.0833333 L186.491228,22.0833333 L186.491228,36.8640351 C186.491228,37.7412281 186.24269,38.3406433 185.745614,38.6622807 C185.380117,38.8961988 184.714912,39.0131579 183.75,39.0131579 L183.75,39.0131579 L183.75,40 L194.890351,40 Z" id="РемПласт" fill-rule="nonzero"></path>
            <path d="M2.44,69.4736842 L2.44,66.0470175 L3.46666667,66.0470175 C4.11555556,66.0470175 4.69777778,65.9936842 5.21333333,65.8870175 C5.72888889,65.7803509 6.16666667,65.6092398 6.52666667,65.3736842 C6.88666667,65.1381287 7.16222222,64.831462 7.35333333,64.4536842 C7.54444444,64.0759064 7.64,63.6203509 7.64,63.0870175 C7.64,62.1092398 7.29111111,61.3736842 6.59333333,60.8803509 C5.89555556,60.3870175 4.89777778,60.1403509 3.6,60.1403509 C3.22666667,60.1403509 2.81555556,60.1559064 2.36666667,60.1870175 C1.91777778,60.2181287 1.51111111,60.2781287 1.14666667,60.3670175 L1.14666667,60.3670175 L1.14666667,69.4736842 L2.44,69.4736842 Z M3.41333333,64.9403509 L2.44,64.9403509 L2.44,61.3136842 C2.73333333,61.2870175 3.15555556,61.2736842 3.70666667,61.2736842 C4.05333333,61.2736842 4.38222222,61.3003509 4.69333333,61.3536842 C5.00444444,61.4070175 5.27777778,61.5025731 5.51333333,61.6403509 C5.74888889,61.7781287 5.93555556,61.9625731 6.07333333,62.1936842 C6.21111111,62.4247953 6.28,62.7181287 6.28,63.0736842 C6.28,63.4470175 6.21333333,63.7536842 6.08,63.9936842 C5.94666667,64.2336842 5.75777778,64.4225731 5.51333333,64.5603509 C5.26888889,64.6981287 4.96888889,64.7959064 4.61333333,64.8536842 C4.25777778,64.911462 3.85777778,64.9403509 3.41333333,64.9403509 L3.41333333,64.9403509 Z M15.2266667,69.4736842 L15.2266667,68.3670175 L10.5466667,68.3670175 L10.5466667,65.1670175 L14.4133333,65.1670175 L14.4133333,64.0870175 L10.5466667,64.0870175 L10.5466667,61.3403509 L14.8933333,61.3403509 L14.8933333,60.2336842 L9.25333333,60.2336842 L9.25333333,69.4736842 L15.2266667,69.4736842 Z M17.88,69.4736842 C17.9244444,68.2292398 17.9777778,66.9959064 18.04,65.7736842 C18.1022222,64.551462 18.1822222,63.4159064 18.28,62.3670175 C18.3688889,62.5181287 18.4866667,62.7359064 18.6333333,63.0203509 C18.78,63.3047953 18.9377778,63.6270175 19.1066667,63.9870175 C19.2755556,64.3470175 19.4555556,64.7292398 19.6466667,65.1336842 C19.8377778,65.5381287 20.0177778,65.931462 20.1866667,66.3136842 C20.3555556,66.6959064 20.5133333,67.051462 20.66,67.3803509 C20.8066667,67.7092398 20.9244444,67.9803509 21.0133333,68.1936842 L21.0133333,68.1936842 L22.0533333,68.1936842 C22.1422222,67.9803509 22.26,67.7092398 22.4066667,67.3803509 C22.5533333,67.051462 22.7111111,66.6959064 22.88,66.3136842 C23.0488889,65.931462 23.2288889,65.5381287 23.42,65.1336842 C23.6111111,64.7292398 23.7911111,64.3470175 23.96,63.9870175 C24.1288889,63.6270175 24.2866667,63.3047953 24.4333333,63.0203509 C24.58,62.7359064 24.6977778,62.5181287 24.7866667,62.3670175 C24.8844444,63.4159064 24.9644444,64.551462 25.0266667,65.7736842 C25.0888889,66.9959064 25.1422222,68.2292398 25.1866667,69.4736842 L25.1866667,69.4736842 L26.4533333,69.4736842 C26.3022222,66.291462 26.0755556,63.211462 25.7733333,60.2336842 L25.7733333,60.2336842 L24.64,60.2336842 C24.4,60.6247953 24.1422222,61.0870175 23.8666667,61.6203509 C23.5911111,62.1536842 23.3155556,62.711462 23.04,63.2936842 C22.7644444,63.8759064 22.4977778,64.4581287 22.24,65.0403509 C21.9822222,65.6225731 21.7466667,66.1536842 21.5333333,66.6336842 C21.32,66.1536842 21.0844444,65.6225731 20.8266667,65.0403509 C20.5688889,64.4581287 20.3022222,63.8759064 20.0266667,63.2936842 C19.7511111,62.711462 19.4755556,62.1536842 19.2,61.6203509 C18.9244444,61.0870175 18.6666667,60.6247953 18.4266667,60.2336842 L18.4266667,60.2336842 L17.2933333,60.2336842 C17.2133333,60.9003509 17.14,61.6070175 17.0733333,62.3536842 C17.0066667,63.1003509 16.9444444,63.8670175 16.8866667,64.6536842 C16.8288889,65.4403509 16.7777778,66.2403509 16.7333333,67.0536842 C16.6888889,67.8670175 16.6488889,68.6736842 16.6133333,69.4736842 L16.6133333,69.4736842 L17.88,69.4736842 Z M32.5466667,69.6736842 C33.1422222,69.6736842 33.7044444,69.571462 34.2333333,69.3670175 C34.7622222,69.1625731 35.2266667,68.8581287 35.6266667,68.4536842 C36.0266667,68.0492398 36.3444444,67.5447953 36.58,66.9403509 C36.8155556,66.3359064 36.9333333,65.6381287 36.9333333,64.8470175 C36.9333333,64.0559064 36.8155556,63.3581287 36.58,62.7536842 C36.3444444,62.1492398 36.0266667,61.6447953 35.6266667,61.2403509 C35.2266667,60.8359064 34.7622222,60.531462 34.2333333,60.3270175 C33.7044444,60.1225731 33.1422222,60.0203509 32.5466667,60.0203509 C31.9422222,60.0203509 31.3711111,60.1225731 30.8333333,60.3270175 C30.2955556,60.531462 29.8244444,60.8359064 29.42,61.2403509 C29.0155556,61.6447953 28.6955556,62.1492398 28.46,62.7536842 C28.2244444,63.3581287 28.1066667,64.0559064 28.1066667,64.8470175 C28.1066667,65.6381287 28.2244444,66.3359064 28.46,66.9403509 C28.6955556,67.5447953 29.0155556,68.0492398 29.42,68.4536842 C29.8244444,68.8581287 30.2955556,69.1625731 30.8333333,69.3670175 C31.3711111,69.571462 31.9422222,69.6736842 32.5466667,69.6736842 Z M32.52,68.5403509 C32.0488889,68.5403509 31.6244444,68.4536842 31.2466667,68.2803509 C30.8688889,68.1070175 30.5488889,67.8603509 30.2866667,67.5403509 C30.0244444,67.2203509 29.8222222,66.831462 29.68,66.3736842 C29.5377778,65.9159064 29.4666667,65.4070175 29.4666667,64.8470175 C29.4666667,64.2870175 29.5377778,63.7781287 29.68,63.3203509 C29.8222222,62.8625731 30.0244444,62.4736842 30.2866667,62.1536842 C30.5488889,61.8336842 30.8688889,61.5870175 31.2466667,61.4136842 C31.6244444,61.2403509 32.0488889,61.1536842 32.52,61.1536842 C32.9911111,61.1536842 33.4133333,61.2403509 33.7866667,61.4136842 C34.16,61.5870175 34.4777778,61.8336842 34.74,62.1536842 C35.0022222,62.4736842 35.2044444,62.8625731 35.3466667,63.3203509 C35.4888889,63.7781287 35.56,64.2870175 35.56,64.8470175 C35.56,65.4070175 35.4888889,65.9159064 35.3466667,66.3736842 C35.2044444,66.831462 35.0022222,67.2203509 34.74,67.5403509 C34.4777778,67.8603509 34.16,68.1070175 33.7866667,68.2803509 C33.4133333,68.4536842 32.9911111,68.5403509 32.52,68.5403509 Z M40.1466667,69.4736842 L40.1466667,65.2070175 L44.6666667,65.2070175 L44.6666667,69.4736842 L45.96,69.4736842 L45.96,60.2336842 L44.6666667,60.2336842 L44.6666667,64.0870175 L40.1466667,64.0870175 L40.1466667,60.2336842 L38.8533333,60.2336842 L38.8533333,69.4736842 L40.1466667,69.4736842 Z M51.52,69.4736842 L51.52,61.3536842 L54.4266667,61.3536842 L54.4266667,60.2336842 L47.32,60.2336842 L47.32,61.3536842 L50.2266667,61.3536842 L50.2266667,69.4736842 L51.52,69.4736842 Z M60.16,69.4736842 L60.16,61.3403509 L64.6,61.3403509 L64.6,69.4736842 L65.8933333,69.4736842 L65.8933333,60.2336842 L58.8666667,60.2336842 L58.8666667,69.4736842 L60.16,69.4736842 Z M67.36,69.6070175 C67.8577778,69.5892398 68.2911111,69.5003509 68.66,69.3403509 C69.0288889,69.1803509 69.3488889,68.9692398 69.62,68.7070175 C69.8911111,68.4447953 70.1177778,68.1381287 70.3,67.7870175 C70.4822222,67.4359064 70.6355556,67.0603509 70.76,66.6603509 C70.8844444,66.2603509 70.9822222,65.851462 71.0533333,65.4336842 C71.1244444,65.0159064 71.1777778,64.5870175 71.2133333,64.1470175 C71.2488889,63.7070175 71.2755556,63.2536842 71.2933333,62.7870175 C71.3111111,62.3203509 71.3288889,61.8381287 71.3466667,61.3403509 L71.3466667,61.3403509 L74.0266667,61.3403509 L74.0266667,69.4736842 L75.32,69.4736842 L75.32,60.2336842 L70.08,60.2336842 C70.08,61.5136842 70.0466667,62.6803509 69.98,63.7336842 C69.9133333,64.7870175 69.7555556,65.6870175 69.5066667,66.4336842 C69.2844444,67.091462 69.0022222,67.5803509 68.66,67.9003509 C68.3177778,68.2203509 67.8355556,68.4159064 67.2133333,68.4870175 L67.2133333,68.4870175 L67.36,69.6070175 Z M77.92,69.4736842 L78.76,67.1136842 L82.9466667,67.1136842 C83.0888889,67.5136842 83.2266667,67.9070175 83.36,68.2936842 C83.4933333,68.6803509 83.6355556,69.0736842 83.7866667,69.4736842 L83.7866667,69.4736842 L85.2,69.4736842 C84.8444444,68.4959064 84.5111111,67.591462 84.2,66.7603509 C83.8888889,65.9292398 83.5844444,65.1403509 83.2866667,64.3936842 C82.9888889,63.6470175 82.6933333,62.9336842 82.4,62.2536842 C82.1066667,61.5736842 81.8,60.9003509 81.48,60.2336842 L81.48,60.2336842 L80.2933333,60.2336842 C79.9733333,60.9003509 79.6666667,61.5736842 79.3733333,62.2536842 C79.08,62.9336842 78.7844444,63.6470175 78.4866667,64.3936842 C78.1888889,65.1403509 77.8844444,65.9292398 77.5733333,66.7603509 C77.2622222,67.591462 76.9288889,68.4959064 76.5733333,69.4736842 L76.5733333,69.4736842 L77.92,69.4736842 Z M82.5733333,66.0470175 L79.1333333,66.0470175 C79.4088889,65.2736842 79.6866667,64.5247953 79.9666667,63.8003509 C80.2466667,63.0759064 80.5422222,62.3803509 80.8533333,61.7136842 C81.1555556,62.3803509 81.4466667,63.0759064 81.7266667,63.8003509 C82.0066667,64.5247953 82.2888889,65.2736842 82.5733333,66.0470175 L82.5733333,66.0470175 Z M90.4266667,69.6736842 C90.8,69.6736842 91.1466667,69.651462 91.4666667,69.6070175 C91.7866667,69.5625731 92.0666667,69.5092398 92.3066667,69.4470175 C92.5466667,69.3847953 92.7466667,69.3203509 92.9066667,69.2536842 C93.0666667,69.1870175 93.1777778,69.131462 93.24,69.0870175 L93.24,69.0870175 L92.9066667,68.0203509 C92.7111111,68.1181287 92.4177778,68.2292398 92.0266667,68.3536842 C91.6355556,68.4781287 91.1422222,68.5403509 90.5466667,68.5403509 C90.0311111,68.5403509 89.58,68.451462 89.1933333,68.2736842 C88.8066667,68.0959064 88.4844444,67.8447953 88.2266667,67.5203509 C87.9688889,67.1959064 87.7755556,66.8070175 87.6466667,66.3536842 C87.5177778,65.9003509 87.4533333,65.3981287 87.4533333,64.8470175 C87.4533333,64.2781287 87.5266667,63.7647953 87.6733333,63.3070175 C87.82,62.8492398 88.0311111,62.4603509 88.3066667,62.1403509 C88.5822222,61.8203509 88.9155556,61.5759064 89.3066667,61.4070175 C89.6977778,61.2381287 90.1377778,61.1536842 90.6266667,61.1536842 C90.8577778,61.1536842 91.0866667,61.1736842 91.3133333,61.2136842 C91.54,61.2536842 91.7488889,61.3047953 91.94,61.3670175 C92.1311111,61.4292398 92.3022222,61.491462 92.4533333,61.5536842 C92.6044444,61.6159064 92.72,61.6736842 92.8,61.7270175 L92.8,61.7270175 L93.1733333,60.6603509 C93.12,60.6247953 93.0222222,60.571462 92.88,60.5003509 C92.7377778,60.4292398 92.5533333,60.3581287 92.3266667,60.2870175 C92.1,60.2159064 91.8333333,60.1536842 91.5266667,60.1003509 C91.22,60.0470175 90.8755556,60.0203509 90.4933333,60.0203509 C89.8888889,60.0203509 89.32,60.1270175 88.7866667,60.3403509 C88.2533333,60.5536842 87.7866667,60.8647953 87.3866667,61.2736842 C86.9866667,61.6825731 86.6688889,62.1870175 86.4333333,62.7870175 C86.1977778,63.3870175 86.08,64.0736842 86.08,64.8470175 C86.08,65.6203509 86.1844444,66.3070175 86.3933333,66.9070175 C86.6022222,67.5070175 86.8977778,68.011462 87.28,68.4203509 C87.6622222,68.8292398 88.12,69.1403509 88.6533333,69.3536842 C89.1866667,69.5670175 89.7777778,69.6736842 90.4266667,69.6736842 Z M97.9866667,69.4736842 L97.9866667,61.3536842 L100.893333,61.3536842 L100.893333,60.2336842 L93.7866667,60.2336842 L93.7866667,61.3536842 L96.6933333,61.3536842 L96.6933333,69.4736842 L97.9866667,69.4736842 Z M103.333333,69.4736842 C103.528889,69.1447953 103.753333,68.7759064 104.006667,68.3670175 C104.26,67.9581287 104.533333,67.5336842 104.826667,67.0936842 C105.12,66.6536842 105.424444,66.2070175 105.74,65.7536842 C106.055556,65.3003509 106.368889,64.8625731 106.68,64.4403509 C106.991111,64.0181287 107.293333,63.6203509 107.586667,63.2470175 C107.88,62.8736842 108.151111,62.5447953 108.4,62.2603509 L108.4,62.2603509 L108.4,69.4736842 L109.666667,69.4736842 L109.666667,60.2336842 L108.64,60.2336842 C108.222222,60.6781287 107.775556,61.1959064 107.3,61.7870175 C106.824444,62.3781287 106.353333,62.9870175 105.886667,63.6136842 C105.42,64.2403509 104.98,64.8559064 104.566667,65.4603509 C104.153333,66.0647953 103.804444,66.6025731 103.52,67.0736842 L103.52,67.0736842 L103.52,60.2336842 L102.253333,60.2336842 L102.253333,69.4736842 L103.333333,69.4736842 Z M113.253333,69.4736842 L113.253333,65.0870175 C113.626667,65.3181287 114.011111,65.5981287 114.406667,65.9270175 C114.802222,66.2559064 115.193333,66.6136842 115.58,67.0003509 C115.966667,67.3870175 116.333333,67.791462 116.68,68.2136842 C117.026667,68.6359064 117.333333,69.0559064 117.6,69.4736842 L117.6,69.4736842 L119.12,69.4736842 C118.88,69.0559064 118.58,68.6159064 118.22,68.1536842 C117.86,67.691462 117.475556,67.2381287 117.066667,66.7936842 C116.657778,66.3492398 116.24,65.931462 115.813333,65.5403509 C115.386667,65.1492398 114.982222,64.8203509 114.6,64.5536842 C114.928889,64.2336842 115.28,63.8870175 115.653333,63.5136842 C116.026667,63.1403509 116.402222,62.7603509 116.78,62.3736842 C117.157778,61.9870175 117.52,61.6092398 117.866667,61.2403509 C118.213333,60.871462 118.524444,60.5359064 118.8,60.2336842 L118.8,60.2336842 L117.24,60.2336842 C117.017778,60.491462 116.744444,60.791462 116.42,61.1336842 C116.095556,61.4759064 115.751111,61.8336842 115.386667,62.2070175 C115.022222,62.5803509 114.653333,62.951462 114.28,63.3203509 C113.906667,63.6892398 113.564444,64.0203509 113.253333,64.3136842 L113.253333,64.3136842 L113.253333,60.2336842 L111.96,60.2336842 L111.96,69.4736842 L113.253333,69.4736842 Z M124.413333,69.6736842 C125.008889,69.6736842 125.571111,69.571462 126.1,69.3670175 C126.628889,69.1625731 127.093333,68.8581287 127.493333,68.4536842 C127.893333,68.0492398 128.211111,67.5447953 128.446667,66.9403509 C128.682222,66.3359064 128.8,65.6381287 128.8,64.8470175 C128.8,64.0559064 128.682222,63.3581287 128.446667,62.7536842 C128.211111,62.1492398 127.893333,61.6447953 127.493333,61.2403509 C127.093333,60.8359064 126.628889,60.531462 126.1,60.3270175 C125.571111,60.1225731 125.008889,60.0203509 124.413333,60.0203509 C123.808889,60.0203509 123.237778,60.1225731 122.7,60.3270175 C122.162222,60.531462 121.691111,60.8359064 121.286667,61.2403509 C120.882222,61.6447953 120.562222,62.1492398 120.326667,62.7536842 C120.091111,63.3581287 119.973333,64.0559064 119.973333,64.8470175 C119.973333,65.6381287 120.091111,66.3359064 120.326667,66.9403509 C120.562222,67.5447953 120.882222,68.0492398 121.286667,68.4536842 C121.691111,68.8581287 122.162222,69.1625731 122.7,69.3670175 C123.237778,69.571462 123.808889,69.6736842 124.413333,69.6736842 Z M124.386667,68.5403509 C123.915556,68.5403509 123.491111,68.4536842 123.113333,68.2803509 C122.735556,68.1070175 122.415556,67.8603509 122.153333,67.5403509 C121.891111,67.2203509 121.688889,66.831462 121.546667,66.3736842 C121.404444,65.9159064 121.333333,65.4070175 121.333333,64.8470175 C121.333333,64.2870175 121.404444,63.7781287 121.546667,63.3203509 C121.688889,62.8625731 121.891111,62.4736842 122.153333,62.1536842 C122.415556,61.8336842 122.735556,61.5870175 123.113333,61.4136842 C123.491111,61.2403509 123.915556,61.1536842 124.386667,61.1536842 C124.857778,61.1536842 125.28,61.2403509 125.653333,61.4136842 C126.026667,61.5870175 126.344444,61.8336842 126.606667,62.1536842 C126.868889,62.4736842 127.071111,62.8625731 127.213333,63.3203509 C127.355556,63.7781287 127.426667,64.2870175 127.426667,64.8470175 C127.426667,65.4070175 127.355556,65.9159064 127.213333,66.3736842 C127.071111,66.831462 126.868889,67.2203509 126.606667,67.5403509 C126.344444,67.8603509 126.026667,68.1070175 125.653333,68.2803509 C125.28,68.4536842 124.857778,68.5403509 124.386667,68.5403509 Z M133.213333,69.5536842 C134.688889,69.5536842 135.766667,69.3203509 136.446667,68.8536842 C137.126667,68.3870175 137.466667,67.691462 137.466667,66.7670175 C137.466667,66.1359064 137.306667,65.6470175 136.986667,65.3003509 C136.666667,64.9536842 136.235556,64.7003509 135.693333,64.5403509 C136.093333,64.3803509 136.413333,64.1381287 136.653333,63.8136842 C136.893333,63.4892398 137.013333,63.0736842 137.013333,62.5670175 C137.013333,62.1136842 136.915556,61.731462 136.72,61.4203509 C136.524444,61.1092398 136.255556,60.8581287 135.913333,60.6670175 C135.571111,60.4759064 135.166667,60.3403509 134.7,60.2603509 C134.233333,60.1803509 133.733333,60.1403509 133.2,60.1403509 C133.013333,60.1403509 132.813333,60.1447953 132.6,60.1536842 C132.386667,60.1625731 132.171111,60.1759064 131.953333,60.1936842 C131.735556,60.211462 131.52,60.2336842 131.306667,60.2603509 C131.093333,60.2870175 130.897778,60.3225731 130.72,60.3670175 L130.72,60.3670175 L130.72,69.3270175 C130.897778,69.371462 131.093333,69.4070175 131.306667,69.4336842 C131.52,69.4603509 131.735556,69.4825731 131.953333,69.5003509 C132.171111,69.5181287 132.388889,69.531462 132.606667,69.5403509 C132.824444,69.5492398 133.026667,69.5536842 133.213333,69.5536842 Z M133.36,64.1270175 L132,64.1270175 L132,61.2736842 C132.151111,61.2559064 132.32,61.2425731 132.506667,61.2336842 C132.693333,61.2247953 132.951111,61.2203509 133.28,61.2203509 C133.608889,61.2203509 133.92,61.2470175 134.213333,61.3003509 C134.506667,61.3536842 134.762222,61.4359064 134.98,61.5470175 C135.197778,61.6581287 135.368889,61.8047953 135.493333,61.9870175 C135.617778,62.1692398 135.68,62.3936842 135.68,62.6603509 C135.68,62.9447953 135.62,63.1803509 135.5,63.3670175 C135.38,63.5536842 135.215556,63.7047953 135.006667,63.8203509 C134.797778,63.9359064 134.551111,64.0159064 134.266667,64.0603509 C133.982222,64.1047953 133.68,64.1270175 133.36,64.1270175 L133.36,64.1270175 Z M133.293333,68.4736842 C133.088889,68.4736842 132.908889,68.471462 132.753333,68.4670175 C132.597778,68.4625731 132.462222,68.4559064 132.346667,68.4470175 C132.213333,68.4381287 132.097778,68.4292398 132,68.4203509 L132,68.4203509 L132,65.1670175 L133.666667,65.1670175 C134.04,65.1670175 134.377778,65.1936842 134.68,65.2470175 C134.982222,65.3003509 135.242222,65.3892398 135.46,65.5136842 C135.677778,65.6381287 135.844444,65.8047953 135.96,66.0136842 C136.075556,66.2225731 136.133333,66.4781287 136.133333,66.7803509 C136.133333,67.1181287 136.055556,67.3981287 135.9,67.6203509 C135.744444,67.8425731 135.537778,68.0159064 135.28,68.1403509 C135.022222,68.2647953 134.722222,68.351462 134.38,68.4003509 C134.037778,68.4492398 133.675556,68.4736842 133.293333,68.4736842 Z M141.693333,69.5670175 C142.315556,69.5670175 142.875556,69.5047953 143.373333,69.3803509 C143.871111,69.2559064 144.293333,69.0692398 144.64,68.8203509 C144.986667,68.571462 145.253333,68.2603509 145.44,67.8870175 C145.626667,67.5136842 145.72,67.0781287 145.72,66.5803509 C145.72,64.5625731 144.351111,63.5536842 141.613333,63.5536842 C141.453333,63.5536842 141.282222,63.5559064 141.1,63.5603509 C140.917778,63.5647953 140.746667,63.5759064 140.586667,63.5936842 L140.586667,63.5936842 L140.586667,60.2336842 L139.293333,60.2336842 L139.293333,69.3403509 C139.666667,69.4292398 140.066667,69.4892398 140.493333,69.5203509 C140.92,69.551462 141.32,69.5670175 141.693333,69.5670175 Z M148.413333,69.4736842 L148.413333,60.2336842 L147.12,60.2336842 L147.12,69.4736842 L148.413333,69.4736842 Z M141.8,68.4336842 L141.266667,68.4336842 C141.115556,68.4336842 140.888889,68.4203509 140.586667,68.3936842 L140.586667,68.3936842 L140.586667,64.7003509 C140.746667,64.6825731 140.913333,64.6736842 141.086667,64.6736842 L141.086667,64.6736842 L141.573333,64.6736842 C141.982222,64.6736842 142.357778,64.7025731 142.7,64.7603509 C143.042222,64.8181287 143.337778,64.9181287 143.586667,65.0603509 C143.835556,65.2025731 144.026667,65.3981287 144.16,65.6470175 C144.293333,65.8959064 144.36,66.2070175 144.36,66.5803509 C144.36,66.9536842 144.288889,67.2581287 144.146667,67.4936842 C144.004444,67.7292398 143.815556,67.9181287 143.58,68.0603509 C143.344444,68.2025731 143.071111,68.3003509 142.76,68.3536842 C142.448889,68.4070175 142.128889,68.4336842 141.8,68.4336842 L141.8,68.4336842 Z M151.293333,69.4736842 C151.426667,69.2070175 151.588889,68.911462 151.78,68.5870175 C151.971111,68.2625731 152.175556,67.9247953 152.393333,67.5736842 C152.611111,67.2225731 152.84,66.871462 153.08,66.5203509 C153.32,66.1692398 153.551111,65.8381287 153.773333,65.5270175 C153.995556,65.8381287 154.226667,66.1692398 154.466667,66.5203509 C154.706667,66.871462 154.937778,67.2225731 155.16,67.5736842 C155.382222,67.9247953 155.586667,68.2625731 155.773333,68.5870175 C155.96,68.911462 156.12,69.2070175 156.253333,69.4736842 L156.253333,69.4736842 L157.706667,69.4736842 C157.297778,68.6825731 156.826667,67.8781287 156.293333,67.0603509 C155.76,66.2425731 155.191111,65.4025731 154.586667,64.5403509 L154.586667,64.5403509 L157.493333,60.2336842 L156.013333,60.2336842 L153.76,63.6736842 L151.48,60.2336842 L149.986667,60.2336842 L152.946667,64.5936842 C152.351111,65.4470175 151.788889,66.2781287 151.26,67.0870175 C150.731111,67.8959064 150.266667,68.691462 149.866667,69.4736842 L149.866667,69.4736842 L151.293333,69.4736842 Z M166.266667,69.6736842 C166.862222,69.6736842 167.424444,69.571462 167.953333,69.3670175 C168.482222,69.1625731 168.946667,68.8581287 169.346667,68.4536842 C169.746667,68.0492398 170.064444,67.5447953 170.3,66.9403509 C170.535556,66.3359064 170.653333,65.6381287 170.653333,64.8470175 C170.653333,64.0559064 170.535556,63.3581287 170.3,62.7536842 C170.064444,62.1492398 169.746667,61.6447953 169.346667,61.2403509 C168.946667,60.8359064 168.482222,60.531462 167.953333,60.3270175 C167.424444,60.1225731 166.862222,60.0203509 166.266667,60.0203509 C165.662222,60.0203509 165.091111,60.1225731 164.553333,60.3270175 C164.015556,60.531462 163.544444,60.8359064 163.14,61.2403509 C162.735556,61.6447953 162.415556,62.1492398 162.18,62.7536842 C161.944444,63.3581287 161.826667,64.0559064 161.826667,64.8470175 C161.826667,65.6381287 161.944444,66.3359064 162.18,66.9403509 C162.415556,67.5447953 162.735556,68.0492398 163.14,68.4536842 C163.544444,68.8581287 164.015556,69.1625731 164.553333,69.3670175 C165.091111,69.571462 165.662222,69.6736842 166.266667,69.6736842 Z M166.24,68.5403509 C165.768889,68.5403509 165.344444,68.4536842 164.966667,68.2803509 C164.588889,68.1070175 164.268889,67.8603509 164.006667,67.5403509 C163.744444,67.2203509 163.542222,66.831462 163.4,66.3736842 C163.257778,65.9159064 163.186667,65.4070175 163.186667,64.8470175 C163.186667,64.2870175 163.257778,63.7781287 163.4,63.3203509 C163.542222,62.8625731 163.744444,62.4736842 164.006667,62.1536842 C164.268889,61.8336842 164.588889,61.5870175 164.966667,61.4136842 C165.344444,61.2403509 165.768889,61.1536842 166.24,61.1536842 C166.711111,61.1536842 167.133333,61.2403509 167.506667,61.4136842 C167.88,61.5870175 168.197778,61.8336842 168.46,62.1536842 C168.722222,62.4736842 168.924444,62.8625731 169.066667,63.3203509 C169.208889,63.7781287 169.28,64.2870175 169.28,64.8470175 C169.28,65.4070175 169.208889,65.9159064 169.066667,66.3736842 C168.924444,66.831462 168.722222,67.2203509 168.46,67.5403509 C168.197778,67.8603509 167.88,68.1070175 167.506667,68.2803509 C167.133333,68.4536842 166.711111,68.5403509 166.24,68.5403509 Z M173.866667,69.4736842 L173.866667,65.0870175 C174.24,65.3181287 174.624444,65.5981287 175.02,65.9270175 C175.415556,66.2559064 175.806667,66.6136842 176.193333,67.0003509 C176.58,67.3870175 176.946667,67.791462 177.293333,68.2136842 C177.64,68.6359064 177.946667,69.0559064 178.213333,69.4736842 L178.213333,69.4736842 L179.733333,69.4736842 C179.493333,69.0559064 179.193333,68.6159064 178.833333,68.1536842 C178.473333,67.691462 178.088889,67.2381287 177.68,66.7936842 C177.271111,66.3492398 176.853333,65.931462 176.426667,65.5403509 C176,65.1492398 175.595556,64.8203509 175.213333,64.5536842 C175.542222,64.2336842 175.893333,63.8870175 176.266667,63.5136842 C176.64,63.1403509 177.015556,62.7603509 177.393333,62.3736842 C177.771111,61.9870175 178.133333,61.6092398 178.48,61.2403509 C178.826667,60.871462 179.137778,60.5359064 179.413333,60.2336842 L179.413333,60.2336842 L177.853333,60.2336842 C177.631111,60.491462 177.357778,60.791462 177.033333,61.1336842 C176.708889,61.4759064 176.364444,61.8336842 176,62.2070175 C175.635556,62.5803509 175.266667,62.951462 174.893333,63.3203509 C174.52,63.6892398 174.177778,64.0203509 173.866667,64.3136842 L173.866667,64.3136842 L173.866667,60.2336842 L172.573333,60.2336842 L172.573333,69.4736842 L173.866667,69.4736842 Z M185.026667,69.6736842 C185.622222,69.6736842 186.184444,69.571462 186.713333,69.3670175 C187.242222,69.1625731 187.706667,68.8581287 188.106667,68.4536842 C188.506667,68.0492398 188.824444,67.5447953 189.06,66.9403509 C189.295556,66.3359064 189.413333,65.6381287 189.413333,64.8470175 C189.413333,64.0559064 189.295556,63.3581287 189.06,62.7536842 C188.824444,62.1492398 188.506667,61.6447953 188.106667,61.2403509 C187.706667,60.8359064 187.242222,60.531462 186.713333,60.3270175 C186.184444,60.1225731 185.622222,60.0203509 185.026667,60.0203509 C184.422222,60.0203509 183.851111,60.1225731 183.313333,60.3270175 C182.775556,60.531462 182.304444,60.8359064 181.9,61.2403509 C181.495556,61.6447953 181.175556,62.1492398 180.94,62.7536842 C180.704444,63.3581287 180.586667,64.0559064 180.586667,64.8470175 C180.586667,65.6381287 180.704444,66.3359064 180.94,66.9403509 C181.175556,67.5447953 181.495556,68.0492398 181.9,68.4536842 C182.304444,68.8581287 182.775556,69.1625731 183.313333,69.3670175 C183.851111,69.571462 184.422222,69.6736842 185.026667,69.6736842 Z M185,68.5403509 C184.528889,68.5403509 184.104444,68.4536842 183.726667,68.2803509 C183.348889,68.1070175 183.028889,67.8603509 182.766667,67.5403509 C182.504444,67.2203509 182.302222,66.831462 182.16,66.3736842 C182.017778,65.9159064 181.946667,65.4070175 181.946667,64.8470175 C181.946667,64.2870175 182.017778,63.7781287 182.16,63.3203509 C182.302222,62.8625731 182.504444,62.4736842 182.766667,62.1536842 C183.028889,61.8336842 183.348889,61.5870175 183.726667,61.4136842 C184.104444,61.2403509 184.528889,61.1536842 185,61.1536842 C185.471111,61.1536842 185.893333,61.2403509 186.266667,61.4136842 C186.64,61.5870175 186.957778,61.8336842 187.22,62.1536842 C187.482222,62.4736842 187.684444,62.8625731 187.826667,63.3203509 C187.968889,63.7781287 188.04,64.2870175 188.04,64.8470175 C188.04,65.4070175 187.968889,65.9159064 187.826667,66.3736842 C187.684444,66.831462 187.482222,67.2203509 187.22,67.5403509 C186.957778,67.8603509 186.64,68.1070175 186.266667,68.2803509 C185.893333,68.4536842 185.471111,68.5403509 185,68.5403509 Z M192.626667,69.4736842 L192.626667,65.2070175 L197.146667,65.2070175 L197.146667,69.4736842 L198.44,69.4736842 L198.44,60.2336842 L197.146667,60.2336842 L197.146667,64.0870175 L192.626667,64.0870175 L192.626667,60.2336842 L191.333333,60.2336842 L191.333333,69.4736842 L192.626667,69.4736842 Z" id="РЕМОНТПЛАСТИКОВЫХОКОН" fill-rule="nonzero"></path>
            <rect id="Rectangle" x="0.701754386" y="47.0175439" width="199.298246" height="2.80701754"></rect>
            <rect id="Rectangle-Copy-49" x="0.701754386" y="0" width="199.298246" height="2.80701754"></rect>
        </g>
    </g>
</svg>