<?xml version="1.0" encoding="UTF-8"?>
<svg width="200px" height="53px" viewBox="0 0 200 53" version="1.1" xmlns="http://www.w3.org/2000/svg" xmlns:xlink="http://www.w3.org/1999/xlink">
    <title>Artboard</title>
    <defs>
        <polygon id="path-1" points="0 0.87761194 49.10375 0.87761194 49.10375 50.1488358 0 50.1488358"></polygon>
    </defs>
    <g id="Artboard" stroke="none" stroke-width="1" fill="none" fill-rule="evenodd">
        <g id="Group-Copy" transform="translate(0.000000, -0.000000)">
            <path d="M69.51625,16.6207164 L71.79125,16.6207164 C72.7725,16.6207164 73.5516667,16.3448955 74.1308333,15.7932537 C74.7079167,15.2395224 74.9975,14.4768358 74.9975,13.505194 C74.9975,11.8690746 74.0954167,11.0499701 72.2870833,11.0499701 L69.51625,11.0499701 L69.51625,16.6207164 Z M81.61,13.4696716 C81.61,16.1798209 80.8141667,18.2714627 79.2225,19.744597 C77.62875,21.2219104 75.3683333,21.9595224 72.435,21.9595224 L69.51625,21.9595224 L69.51625,29.9980299 L62.9870833,29.9980299 L62.9870833,5.76340299 L72.435,5.76340299 C75.4870833,5.76340299 77.7808333,6.4320597 79.3120833,7.76728358 C80.8433333,9.10459701 81.61,11.0060896 81.61,13.4696716 L81.61,13.4696716 Z" id="Fill-1" fill="#1B1B19"></path>
            <path d="M87.968125,30.3302687 C86.424375,30.3302687 85.0160417,30.165194 83.736875,29.8329552 L83.736875,24.6278806 C84.7722917,25.0353433 86.0847917,25.2401194 87.6702083,25.2401194 C88.355625,25.2401194 88.930625,25.083403 89.399375,24.7678806 C89.868125,24.4523582 90.249375,23.8986269 90.5472917,23.1025075 L82.6639583,5.76131343 L89.7035417,5.76131343 L92.6785417,13.1562388 C92.7889583,13.4425075 92.924375,13.7872836 93.0847917,14.1842985 C93.243125,14.5813134 93.4014583,14.9929552 93.555625,15.4192239 C93.7097917,15.843403 93.8535417,16.2675821 93.9847917,16.6854925 C94.118125,17.1075821 94.2202083,17.4711642 94.299375,17.7804179 L94.530625,17.7804179 C94.905625,16.2780299 95.461875,14.5207164 96.199375,12.5084776 L98.661875,5.76131343 L105.703542,5.76131343 L98.3660417,22.7723582 C97.449375,24.8911642 96.5535417,26.4541493 95.6702083,27.4550448 C94.7889583,28.4559403 93.7347917,29.1831045 92.505625,29.642806 C91.2764583,30.1025075 89.7639583,30.3302687 87.968125,30.3302687" id="Fill-3" fill="#1B1B19"></path>
            <path d="M117.21125,10.7856418 C115.657083,10.7856418 114.444583,11.4250448 113.57375,12.7017612 C112.705,13.9763881 112.2675,15.7378806 112.2675,17.9799701 C112.2675,22.6438507 114.038333,24.975791 117.575833,24.975791 C118.6425,24.975791 119.68,24.8274328 120.682083,24.5286269 C121.684167,24.2298209 122.6925,23.8704179 123.707083,23.4504179 L123.707083,28.9877313 C121.690417,29.8841493 119.409167,30.3313134 116.863333,30.3313134 C113.2175,30.3313134 110.419583,29.2698209 108.475833,27.1489254 C106.532083,25.0259403 105.559167,21.9584776 105.559167,17.9465373 C105.559167,15.4390746 106.03,13.2325075 106.971667,11.3331045 C107.915417,9.43161194 109.269583,7.96892537 111.038333,6.94713433 C112.807083,5.92534328 114.88625,5.41340299 117.277917,5.41340299 C119.888333,5.41340299 122.384167,5.98385075 124.763333,7.12056716 L122.765417,12.2775821 C121.871667,11.8575821 120.98,11.5044478 120.08625,11.2160896 C119.194583,10.9298209 118.23625,10.7856418 117.21125,10.7856418" id="Fill-5" fill="#1B1B19"></path>
            <polygon id="Fill-7" fill="#1B1B19" points="150.997292 29.9681493 143.443125 29.9869552 138.713958 22.4227761 134.070208 30.0120299 126.682708 30.0287463 134.668125 17.6084478 127.101458 5.79202985 134.341042 5.77322388 138.724375 13.2559104 142.903542 5.75232836 150.357708 5.73143284 142.734792 18.1036716"></polygon>
            <path d="M154.116042,5.76173134 L159.934792,5.76173134 L159.934792,16.1739701 C159.934792,17.2793433 159.845208,19.488 159.670208,22.8041194 L159.801458,22.8041194 L169.438958,5.76173134 L177.505625,5.76173134 L177.505625,30.0005373 L171.720208,30.0005373 L171.720208,19.8536716 C171.720208,18.3178507 171.818125,16.0193433 172.016042,12.9560597 L171.884792,12.9560597 L162.166042,30.0005373 L154.116042,30.0005373 L154.116042,5.76173134 Z" id="Fill-9" fill="#1B1B19"></path>
            <polygon id="Fill-11" fill="#1B1B19" points="193.435 29.9986567 186.905833 29.9986567 186.905833 11.1153731 181.005833 11.1153731 181.005833 5.7619403 199.318333 5.7619403 199.318333 11.1153731 193.435 11.1153731"></polygon>
            <g id="Group-15" transform="translate(0.000000, 1.211940)">
                <mask id="mask-2" fill="white">
                    <use xlink:href="#path-1"></use>
                </mask>
                <g id="Clip-14"></g>
            </g>
            <path d="M25.5210417,10.4061791 C28.3960417,9.38229851 31.479375,6.18528358 29.3335417,2.57035821 C32.666875,3.2181194 35.7502083,4.55543284 38.4585417,6.41513433 C39.6460417,11.0330448 36.5627083,17.2599104 30.3960417,19.3076716 C25.4377083,20.9584179 9.354375,19.7255821 3.31270833,39.0957313 C1.20854167,35.4599104 0.000208333333,31.2390149 0.000208333333,26.7255821 C0.000208333333,13.8330448 9.87520833,3.23901493 22.479375,2.19423881 C22.5835417,2.94647761 22.4377083,3.8658806 21.5002083,4.242 C20.3752083,4.65991045 11.104375,6.6658806 11.104375,16.4658806 C15.9377083,12.0569254 20.7085417,12.161403 25.5210417,10.4061791" id="Fill-16" fill="#E54D24"></path>
            <path d="M23.5752083,43.0399701 C20.7002083,44.0638507 17.616875,47.2608657 19.7627083,50.875791 C16.429375,50.2280299 13.3460417,48.8907164 10.6377083,47.0310149 C9.45020833,42.4131045 12.5335417,36.1862388 18.7002083,34.1384776 C23.6585417,32.4877313 39.741875,33.7205672 45.7835417,14.3504179 C47.8877083,17.9862388 49.0960417,22.2071343 49.0960417,26.7205672 C49.0960417,39.6131045 39.2210417,50.2071343 26.616875,51.2519104 C26.5127083,50.4996716 26.6585417,49.5802687 27.5960417,49.2041493 C28.7210417,48.7862388 37.991875,46.7802687 37.991875,36.9802687 C33.1585417,41.3892239 28.3877083,41.2847463 23.5752083,43.0399701" id="Fill-18" fill="#E54D24"></path>
            <path d="M64.864375,43.2635522 C64.864375,43.8068358 64.9164583,44.3041493 65.020625,44.7513134 C65.1247917,45.2026567 65.2810417,45.5892239 65.489375,45.9131045 C65.6977083,46.2348955 65.9664583,46.4856418 66.2935417,46.6632537 C66.6227083,46.8408657 67.0102083,46.9307164 67.458125,46.9307164 C68.2810417,46.9307164 68.920625,46.6486269 69.3789583,46.0844478 C69.8372917,45.5202687 70.0685417,44.5799701 70.0685417,43.2635522 C70.0685417,42.7411642 70.020625,42.2563881 69.926875,41.8071343 C69.833125,41.355791 69.6789583,40.9671343 69.464375,40.6390746 C69.251875,40.3089254 68.9810417,40.054 68.6539583,39.8701194 C68.3247917,39.6883284 67.926875,39.5963881 67.458125,39.5963881 C66.645625,39.5963881 66.0102083,39.8889254 65.551875,40.474 C65.0935417,41.0590746 64.864375,41.9889254 64.864375,43.2635522 M62.4102083,43.2635522 C62.4102083,42.3650448 62.5247917,41.5605672 62.7539583,40.8501194 C62.983125,40.1396716 63.314375,39.5420597 63.7477083,39.055194 C64.1789583,38.5704179 64.708125,38.1984776 65.333125,37.9435522 C65.958125,37.6865373 66.6664583,37.5590746 67.458125,37.5590746 C68.301875,37.5590746 69.0372917,37.6969851 69.6685417,37.9748955 C70.2997917,38.2507164 70.8247917,38.6414627 71.245625,39.1408657 C71.6685417,39.6444478 71.9852083,40.2441493 72.1997917,40.9441493 C72.414375,41.6441493 72.520625,42.4172836 72.520625,43.2635522 C72.520625,44.1620597 72.4039583,44.9665373 72.1685417,45.6769851 C71.9352083,46.3874328 71.5977083,46.9850448 71.1602083,47.4719104 C70.7247917,47.9566866 70.1935417,48.3286269 69.5664583,48.5835522 C68.9435417,48.8405672 68.239375,48.9680299 67.458125,48.9680299 C66.614375,48.9680299 65.876875,48.8301194 65.2477083,48.552209 C64.6164583,48.2763881 64.0914583,47.8856418 63.6685417,47.3862388 C63.2477083,46.8826567 62.9310417,46.2829552 62.7247917,45.5829552 C62.5164583,44.8829552 62.4102083,44.1098209 62.4102083,43.2635522" id="Fill-20" fill="#000000"></path>
            <polygon id="Fill-22" fill="#000000" points="87.5827083 39.816 84.1139583 39.816 84.1139583 48.7488358 81.8014583 48.7488358 81.8014583 39.816 78.3327083 39.816 78.3327083 37.7786866 87.5827083 37.7786866"></polygon>
            <path d="M95.8489583,43.2635522 C95.8489583,43.8068358 95.9010417,44.3041493 96.0052083,44.7513134 C96.109375,45.2026567 96.265625,45.5892239 96.4739583,45.9131045 C96.6822917,46.2348955 96.9510417,46.4856418 97.278125,46.6632537 C97.6072917,46.8408657 97.9947917,46.9307164 98.4427083,46.9307164 C99.265625,46.9307164 99.9052083,46.6486269 100.363542,46.0844478 C100.821875,45.5202687 101.053125,44.5799701 101.053125,43.2635522 C101.053125,42.7411642 101.005208,42.2563881 100.911458,41.8071343 C100.817708,41.355791 100.663542,40.9671343 100.448958,40.6390746 C100.236458,40.3089254 99.965625,40.054 99.6385417,39.8701194 C99.309375,39.6883284 98.9114583,39.5963881 98.4427083,39.5963881 C97.6302083,39.5963881 96.9947917,39.8889254 96.5364583,40.474 C96.078125,41.0590746 95.8489583,41.9889254 95.8489583,43.2635522 M93.3947917,43.2635522 C93.3947917,42.3650448 93.509375,41.5605672 93.7385417,40.8501194 C93.9677083,40.1396716 94.2989583,39.5420597 94.7322917,39.055194 C95.1635417,38.5704179 95.6927083,38.1984776 96.3177083,37.9435522 C96.9427083,37.6865373 97.6510417,37.5590746 98.4427083,37.5590746 C99.2864583,37.5590746 100.021875,37.6969851 100.653125,37.9748955 C101.284375,38.2507164 101.809375,38.6414627 102.230208,39.1408657 C102.653125,39.6444478 102.969792,40.2441493 103.184375,40.9441493 C103.398958,41.6441493 103.505208,42.4172836 103.505208,43.2635522 C103.505208,44.1620597 103.388542,44.9665373 103.153125,45.6769851 C102.919792,46.3874328 102.582292,46.9850448 102.144792,47.4719104 C101.709375,47.9566866 101.178125,48.3286269 100.551042,48.5835522 C99.928125,48.8405672 99.2239583,48.9680299 98.4427083,48.9680299 C97.5989583,48.9680299 96.8614583,48.8301194 96.2322917,48.552209 C95.6010417,48.2763881 95.0760417,47.8856418 94.653125,47.3862388 C94.2322917,46.8826567 93.915625,46.2829552 93.709375,45.5829552 C93.5010417,44.8829552 93.3947917,44.1098209 93.3947917,43.2635522" id="Fill-24" fill="#000000"></path>
            <polygon id="Fill-26" fill="#000000" points="117.316875 39.816 113.129375 39.816 113.129375 48.7488358 110.816875 48.7488358 110.816875 37.7786866 119.629375 37.7786866 119.629375 48.7488358 117.316875 48.7488358"></polygon>
            <path d="M133.55125,39.816 L131.034583,39.816 C130.9825,40.8085373 130.928333,41.7049552 130.87,42.5031642 C130.81375,43.3013731 130.734583,44.0222687 130.636667,44.6574925 C130.53875,45.2968955 130.405417,45.8631642 130.23875,46.3583881 C130.072083,46.8557015 129.86375,47.2924179 129.61375,47.6664478 C129.447083,47.9088358 129.261667,48.1052537 129.059583,48.2619701 C128.855417,48.4186866 128.645,48.5419701 128.42625,48.6318209 C128.2075,48.7195821 127.995,48.7822687 127.784583,48.8198806 C127.57625,48.855403 127.384583,48.874209 127.2075,48.874209 C126.936667,48.874209 126.72625,48.8533134 126.574167,48.8115224 C126.424167,48.7697313 126.259583,48.7070448 126.0825,48.6234627 L126.3325,46.6801791 C126.447083,46.7219701 126.5825,46.7428657 126.73875,46.7428657 C126.915833,46.7428657 127.092917,46.7010746 127.27,46.6174925 C127.447083,46.5339104 127.603333,46.3980896 127.73875,46.2100299 C127.905417,45.9801791 128.053333,45.6500299 128.184583,45.2216716 C128.31375,44.7933134 128.424167,44.2374925 128.511667,43.554209 C128.60125,42.8688358 128.674167,42.0518209 128.730417,41.1010746 C128.786667,40.1503284 128.82625,39.0428657 128.847083,37.7786866 L135.86375,37.7786866 L135.86375,48.7488358 L133.55125,48.7488358 L133.55125,39.816 Z" id="Fill-28" fill="#000000"></path>
            <polygon id="Fill-30" fill="#000000" points="143.56625 37.7784776 150.614167 37.7784776 150.614167 39.815791 145.87875 39.815791 145.87875 42.1978806 150.176667 42.1978806 150.176667 44.235194 145.87875 44.235194 145.87875 46.7113134 150.69125 46.7113134 150.69125 48.7486269 143.56625 48.7486269"></polygon>
            <polygon id="Fill-32" fill="#000000" points="164.769792 44.2195224 160.394792 44.2195224 160.394792 48.7475821 158.082292 48.7475821 158.082292 37.7774328 160.394792 37.7774328 160.394792 42.182209 164.769792 42.182209 164.769792 37.7774328 167.082292 37.7774328 167.082292 48.7475821 164.769792 48.7475821"></polygon>
            <polygon id="Fill-34" fill="#000000" points="181.738542 42.6993731 181.863542 41.3056418 181.784375 41.3056418 180.988542 42.714 176.503125 48.7486269 174.784375 48.7486269 174.784375 37.7784776 177.096875 37.7784776 177.096875 43.6877313 176.940625 45.1441493 177.034375 45.1441493 177.878125 43.6877313 182.315625 37.7784776 184.051042 37.7784776 184.051042 48.7486269 181.738542 48.7486269"></polygon>
            <polygon id="Fill-36" fill="#000000" points="191.753333 37.7784776 198.80125 37.7784776 198.80125 39.815791 194.065833 39.815791 194.065833 42.1978806 198.36375 42.1978806 198.36375 44.235194 194.065833 44.235194 194.065833 46.7113134 198.878333 46.7113134 198.878333 48.7486269 191.753333 48.7486269"></polygon>
        </g>
    </g>
</svg>