<?xml version="1.0" encoding="UTF-8"?>
<svg width="280px" height="44px" viewBox="0 0 280 44" version="1.1" xmlns="http://www.w3.org/2000/svg" xmlns:xlink="http://www.w3.org/1999/xlink">
    <title>Artboard</title>
    <g id="Artboard" stroke="none" stroke-width="1" fill="none" fill-rule="evenodd">
        <g id="Group-24-Copy">
            <polygon id="Fill-1" fill="#195BA9" points="36.1902857 12.3806667 36.1902857 31.4292381 33.3331429 31.4292381 40.0007619 43.8092381 46.6664762 31.4292381 42.8569524 31.4292381 42.8569524 12.3806667"></polygon>
            <polygon id="Fill-2" fill="#195BA9" points="22.8574286 12.3806667 22.8574286 31.4292381 19.9993333 31.4292381 26.6669524 43.8092381 33.333619 31.4292381 29.5231429 31.4292381 29.5231429 12.3806667"></polygon>
            <polygon id="Fill-3" fill="#195BA9" points="9.52371429 12.3806667 9.52371429 31.4292381 6.66657143 31.4292381 13.3341905 43.8092381 19.9999048 31.4292381 16.190381 31.4292381 16.190381 12.3806667"></polygon>
            <polygon id="Fill-4" fill="#EC2024" points="6.66685714 9.52380952e-05 0.00019047619 12.3810476 3.8087619 12.3810476 3.8087619 31.4286667 9.524 31.4286667 9.524 12.3810476 13.3335238 12.3810476"></polygon>
            <polygon id="Fill-5" fill="#EC2024" points="19.9997143 9.52380952e-05 13.334 12.3810476 16.1901905 12.3810476 16.1901905 31.4286667 22.8578095 31.4286667 22.8578095 12.3810476 26.666381 12.3810476"></polygon>
            <polygon id="Fill-6" fill="#EC2024" points="33.3334286 9.52380952e-05 26.6667619 12.3810476 29.5229524 12.3810476 29.5229524 31.4286667 36.1905714 31.4286667 36.1905714 12.3810476 40.0000952 12.3810476"></polygon>
            <polygon id="Fill-7" fill="#195BA9" points="84.2573333 3.72390476 84.2573333 10.7705714 74.3811429 10.7705714 74.3811429 36.4286667 66.1906667 29.342 66.1906667 10.7705714 56.3144762 10.7705714 56.3144762 3.72390476"></polygon>
            <path d="M87.2070476,18.5341905 C87.8118095,18.218 88.6222857,18.058 89.6165714,18.058 C91.0689524,18.058 92.1537143,18.4399048 92.8394286,19.1932381 C93.4699048,19.885619 93.9413333,20.8894286 94.2432381,22.1799048 L84.7070476,22.1799048 C84.755619,21.8837143 84.8299048,21.5627619 84.9299048,21.218 C85.080381,20.698 85.3460952,20.1951429 85.7213333,19.7227619 C86.0946667,19.2541905 86.5937143,18.8541905 87.2070476,18.5341905 M101.143238,20.5294286 C100.634667,18.9094286 99.868,17.4665714 98.8660952,16.2408571 C97.8584762,15.010381 96.5775238,14.0132381 95.060381,13.2760952 C93.540381,12.5418095 91.7708571,12.1684762 89.800381,12.1684762 C87.9270476,12.1684762 86.195619,12.5075238 84.6508571,13.1751429 C83.1060952,13.845619 81.7584762,14.7751429 80.6451429,15.9360952 C79.5289524,17.0989524 78.6565714,18.4960952 78.0527619,20.0875238 C77.4499048,21.6722857 77.1451429,23.405619 77.1451429,25.2399048 C77.1451429,27.1332381 77.4422857,28.8960952 78.028,30.4799048 C78.6165714,32.0713333 79.4660952,33.4608571 80.5508571,34.6094286 C81.6384762,35.7608571 82.9841905,36.6618095 84.5499048,37.285619 C86.1051429,37.9046667 87.8718095,38.218 89.800381,38.218 C92.5889524,38.218 95.0041905,37.5713333 96.9794286,36.2960952 C98.9718095,35.0122857 100.465143,32.8618095 101.418476,29.905619 L101.619429,29.2837143 L94.8413333,29.2837143 L94.7413333,29.6265714 C94.5584762,30.2532381 94.0318095,30.8732381 93.1737143,31.4684762 C92.3070476,32.070381 91.2508571,32.3751429 90.0318095,32.3751429 C88.3213333,32.3751429 87.0051429,31.9389524 86.1175238,31.0789524 C85.3041905,30.2922857 84.8213333,29.0170476 84.6794286,27.2846667 L101.793714,27.2846667 L101.85181,26.8751429 C101.886095,26.638 101.903238,26.4075238 101.903238,26.1846667 L101.903238,25.5618095 C101.903238,23.8322857 101.647048,22.1389524 101.143238,20.5294286" id="Fill-8" fill="#195BA9"></path>
            <polygon id="Fill-10" fill="#195BA9" points="104.779619 12.814381 104.779619 37.6191429 112.283429 37.6191429 112.283429 18.7039048 120.142476 18.7039048 120.142476 37.6191429 127.646286 37.6191429 127.646286 12.814381"></polygon>
            <path d="M134.952571,12.814381 L134.952571,17.9505714 C134.952571,20.9572381 134.86781,23.4267619 134.70019,25.2886667 C134.535429,27.1248571 134.30781,28.554381 134.024952,29.5372381 C133.696381,30.6762857 133.329714,31.149619 133.078286,31.3477143 C132.525905,31.7886667 131.857333,31.7991429 131.165905,31.7534286 C130.96019,31.7410476 130.784952,31.7105714 130.646857,31.6629524 L130.015429,31.4458095 L130.015429,37.3839048 L130.329714,37.4972381 C130.699238,37.6324762 131.18019,37.7458095 131.802095,37.8439048 C132.42019,37.9410476 132.86781,37.9877143 133.16781,37.9877143 C134.891619,37.9877143 136.32781,37.5848571 137.436381,36.7915238 C138.539238,36.0010476 139.417333,34.7639048 140.048762,33.114381 C140.66019,31.5153333 141.111619,29.4581905 141.391619,27.0000952 C141.656381,24.6762857 141.852571,21.8867619 141.976381,18.7039048 L147.777333,18.7039048 L147.777333,37.6191429 L155.281143,37.6191429 L155.281143,12.814381 L134.952571,12.814381 Z" id="Fill-12" fill="#195BA9"></path>
            <path d="M173.922952,31.7931429 C173.24581,32.1788571 172.386762,32.3750476 171.366762,32.3750476 C170.347714,32.3750476 169.49819,32.1798095 168.839143,31.7950476 C168.173429,31.4064762 167.630571,30.8788571 167.228667,30.2264762 C166.813429,29.5521905 166.516286,28.7826667 166.344857,27.9350476 C166.16581,27.0655238 166.077238,26.1588571 166.077238,25.2398095 C166.077238,24.3207619 166.16581,23.4045714 166.344857,22.5188571 C166.516286,21.6588571 166.811524,20.8902857 167.224857,20.2331429 C167.628667,19.5940952 168.173429,19.063619 168.844857,18.6579048 C169.504857,18.2598095 170.353429,18.0579048 171.366762,18.0579048 C172.381048,18.0579048 173.240095,18.2607619 173.915333,18.6588571 C174.600095,19.0645714 175.150571,19.5931429 175.554381,20.2321905 C175.968667,20.8921905 176.264857,21.6598095 176.436286,22.5198095 C176.614381,23.4045714 176.703905,24.3207619 176.703905,25.2398095 C176.703905,26.1588571 176.614381,27.0655238 176.436286,27.9350476 C176.264857,28.7807619 175.966762,29.5512381 175.552476,30.2255238 C175.148667,30.8788571 174.600095,31.4064762 173.922952,31.7931429 M183.300095,19.8807619 C182.695333,18.2740952 181.821048,16.883619 180.701048,15.7455238 C179.581048,14.6121905 178.214381,13.7217143 176.639143,13.1007619 C175.068667,12.4826667 173.294381,12.1693333 171.366762,12.1693333 C169.43819,12.1693333 167.673429,12.4826667 166.116286,13.1007619 C164.555333,13.7226667 163.195333,14.6131429 162.077238,15.7464762 C160.95819,16.883619 160.083905,18.2740952 159.479143,19.8807619 C158.87819,21.4826667 158.573429,23.2855238 158.573429,25.2398095 C158.573429,27.196 158.87819,28.9912381 159.479143,30.5769524 C160.083905,32.168381 160.95819,33.5502857 162.077238,34.6845714 C163.197238,35.8207619 164.557238,36.703619 166.120095,37.3093333 C167.674381,37.9121905 169.440095,38.2179048 171.366762,38.2179048 C173.292476,38.2179048 175.064857,37.9131429 176.635333,37.3102857 C178.212476,36.7055238 179.581048,35.8217143 180.702952,34.6855238 C181.821048,33.5502857 182.695333,32.168381 183.300095,30.5769524 C183.902952,28.9893333 184.207714,27.1940952 184.207714,25.2398095 C184.207714,23.2864762 183.902952,21.4845714 183.300095,19.8807619" id="Fill-14" fill="#195BA9"></path>
            <polygon id="Fill-16" fill="#195BA9" points="205.589619 12.814381 200.921048 29.222 196.251524 12.814381 185.913429 12.814381 185.913429 37.6191429 193.046762 37.6191429 193.046762 21.9581905 197.470571 37.6191429 204.373429 37.6191429 208.796286 21.9581905 208.796286 37.6191429 215.929619 37.6191429 215.929619 12.814381"></polygon>
            <path d="M234.81581,26.3420952 L234.81581,27.9144762 C234.81581,28.2649524 234.778667,28.7420952 234.704381,29.3335238 C234.63581,29.8811429 234.445333,30.4354286 234.140571,30.9801905 C233.841524,31.5059048 233.370095,31.9678095 232.737714,32.3535238 C232.107238,32.736381 231.183429,32.9297143 229.987238,32.9297143 C229.49581,32.9297143 229.012,32.8859048 228.551048,32.7982857 C228.121524,32.7182857 227.741524,32.5773333 227.423429,32.3792381 C227.120571,32.1887619 226.886286,31.9430476 226.711048,31.6287619 C226.536762,31.316381 226.449143,30.8897143 226.449143,30.3611429 C226.449143,29.8278095 226.538667,29.391619 226.714857,29.0630476 C226.89581,28.7297143 227.13581,28.4487619 227.431048,28.2287619 C227.743429,27.9982857 228.112,27.8125714 228.521524,27.6744762 C228.971048,27.5259048 229.445333,27.4078095 229.931048,27.3230476 C230.444381,27.2325714 230.957714,27.156381 231.472952,27.0973333 C232.005333,27.0344762 232.522476,26.9544762 233.02819,26.8611429 C233.539619,26.764 234.012,26.6411429 234.434857,26.496381 C234.566286,26.4506667 234.692952,26.3992381 234.81581,26.3420952 L234.81581,26.3420952 Z M243.076762,36.8906667 C242.809143,36.4592381 242.613905,35.7792381 242.499619,34.8678095 C242.380571,33.9106667 242.319619,32.8906667 242.319619,31.836381 L242.319619,19.4268571 C242.319619,17.916381 241.962476,16.6582857 241.259619,15.6859048 C240.571048,14.7344762 239.672952,13.9859048 238.590095,13.4611429 C237.533905,12.9487619 236.352,12.6011429 235.079619,12.4268571 C232.436762,12.0620952 229.793905,12.0697143 227.30819,12.5687619 C225.971048,12.8401905 224.743429,13.3020952 223.654857,13.9411429 C222.550095,14.5906667 221.627238,15.471619 220.914857,16.5582857 C220.194857,17.6525714 219.780571,19.011619 219.683429,20.596381 L219.653905,21.1011429 L227.144381,21.1011429 L227.185333,20.6697143 C227.293905,19.524 227.665333,18.7059048 228.28819,18.2382857 C228.939619,17.7506667 229.86819,17.504 231.047238,17.504 C231.601524,17.504 232.12819,17.5411429 232.614857,17.6135238 C233.05581,17.6801905 233.447238,17.8144762 233.777714,18.0125714 C234.090095,18.1992381 234.333905,18.4649524 234.525333,18.8201905 C234.716762,19.1792381 234.81581,19.6630476 234.81581,20.2782857 C234.839619,20.8020952 234.700571,21.1792381 234.392,21.4344762 C234.013905,21.7420952 233.487238,21.9820952 232.823429,22.1478095 C232.103429,22.3268571 231.273905,22.4630476 230.354857,22.5506667 C229.386286,22.6449524 228.398667,22.7706667 227.421524,22.924 C226.421524,23.0811429 225.418667,23.2935238 224.439619,23.556381 C223.422476,23.831619 222.503429,24.251619 221.709143,24.8020952 C220.898667,25.3649524 220.229143,26.1249524 219.716762,27.0649524 C219.205333,28.0078095 218.945333,29.2106667 218.945333,30.6382857 C218.945333,31.931619 219.170095,33.0697143 219.612952,34.0211429 C220.057714,34.9773333 220.684381,35.7811429 221.478667,36.4068571 C222.259619,37.0287619 223.186286,37.491619 224.22819,37.7859048 C225.247238,38.071619 226.361524,38.2182857 227.540571,38.2182857 C229.054857,38.2182857 230.559619,37.9935238 232.016762,37.5525714 C233.199619,37.1935238 234.269143,36.611619 235.210095,35.8201905 C235.227238,35.9154286 235.243429,36.0097143 235.264381,36.104 C235.342476,36.4992381 235.44819,36.8992381 235.578667,37.2925714 L235.686286,37.6192381 L243.532,37.6192381 L243.076762,36.8906667 Z" id="Fill-18" fill="#195BA9"></path>
            <polygon id="Fill-20" fill="#195BA9" points="279.122 19.3712381 279.122 37.6188571 245.322 37.6188571 245.322 12.8388571 252.82581 19.3331429 252.82581 31.7331429 258.474381 31.7331429 258.474381 12.8188571 258.502952 12.8188571 265.97819 19.2855238 265.97819 31.7331429 271.616286 31.7331429 271.616286 12.8855238"></polygon>
        </g>
    </g>
</svg>