<?xml version="1.0" encoding="UTF-8"?>
<svg width="326px" height="23px" viewBox="0 0 326 23" version="1.1" xmlns="http://www.w3.org/2000/svg" xmlns:xlink="http://www.w3.org/1999/xlink">
    <title>Artboard</title>
    <g id="Artboard" stroke="none" stroke-width="1" fill="none" fill-rule="evenodd">
        <g id="Group-Copy" fill="#1E1E1E">
            <path d="M82.9958817,9.81189536 C82.806836,4.12773939 75.5509191,0 65.7434583,0 C57.9284244,0 50.9131111,2.40557749 46.9786694,6.43228036 C44.9541621,8.50863771 43.9241495,10.842695 44.0043507,13.1892399 C44.1956879,18.9653504 51.2682878,23 61.2040705,23 C69.0500391,23 76.0871214,20.592152 80.0250002,16.5609082 C82.0449246,14.490227 83.0737914,12.1550346 82.9958817,9.81189536 M73.307577,14.4198421 C70.7892594,16.9991115 66.4767264,18.5384995 61.7712075,18.5384995 C55.8661079,18.5384995 51.8228218,16.2861797 51.7116859,12.9360809 C51.6635651,11.4852419 52.3681899,9.93904245 53.6915097,8.58129319 C56.2109731,6.00202369 60.523506,4.46263574 65.2255877,4.46263574 C71.1318331,4.46263574 75.1751192,6.71382034 75.2862551,10.0639191 C75.3343758,11.5158934 74.6320425,13.0609576 73.307577,14.4198421" id="Fill-1"></path>
            <path d="M168.92656,19.5602172 L169.715665,19.1140671 L164.311628,16.0352912 L164.051305,16.1692498 C161.180773,17.6314413 158.592646,18.5373643 154.543686,18.5373643 C148.926974,18.5373643 144.931473,16.3701876 144.826879,13.2687068 C144.77342,11.7100197 145.477688,10.1456565 146.862981,8.74930898 C149.482486,6.10419546 154.07185,4.46150049 158.839024,4.46150049 C164.046656,4.46150049 166.589459,6.02359329 168.389642,7.55049358 L168.631371,7.75937808 L175,5.25276407 L174.432867,4.70103653 C171.269471,1.62680158 166.094379,0 159.471238,0 C151.546479,0 144.10053,2.544077 140.043435,6.64002962 C137.97363,8.72887463 136.923039,11.0879072 137.00439,13.4605627 C137.196146,19.1640178 144.2458,23 154.54601,23 C160.221993,23 164.789275,21.9056269 168.92656,19.5602172" id="Fill-3"></path>
            <path d="M325.995653,9.81189536 C325.806609,4.12773939 318.553025,0 308.743329,0 C300.931777,0 293.914213,2.40557749 289.982085,6.43455084 C287.955298,8.50863771 286.924145,10.842695 287.004346,13.1892399 C287.197974,18.9653504 294.270533,23 304.206259,23 C312.053328,23 319.086933,20.592152 323.02708,16.5609082 C325.044702,14.490227 326.075854,12.1550346 325.995653,9.81189536 M316.307404,14.4198421 C313.789101,16.9991115 309.48003,18.5384995 304.774538,18.5384995 C298.870618,18.5384995 294.825064,16.2861797 294.711637,12.9360809 C294.665808,11.4852419 295.368137,9.93904245 296.692595,8.58129319 C299.210898,6.00202369 303.524552,4.46263574 308.225461,4.46263574 C314.133964,4.46263574 318.174936,6.71382034 318.288362,10.0639191 C318.338774,11.5158934 317.633008,13.0609576 316.307404,14.4198421" id="Fill-6"></path>
            <polygon id="Fill-8" points="12.6874185 22 38 0 29.1309123 0 11.7697279 15.5776328 8.8333485 3.34743603 11.6763448 3.34743603 13.1209005 0 0 0 6.15406086 22"></polygon>
            <polygon id="Fill-11" points="121.086588 22 123 17.6231012 104.263999 17.6231012 111.721943 0 104.308731 0 95 22"></polygon>
            <path d="M187.452702,22 L193.324209,16.9334285 L209.838179,16.9334285 L211.40278,22 L219,22 L211.866827,0 L204.984399,0 L179,22 L187.452702,22 Z M206.469579,5.57793863 L208.643455,12.6473647 L198.269891,12.6473647 L206.469579,5.57793863 Z" id="Fill-13"></path>
            <polygon id="Fill-15" points="239.486003 22 245.862841 7.1961464 258.747008 22 264.700326 22 272.778112 3.34743603 276.563466 3.34743603 278 0 266.796178 0 260.510911 14.3855643 248.055988 0 241.528056 0 232 22"></polygon>
        </g>
    </g>
</svg>