<?xml version="1.0" encoding="UTF-8"?>
<svg width="27px" height="28px" viewBox="0 0 27 28" version="1.1" xmlns="http://www.w3.org/2000/svg" xmlns:xlink="http://www.w3.org/1999/xlink">
    <title>Group 3</title>
    <g id="Page-1" stroke="none" stroke-width="1" fill="none" fill-rule="evenodd">
        <g id="Artboard">
            <path d="M21.6029336,9.40452604 C21.5013823,9.62326322 21.4198748,9.85104222 21.3617794,10.0817182 C21.1808273,10.809357 21.2833784,11.50105 21.6655175,12.0911263 C21.8477474,12.3725146 22.0770703,12.6053384 22.3471618,12.7862972 C22.0313041,13.0462494 21.6607321,13.3171717 21.3076716,13.5111423 C20.5167851,13.9456533 19.3528556,14.2472466 19.0587146,14.2631073 L2.00004043,14.263001 C2.00635592,16.5099742 2.79336733,18.4626912 4.21559352,19.8409698 C5.61991334,21.2018953 7.62803177,21.9894991 10.0480858,21.9998013 C12.5136244,22.0102972 15.5484482,21.6223774 18.0161816,19.9053376 C19.9442081,18.5638239 21.5012742,16.3980178 22.1715366,13.0040477 L23.2136987,13.0040477 C24.3314751,13.0040477 25.0381951,12.5951759 25.4502581,12.1961786 C25.5297596,12.124526 25.6019626,12.0468959 25.6718923,11.9518264 C25.4261232,11.8824401 25.0782527,11.820615 24.624518,11.820615 C24.3153731,11.820615 23.9960083,11.8514097 23.6869052,11.9014124 L22.6865193,12.0632419 L22.5380103,11.060792 C22.4211227,10.2717896 21.9703342,9.7297332 21.6029336,9.40452604 Z" id="Path-Copy-2" stroke="#1E1E1E" stroke-width="2" fill-rule="nonzero"></path>
            <rect id="Rectangle-Copy-48" fill="#1E1E1E" x="3" y="9" width="3" height="3"></rect>
            <rect id="Rectangle-Copy-47" fill="#1E1E1E" x="7" y="9" width="3" height="3"></rect>
            <rect id="Rectangle-Copy-46" fill="#1E1E1E" x="7" y="5" width="3" height="3"></rect>
            <rect id="Rectangle-Copy-45" fill="#1E1E1E" x="11" y="9" width="3" height="3"></rect>
            <rect id="Rectangle-Copy-44" fill="#1E1E1E" x="11" y="5" width="3" height="3"></rect>
            <rect id="Rectangle-Copy-43" fill="#1E1E1E" x="11" y="1" width="3" height="3"></rect>
            <rect id="Rectangle-Copy-42" fill="#1E1E1E" x="15" y="9" width="3" height="3"></rect>
            <rect id="Rectangle-Copy-41" fill="#1E1E1E" x="15" y="5" width="3" height="3"></rect>
        </g>
    </g>
</svg>