<?xml version="1.0" encoding="UTF-8"?>
<svg width="24px" height="24px" viewBox="0 0 24 24" version="1.1" xmlns="http://www.w3.org/2000/svg" xmlns:xlink="http://www.w3.org/1999/xlink">
    <title>Group 6</title>
    <g id="Page-1" stroke="none" stroke-width="1" fill="none" fill-rule="evenodd">
        <g id="Artboard" transform="translate(-1.000000, -2.000000)">
            <g id="Group-6">
                <path d="M10.0453941,5 L12.7434111,7.70389545 C13.3706352,7.49166174 14.0895573,7.63395986 14.5892938,8.13488425 C15.091625,8.63892899 15.2326006,9.36556736 15.0155154,9.99626304 L17.6159245,12.6023378 C18.2450431,12.3850686 18.9709048,12.5254392 19.4732565,13.029777 C20.1755812,13.7334254 20.1755812,14.8736141 19.4732565,15.5774483 C18.770829,16.2815095 17.6331191,16.2815095 16.9303003,15.5774483 C16.4022081,15.0477927 16.2715904,14.2701803 16.5390652,13.6181044 L14.1138975,11.1876528 L14.1136916,17.5833499 C14.2849175,17.6682971 14.4465061,17.7816741 14.5891909,17.9240506 C15.2913095,18.6276165 15.2913095,19.7675988 14.5891909,20.4723411 C13.8868663,21.1758863 12.7486416,21.1758863 12.0470583,20.4723411 C11.3448367,19.7676607 11.3448367,18.6276785 12.0470583,17.9240506 C12.2206008,17.7504396 12.4214077,17.6190318 12.6356717,17.5309519 L12.6356717,11.0758194 C12.4213047,10.988111 12.2207347,10.8576834 12.0469348,10.6826794 C11.5150329,10.1500314 11.3869276,9.36767236 11.6597152,8.71307871 L9,6.04715585 L10.0453941,5 Z" id="Path-Copy-3" fill="#1E1E1E" fill-rule="nonzero"></path>
                <path d="M2,13.9759417 C2,14.1155917 2.05325167,14.2552347 2.1598,14.3617613 L12.6384946,24.8402447 C12.7450253,24.9468168 12.8844924,25 13.023981,25 C13.1638267,25 13.3036642,24.9465726 13.4104481,24.8398961 L23.8403129,14.4112975 C23.9467278,14.3048263 24,14.1649577 24,14.0251222 C24,13.8853581 23.9467767,13.7455635 23.8401818,13.638942 L13.3611299,3.15974321 C13.2545597,3.05307209 13.1151887,3 12.9758347,3 C12.836159,3 12.6964546,3.0532922 12.5898566,3.15985735 L2,13.9759417 Z" id="Path-Copy-5" stroke="#1E1E1E" stroke-width="2"></path>
            </g>
        </g>
    </g>
</svg>