<?xml version="1.0" encoding="UTF-8"?>
<svg width="38px" height="38px" viewBox="0 0 38 38" version="1.1" xmlns="http://www.w3.org/2000/svg" xmlns:xlink="http://www.w3.org/1999/xlink">
    <!-- Generator: Sketch 58 (84663) - https://sketch.com -->
    <title>Rectangle</title>
    <desc>Created with Sketch.</desc>
    <g id="Page-1" stroke="none" stroke-width="1" fill="none" fill-rule="evenodd">
        <g id="Главная" transform="translate(-369.000000, -1374.000000)">
            <g id="Group-19" transform="translate(369.000000, 1374.000000)">
                <g id="Group-Copy">
                    <rect id="Rectangle-Copy-6" fill="#FFE63E" x="0" y="0" width="35" height="35" rx="1"></rect>
                    <path d="M15.2883655,16.2666612 L15.2883655,26.8022237 C15.2883655,27.5312999 15.0808269,28.1015737 14.6657603,28.5130345 C14.2506937,28.9244953 13.6822281,29.1302257 12.9603635,29.1302257 C12.606648,29.1302257 12.2637605,29.0490164 11.9317009,28.8865976 L11.7965718,28.8187576 C11.5406779,28.6866135 11.3709695,28.5756848 11.2874399,28.4859647 L11.2105395,28.401991 C11.1519804,28.3368014 11.1072324,28.2835833 11.0762955,28.2423366 L9.08395889,30.2455011 L9.52790346,30.7111015 C9.80942928,31.0215053 10.2930797,31.3355149 10.9788442,31.6531302 C11.6646087,31.9707456 12.4009071,32.1295585 13.1877392,32.1295585 C14.8119266,32.1295585 16.1239126,31.6368883 17.1236867,30.651548 C18.1234608,29.6662076 18.6233531,28.3830995 18.6233531,26.8022237 L18.6233531,16.2666612 L15.2883655,16.2666612 Z M29.2563775,27.2461683 C29.2563775,26.7264283 28.9946782,26.3077665 28.4713324,25.9901512 C27.9828764,25.6937102 27.3938058,25.4428556 26.7041209,25.2375876 L26.5547912,25.1942993 C25.8004429,24.9813468 25.0497109,24.7304965 24.3025846,24.4417486 C23.5554584,24.1530006 22.9184195,23.6765723 22.3914574,23.0124636 C21.8644953,22.3483549 21.6010195,21.5073832 21.6010195,20.4895591 C21.6010195,19.2335208 22.1045176,18.1615571 23.1115138,17.273668 C24.1185101,16.3857789 25.4268797,15.9418343 27.0366335,15.9418343 C27.6718748,15.9418343 28.2854602,16.0158215 28.8773898,16.1638066 C29.4693194,16.3117916 29.9547675,16.4850383 30.3337446,16.6835466 C30.7127216,16.8820548 31.0447813,17.0841795 31.3299129,17.2899099 C31.6150445,17.4956403 31.8189667,17.6743009 31.9416796,17.8258917 L32.1365821,18.04245 L30.1442455,20.1538937 C30.0576221,20.0528367 29.9367069,19.9283157 29.7815103,19.7803306 C29.6263137,19.6323456 29.299668,19.4356349 28.8015838,19.1901986 C28.3034997,18.9447623 27.7909818,18.8220494 27.2640197,18.8220494 C26.6287785,18.8220494 26.1180582,18.9844682 25.731859,19.3093057 C25.3456598,19.6341432 25.1525655,20.0275539 25.1525655,20.4895485 C25.1525655,21.0092885 25.4142437,21.4261633 25.9375894,21.7401729 C26.4235533,22.0317532 27.0059986,22.2813201 27.6849167,22.4888736 L27.8433027,22.5360247 C28.5904289,22.752583 29.3411609,23.0052309 30.0955093,23.2939789 C30.8498576,23.5827268 31.4905129,24.0591551 32.017475,24.7232638 C32.5444371,25.3873725 32.8079129,26.2283442 32.8079129,27.2461683 C32.8079129,28.6826754 32.2863647,29.8556961 31.243279,30.7652411 C30.2001932,31.6747861 28.7618885,32.1295585 26.9283649,32.1295585 C26.2065003,32.1295585 25.5080997,32.041127 24.8331631,31.8642746 C24.1582265,31.6874221 23.602397,31.4762778 23.1656746,31.2308415 C22.7289521,30.9854052 22.3445611,30.7363631 22.0125015,30.4837153 L21.8659068,30.3699272 C21.6093664,30.1664833 21.4200171,29.9914615 21.297859,29.8448682 L21.0488169,29.5741703 L23.0519815,27.5818337 L23.1255029,27.6639134 C23.218453,27.7655985 23.336515,27.8880231 23.4796841,28.0311922 C23.6637587,28.2152668 24.0734114,28.4625007 24.7086526,28.7729045 C25.3438939,29.0833083 26.0080026,29.2385049 26.7009892,29.2385049 C27.502255,29.2385049 28.128466,29.0508245 28.5796327,28.6754532 C29.0307994,28.300082 29.2563775,27.8236536 29.2563775,27.2461683 Z" id="JS-Copy" fill="#1E1E1E" fill-rule="nonzero"></path>
                </g>
            </g>
        </g>
    </g>
</svg>