<?xml version="1.0" encoding="UTF-8"?>
<svg width="27px" height="28px" viewBox="0 0 27 28" version="1.1" xmlns="http://www.w3.org/2000/svg" xmlns:xlink="http://www.w3.org/1999/xlink">
    <title>Group 3</title>
    <g id="Page-1" stroke="none" stroke-width="1" fill="none" fill-rule="evenodd">
        <g id="Artboard" fill="#1E1E1E" fill-rule="nonzero">
            <path d="M12.6889825,1.27806844 C13.330837,0.910675396 14.1668521,0.909015904 14.8081535,1.27806844 C18.0344822,3.10111239 21.261825,4.92129832 24.4876005,6.74544859 C25.0943291,7.08721171 25.5001671,7.76244049 25.4940596,8.46154751 L25.4940596,19.429682 C25.4985076,20.157738 25.0525652,20.8491007 24.4124624,21.1831195 C21.196736,22.9961143 17.9826692,24.8113218 14.767496,26.6243166 C14.1123655,26.9989008 13.2595711,26.970044 12.6249077,26.5647593 C11.6608351,26.0058793 10.6951031,25.4497651 9.73093835,24.8914383 C9.53391979,24.7739832 9.31182447,24.6804985 9.17270374,24.4894726 C9.29569052,24.3237078 9.51557319,24.3030563 9.69424514,24.230684 C10.0966719,24.1027188 10.4662776,23.8973106 10.8359755,23.6979872 C10.9294602,23.6340045 11.0435964,23.6585281 11.1332089,23.7157806 C11.9576076,24.1884592 12.7747229,24.6748747 13.6018874,25.1430357 C13.7783467,25.2449101 13.9570186,25.1096615 14.107848,25.0255806 C17.2634639,23.2420879 20.4229519,21.4653253 23.5780146,19.6812794 C23.6949166,19.6250411 23.7595445,19.500948 23.7500486,19.3728905 C23.7522612,15.7547374 23.7506017,12.135939 23.7511549,8.51778584 C23.764523,8.37248812 23.6804421,8.23889903 23.5490657,8.1794339 C20.3444948,6.37473656 17.1415834,4.5672734 13.9375657,2.76211509 C13.8239396,2.68399848 13.6739781,2.6837787 13.5601235,2.76156193 C10.3561058,4.5672734 7.15374757,6.37639605 3.94972986,8.1810012 C3.81881439,8.24055852 3.73095352,8.37193495 3.74653431,8.51778584 C3.74708747,12.135939 3.74653431,15.7547374 3.74653431,19.3734437 C3.73515542,19.5014144 3.80468761,19.6229302 3.92078095,19.6779604 C4.775788,20.1628086 5.63190139,20.6442456 6.48746161,21.1274343 C6.96945178,21.3868682 7.561245,21.5410166 8.09228238,21.3422463 C8.56090443,21.1741767 8.88939161,20.6959665 8.8804488,20.1983955 C8.88487411,16.6013548 8.87823614,13.003761 8.88376778,9.40727345 C8.87205914,9.24759346 9.02353387,9.11566386 9.17878855,9.13069148 C9.58960496,9.12792567 10.0009745,9.12515985 10.411791,9.13179781 C10.5832718,9.12792567 10.7012801,9.29986746 10.6800755,9.46074597 C10.678416,13.0805586 10.6845008,16.7004634 10.6773096,20.320276 C10.678416,21.2849939 10.282074,22.3347146 9.38972839,22.8067479 C8.29040726,23.3762301 6.93165225,23.255456 5.84560705,22.709391 C4.90541275,22.2401236 4.00818085,21.6863143 3.08467366,21.1835805 C2.4429113,20.8514055 1.99918163,20.157277 2.00361978,19.4297742 L2.00361978,8.46154751 C1.99696897,7.74796603 2.41894086,7.06047545 3.04456927,6.72369081 C6.25974245,4.90922091 9.47436247,3.09336809 12.6889825,1.27806844 Z" id="Path"></path>
            <path d="M15.4938924,8.8757751 C16.896163,8.78551719 18.3973577,8.82230259 19.6592169,9.51311215 C20.6361966,10.04249 21.1778363,11.1535198 21.1950765,12.2389196 C21.1677871,12.3853237 21.0147451,12.4660856 20.874979,12.4560365 C20.4681269,12.4554833 20.0611827,12.4615681 19.6543306,12.4532707 C19.4817434,12.4599086 19.3814364,12.3007818 19.3597708,12.1482008 C19.2428688,11.628872 18.9596489,11.1145217 18.4708363,10.8640307 C17.7204695,10.4883402 16.8504348,10.5072399 16.0322131,10.5150764 C15.4348883,10.5467912 14.7925727,10.598512 14.2865199,10.9497711 C13.8980145,11.2158429 13.7800062,11.7529651 13.9186659,12.1855393 C14.049397,12.4961409 14.4079394,12.5963557 14.7013007,12.6887341 C16.3912165,13.1307121 18.1819926,13.0867356 19.8396405,13.6683874 C20.5259326,13.9055104 21.1972892,14.3664803 21.4321995,15.0850403 C21.739482,16.0480987 21.6047866,17.1992328 20.9196009,17.9723716 C20.3639477,18.6086024 19.5546689,18.954883 18.7475105,19.1429587 C17.6737271,19.3823865 16.5593784,19.3884713 15.4689079,19.2821716 C14.4435263,19.1652697 13.3764731,18.8958788 12.5848955,18.1972328 C11.9080072,17.6094961 11.5773996,16.6937332 11.6102206,15.8098694 C11.6180571,15.6606074 11.7666738,15.5565203 11.9096667,15.5687821 C12.3193768,15.5654632 12.7290869,15.5643568 13.138797,15.5693353 C13.3024413,15.5576267 13.4237686,15.6990523 13.4321582,15.8532928 C13.5077573,16.3480979 13.6937126,16.8674267 14.1251805,17.160788 C14.9578766,17.6980023 16.0027111,17.6612169 16.9561813,17.6762445 C17.7460994,17.6412108 18.6328212,17.6306085 19.2774416,17.108514 C19.6175452,16.8107274 19.7183132,16.3125111 19.6263958,15.8839012 C19.5268263,15.5220398 19.1482778,15.353417 18.8232018,15.243153 C17.1549515,14.7154346 15.3441694,14.9069215 13.6920531,14.3101498 C13.0213418,14.0731191 12.3727571,13.6249641 12.1150749,12.9359062 C11.7555184,11.9606782 11.920269,10.754412 12.6772739,10.0073641 C13.4153789,9.26428058 14.4808649,8.97811043 15.4938924,8.87568291 L15.4938924,8.8757751 Z" id="Path"></path>
        </g>
    </g>
</svg>