<?xml version="1.0" encoding="UTF-8"?>
<svg width="38px" height="38px" viewBox="0 0 38 38" version="1.1" xmlns="http://www.w3.org/2000/svg" xmlns:xlink="http://www.w3.org/1999/xlink">
    <!-- Generator: Sketch 58 (84663) - https://sketch.com -->
    <title>Rectangle Copy 50</title>
    <desc>Created with Sketch.</desc>
    <g id="Page-1" stroke="none" stroke-width="1" fill="none" fill-rule="evenodd">
        <g id="Главная" transform="translate(-261.000000, -1583.000000)" fill-rule="nonzero">
            <g id="Group-20" transform="translate(261.000000, 1583.000000)">
                <g id="Group-Copy-3" transform="translate(0.000000, 2.000000)">
                    <path d="M30.4160678,10.667861 C30.0223182,10.5327972 29.6252278,10.4076761 29.2251749,10.2926167 C29.291518,10.0230378 29.3528686,9.75225456 29.4091952,9.48040613 C30.3106327,5.10452117 29.7212438,1.57932081 27.7084808,0.418879599 C25.7787234,-0.694083062 22.622546,0.466358148 19.4349345,3.24025141 C19.1208366,3.51420969 18.8137106,3.79606025 18.5138506,4.08553329 C18.3130426,3.89305087 18.108686,3.7043049 17.9008862,3.51939253 C14.5601973,0.553129288 11.2116499,-0.696702568 9.20101524,0.467176743 C7.27305873,1.58325007 6.7020064,4.89741646 7.51356214,9.04442208 C7.59430627,9.45509663 7.68547268,9.86365314 7.78697309,10.2696961 C7.31316992,10.4042732 6.85557495,10.5476912 6.41778999,10.7002774 C2.5013009,12.065695 0,14.2058314 0,16.4255354 C0,18.7182582 2.68499377,21.0178571 6.76454711,22.4120892 C7.09533864,22.5246184 7.42888351,22.6288853 7.76487101,22.7247928 C7.65571977,23.1622405 7.55881479,23.6026532 7.47426955,24.045515 C6.70053293,28.1204842 7.30482025,31.3560654 9.22770145,32.4652626 C11.2137782,33.6104779 14.5470998,32.4333373 17.7929953,29.5960848 C18.0495432,29.3717896 18.3070734,29.1339057 18.564931,28.8845614 C18.8897206,29.1979296 19.2231823,29.5021833 19.5649275,29.7969681 C22.7089897,32.5024268 25.8140867,33.5949246 27.7353308,32.4827805 C29.7196066,31.3341271 30.3643326,27.8582062 29.5270729,23.6291773 C29.4632225,23.3061594 29.3887303,22.9762654 29.3052335,22.6403137 C29.5393519,22.5712242 29.7690498,22.4998427 29.9931813,22.4255142 C34.2341617,21.0204766 36.9933203,18.7488737 36.9933203,16.4255354 C36.9933203,14.1978092 34.4114695,12.0432654 30.4160678,10.667861 Z" id="Path" fill="#0DCDFF"></path>
                    <path d="M29.49613,20.9255195 C29.2939369,20.9924806 29.086341,21.0571497 28.8748159,21.1198541 C28.4065792,19.6377048 27.7746234,18.0615807 27.0015416,16.433394 C27.7394237,14.8436812 28.3468217,13.2878583 28.8019609,11.8152047 C29.1803158,11.9248965 29.5477016,12.0403185 29.9016623,12.1622892 C33.3250294,13.3405758 35.4131032,15.0830386 35.4131032,16.4255354 C35.4131032,17.8556221 33.1578721,19.712197 29.4962938,20.9255195 L29.49613,20.9255195 Z M27.9768165,23.9361506 C28.3469854,25.8061506 28.3998667,27.496878 28.1546155,28.8185826 C27.9342495,30.0062012 27.4912255,30.7979469 26.9434213,31.1150709 C25.7775774,31.7899211 23.2842987,30.912714 20.5957031,28.5990352 C20.28742,28.3338103 19.9768448,28.0505762 19.665451,27.7509701 C20.7078507,26.6108301 21.7495956,25.28536 22.7662914,23.813525 C24.5547592,23.6548812 26.2443406,23.3953863 27.776588,23.0412619 C27.8518988,23.3457794 27.9190236,23.6442394 27.9768165,23.9361506 L27.9768165,23.9361506 Z M12.6117759,30.9985029 C11.4727819,31.4007608 10.5656142,31.4122211 10.0173188,31.0960795 C8.85032885,30.4231938 8.36539278,27.8249712 9.0269818,24.3402095 C9.10565539,23.9283839 9.19573555,23.5188194 9.29711837,23.1119885 C10.8123389,23.4471216 12.4896414,23.6882799 14.2823659,23.8336625 C15.3057742,25.2738997 16.3776434,26.5977326 17.4578622,27.7570277 C17.228287,27.9791068 16.9932788,28.1954999 16.7530514,28.4060104 C15.3177257,29.6607538 13.8794532,30.550731 12.6119396,30.9985029 L12.6117759,30.9985029 Z M7.27567824,20.9166787 C5.47182084,20.3001124 3.98214046,19.498871 2.96102423,18.6246108 C2.04354221,17.838759 1.58021707,17.0586373 1.58021707,16.4255354 C1.58021707,15.0786181 3.58855966,13.3603859 6.93808939,12.1925773 C7.35850362,12.0466409 7.78310005,11.9130434 8.21133308,11.7919566 C8.67433079,13.2976814 9.28156505,14.8720046 10.0143719,16.4640094 C9.27206934,18.0797536 8.65615796,19.6791258 8.18890356,21.2025323 C7.88219891,21.1147448 7.57769851,21.0194315 7.27567824,20.9166787 L7.27567824,20.9166787 Z M9.06447348,8.74088681 C8.36915832,5.18769049 8.83084628,2.50744457 9.99276096,1.83488637 C11.2304776,1.11845145 13.9670429,2.14005884 16.8514466,4.70111722 C17.0357943,4.86483636 17.2209607,5.03625029 17.4064544,5.21355811 C16.331802,6.36761427 15.269756,7.68146031 14.2551886,9.11334784 C12.5153454,9.27461118 10.8498306,9.53361485 9.31872929,9.88053569 C9.22441453,9.50279467 9.13963567,9.12273645 9.06447348,8.74072309 L9.06447348,8.74088681 Z M25.0216861,12.6811152 C24.6600432,12.0564334 24.2849848,11.4396149 23.896772,10.831089 C25.0771869,10.9800734 26.207995,11.1781735 27.2698773,11.4206416 C26.9511161,12.4424127 26.5537698,13.5108437 26.0858605,14.6061247 C25.743985,13.9574351 25.3891895,13.3156373 25.0216861,12.6811152 L25.0216861,12.6811152 Z M18.5143418,6.34289268 C19.2432194,7.13251006 19.973243,8.0143013 20.6913151,8.97091219 C19.2347077,8.90208142 17.7756701,8.90175362 16.319032,8.96992988 C17.0377589,8.02215982 17.7740039,7.14167833 18.5143418,6.34289268 L18.5143418,6.34289268 Z M11.9652491,12.6919206 C11.602347,13.3213965 11.2541853,13.9592562 10.9210484,14.6049787 C10.460834,13.5134632 10.0670894,12.4402843 9.74554507,11.4039422 C10.8010423,11.1676955 11.9266114,10.9746707 13.0993315,10.828142 C12.7067679,11.4404392 12.3286362,12.06187 11.9652491,12.6919206 L11.9652491,12.6919206 Z M13.1330576,22.1357313 C11.9215361,22.0004993 10.7789402,21.8172976 9.72377043,21.5875997 C10.0503901,20.532921 10.4528117,19.4366577 10.9228494,18.3217304 C11.2573906,18.9679316 11.6070822,19.6061761 11.9716341,20.2359345 C12.3436222,20.8783402 12.7308734,21.5117858 13.1330576,22.1357313 L13.1330576,22.1357313 Z M18.5580548,26.6198347 C17.8090398,25.8115533 17.0619894,24.9176468 16.3322932,23.9561244 C17.0405422,23.9839566 17.7627073,23.9980365 18.4966601,23.9980365 C19.2507505,23.9980365 19.9961637,23.9811734 20.7297891,23.9484296 C20.0094249,24.92747 19.2820208,25.8226862 18.5580548,26.6198347 Z M26.1009227,18.2649199 C26.5953544,19.3919624 27.0121834,20.4823318 27.3432234,21.5191651 C26.2705357,21.7639252 25.1125503,21.961043 23.8923516,22.1074079 C24.2833704,21.4875205 24.6620185,20.8599154 25.0280712,20.2249653 C25.400186,19.5796575 25.7578918,18.9261472 26.1009227,18.2649199 L26.1009227,18.2649199 Z M23.6590518,19.4355117 C23.098674,20.4089785 22.5067894,21.3639656 21.8843364,22.2989593 C20.7867634,22.3773808 19.6525172,22.4178194 18.4966601,22.4178194 C17.3455509,22.4178194 16.225712,22.3819649 15.1472941,22.3120568 C14.5086972,21.3792402 13.9056159,20.4226002 13.3393437,19.4441888 C12.7757184,18.4709685 12.2492549,17.4766952 11.7610913,16.4635183 C12.2480133,15.4500378 12.7728859,14.4552319 13.3345959,13.4812106 L13.3345959,13.481538 C13.8961297,12.5073092 14.4944632,11.5547596 15.1283027,10.6259489 C16.2284953,10.5427796 17.3565201,10.4992303 18.4968238,10.4992303 C19.6422029,10.4992303 20.7717012,10.543107 21.8715663,10.6269312 C22.4989947,11.5543127 23.0935013,12.5035466 23.6539765,13.4728609 C24.2176181,14.4447152 24.7494954,15.434648 25.2487646,16.4410888 C24.7546311,17.4577835 24.2244454,18.4565575 23.6592155,19.4355117 L23.6590518,19.4355117 Z M26.9191909,1.78789898 C28.1578898,2.50236928 28.6397153,5.38333485 27.8613945,9.16148126 C27.8103797,9.40760467 27.7549245,9.65278676 27.6950559,9.89690761 C26.1603527,9.54278312 24.4936919,9.27919532 22.7487734,9.11547619 C21.7322413,7.66803534 20.6790362,6.35189723 19.621738,5.21273951 C19.8987939,4.94563959 20.1824429,4.68546419 20.4724226,4.43245413 C23.2035852,2.05557976 25.7561302,1.1171417 26.9191909,1.78789898 L26.9191909,1.78789898 Z" id="Shape" fill="#E7EEF7"></path>
                    <path d="M18.4966601,13.1221745 C20.3211461,13.1221745 21.8000211,14.6012132 21.8000211,16.4255354 C21.8000211,18.2500215 20.3211461,19.7290601 18.4966601,19.7290601 C16.6723378,19.7290601 15.1932992,18.2500215 15.1932992,16.4255354 C15.1932992,14.6012132 16.6723378,13.1221745 18.4966601,13.1221745" id="Path" fill="#0DCDFF"></path>
                </g>
            </g>
        </g>
    </g>
</svg>