<?xml version="1.0" encoding="UTF-8"?>
<svg width="27px" height="28px" viewBox="0 0 27 28" version="1.1" xmlns="http://www.w3.org/2000/svg" xmlns:xlink="http://www.w3.org/1999/xlink">
    <title>Group 4</title>
    <g id="Page-1" stroke="none" stroke-width="1" fill="none" fill-rule="evenodd">
        <g id="Artboard" fill="#000000" fill-rule="nonzero">
            <g id="Group-4">
                <path d="M6.24262434,14.465681 C6.24262434,15.6466606 5.29289947,16.6043289 4.12061376,16.6043289 C2.94972487,16.6043289 2,15.6467779 2,14.465681 C2,13.2851708 2.94972487,12.3277371 4.12061376,12.3277371 C5.29289947,12.3277371 6.24262434,13.2851708 6.24262434,14.465681 Z M18.3104974,24.8633238 C18.8963492,25.8852983 20.1930688,26.2358136 21.2076296,25.6460279 C22.2220741,25.0554208 22.5696508,23.7474718 21.9839153,22.7246759 C21.3981799,21.7019973 20.1013439,21.3523034 19.0868995,21.9427932 C18.0723386,22.5334004 17.7247619,23.8406453 18.3104974,24.8633238 Z M21.9837989,6.20727281 C22.5695344,5.18435955 22.2226561,3.87676261 21.2075132,3.28685955 C20.1936508,2.69636975 18.8963492,3.04676771 18.310381,4.06921159 C17.7246455,5.09189016 18.0722222,6.39936975 19.0867831,6.98985955 C20.1013439,7.58034934 21.3987619,7.22995138 21.9837989,6.20727281 Z M14.8050476,8.36798199 C17.9657143,8.36798199 20.5592698,10.8104412 20.8301376,13.9260024 L23.8998942,13.8771861 C23.7541587,11.562283 22.7581058,9.48031363 21.2232275,7.94518097 C20.4107407,8.26119628 19.468,8.2182473 18.6546984,7.74451771 C17.8408148,7.27078812 17.3324868,6.46883914 17.1980423,5.6000024 C16.4351429,5.39112485 15.6326667,5.27929322 14.8050476,5.27929322 C13.3533968,5.27929322 11.9812487,5.62147689 10.7627513,6.23015546 L12.2564233,8.93418097 C13.0304974,8.57157893 13.8950159,8.36798199 14.8050476,8.36798199 Z M8.75574603,14.465681 C8.75574603,12.4030738 9.77240212,10.579033 11.3278836,9.47608914 L9.75179894,6.82005853 C7.92614815,8.04915036 6.56622222,9.9240024 5.99247619,12.1221453 C6.67144974,12.6733238 7.10644444,13.5182218 7.10644444,14.4657983 C7.10644444,15.4139616 6.67133333,16.2588595 5.99247619,16.8101555 C6.56622222,19.008181 7.92614815,20.883033 9.75179894,22.1128289 L11.3278836,19.4567983 C9.77240212,18.353033 8.75574603,16.5296963 8.75574603,14.465681 Z M14.8050476,20.5645534 C13.8951323,20.5645534 13.0306138,20.3610738 12.2564233,19.9977677 L10.7627513,22.7017932 C11.9812487,23.3109412 13.3532804,23.6527728 14.8050476,23.6527728 C15.6325503,23.6527728 16.4351429,23.5417626 17.1980423,23.332533 C17.3323704,22.4631095 17.8406984,21.6611606 18.6546984,21.1882524 C19.468,20.7145228 20.4107407,20.6714565 21.2232275,20.9874718 C22.7582222,19.4516351 23.7541587,17.3696657 23.8998942,15.0547626 L20.8301376,15.0067677 C20.5591534,18.1215075 17.9657143,20.5645534 14.8050476,20.5645534 Z" id="Shape"></path>
            </g>
        </g>
    </g>
</svg>