<?xml version="1.0" encoding="UTF-8"?>
<svg width="22px" height="20px" viewBox="0 0 22 20" version="1.1" xmlns="http://www.w3.org/2000/svg" xmlns:xlink="http://www.w3.org/1999/xlink">
    <title>Fill 1 Copy 3</title>
    <g id="Page-1" stroke="none" stroke-width="1" fill="none" fill-rule="evenodd">
        <g id="Главная-Copy-5" transform="translate(-315.000000, -1548.000000)" stroke="#1E1E1E">
            <g id="Fill-1-Copy-3" transform="translate(315.000000, 1548.000000)">
                <path d="M11,1 C6.02943359,1 2,5.05405883 2,10.0550021 C2,14.5746153 5.29116992,18.320698 9.59375,19 L9.59375,12.6724636 L7.30859375,12.6724636 L7.30859375,10.0550021 L9.59375,10.0550021 L9.59375,8.06007192 C9.59375,5.79066203 10.9373867,4.53711018 12.9931836,4.53711018 C13.9778574,4.53711018 15.0078125,4.71396569 15.0078125,4.71396569 L15.0078125,6.9423451 L13.8729336,6.9423451 C12.7549121,6.9423451 12.40625,7.64034074 12.40625,8.3564287 L12.40625,10.0550021 L14.9023438,10.0550021 L14.5033203,12.6724636 L12.40625,12.6724636 L12.40625,19 C16.7088301,18.320698 20,14.5746153 20,10.0550021 C20,5.05405883 15.9705664,1 11,1 Z" id="Fill-1-Copy-2"></path>
            </g>
        </g>
    </g>
</svg>