<?xml version="1.0" encoding="UTF-8"?>
<svg width="22px" height="20px" viewBox="0 0 22 20" version="1.1" xmlns="http://www.w3.org/2000/svg" xmlns:xlink="http://www.w3.org/1999/xlink">
    <!-- Generator: Sketch 58 (84663) - https://sketch.com -->
    <title>Главная Copy 12</title>
    <desc>Created with Sketch.</desc>
    <g id="Page-1" stroke="none" stroke-width="1" fill="none" fill-rule="evenodd">
        <g id="Главная" transform="translate(-914.000000, -2395.000000)" stroke="rgb(30, 30, 30)">
            <g id="Group-18" transform="translate(914, 2395)">
                <path d="M11.4991252,1 C6.2538445,1 2,5.2532613 2,10.5002916 C2,14.6975659 4.72178397,18.2579883 8.49682311,19.5141963 C8.97212929,19.6016759 9.14533902,19.3083275 9.14533902,19.056386 C9.14533902,18.8312717 9.13717425,18.233494 9.13250867,17.4409282 C6.4900396,18.0147948 5.93250253,16.1672243 5.93250253,16.1672243 C5.50035299,15.0696461 4.87749777,14.777464 4.87749777,14.777464 C4.01494828,14.1884343 4.94281592,14.2000982 4.94281592,14.2000982 C5.89634427,14.267166 6.39789435,15.1792873 6.39789435,15.1792873 C7.2452807,16.6308665 8.62162743,16.2115473 9.16283496,15.9683538 C9.24914822,15.3548298 9.49467448,14.9360938 9.76586144,14.6987323 C7.65643513,14.459038 5.43853402,13.6437276 5.43853402,10.0034071 C5.43853402,8.96648148 5.80886461,8.11792873 6.41655668,7.45424967 C6.31857945,7.21397219 5.9925719,6.24761349 6.50986832,4.9400841 C6.50986832,4.9400841 7.30709967,4.68464348 9.12201111,5.91402437 C9.87958501,5.70290678 10.6925627,5.59793118 11.5002916,5.5938488 C12.3074373,5.59793118 13.1198318,5.70290678 13.8785721,5.91402437 C15.6923171,4.68464348 16.4883821,4.9400841 16.4883821,4.9400841 C17.0068449,6.24761349 16.6808373,7.21397219 16.5834433,7.45424967 C17.1923018,8.11792873 17.5597164,8.96648148 17.5597164,10.0034071 C17.5597164,13.6530587 15.3383161,14.456122 13.2224746,14.6911507 C13.5630621,14.9844992 13.8669081,15.5641978 13.8669081,16.4506584 C13.8669081,17.7202799 13.8552442,18.7449584 13.8552442,19.056386 C13.8552442,19.3106602 14.0267043,19.6063415 14.5084257,19.5136131 C18.2805488,18.2544891 21,14.6963995 21,10.5002916 C21,5.2532613 16.7461555,1 11.4991252,1"></path>
            </g>
        </g>
    </g>
</svg>