<?xml version="1.0" encoding="UTF-8"?>
<svg width="22px" height="20px" viewBox="0 0 22 20" version="1.1" xmlns="http://www.w3.org/2000/svg" xmlns:xlink="http://www.w3.org/1999/xlink">
    <!-- Generator: Sketch 58 (84663) - https://sketch.com -->
    <title>Главная Copy 13</title>
    <desc>Created with Sketch.</desc>
    <defs>
        <path d="M11.9179,5.2871 L11.9179,8.6886 C12.436,8.0714 13.0564,7.7604 13.7764,7.7604 C14.1458,7.7604 14.4799,7.831 14.7787,7.9718 C15.076,8.1114 15.2995,8.2906 15.4497,8.5078 C15.6015,8.7275 15.7042,8.9678 15.7591,9.2329 C15.8144,9.4965 15.8418,9.9071 15.8418,10.4635 L15.8418,14.1008 L14.2344,14.1008 L14.2344,10.8251 C14.2344,10.1749 14.2042,9.7631 14.1426,9.5882 C14.0815,9.4122 13.9744,9.2737 13.8191,9.1718 C13.6658,9.0671 13.4713,9.0153 13.2383,9.0153 C12.972,9.0153 12.7328,9.0824 12.5246,9.2145 C12.3148,9.3478 12.1615,9.5471 12.0634,9.8133 C11.9669,10.08 11.9179,10.4737 11.9179,10.9949 L11.9179,14.1008 L10.3105,14.1008 L10.3105,5.2871 L11.9179,5.2871 Z" id="path-1"></path>
    </defs>
    <g id="Page-1" stroke="none" stroke-width="1" fill="none" fill-rule="evenodd">
        <g id="Главная" transform="translate(-914.000000, -2348.000000)">
            <g id="Group-17" transform="translate(914.000000, 2348.000000)">
                <g id="Group-Copy-4" transform="translate(1.000000, 0.000000)">
                    <path d="M0.5,10.3409934 C0.679797267,15.4420479 4.87398422,19.5 9.994,19.5 C15.2406576,19.5 19.494,15.2466576 19.494,10 C19.494,4.75334237 15.2406576,0.5 9.994,0.5 C4.87114878,0.5 0.675152096,4.5624479 0.5,9.65030884 L0.5,10.3409934 Z" id="Clip-2" stroke="#1E1E1E"></path>
                    <path d="M5.5818,5.2871 L5.5818,8.6886 C6.0995,8.0714 6.7203,7.7604 7.4403,7.7604 C7.8113,7.7604 8.1434,7.831 8.4411,7.9718 C8.7399,8.1114 8.9634,8.2906 9.114,8.5078 C9.2658,8.7275 9.3681,8.9678 9.4234,9.2329 C9.4787,9.4965 9.5062,9.9071 9.5062,10.4635 L9.5062,14.1008 L7.8967,14.1008 L7.8967,10.8251 C7.8967,10.1749 7.8677,9.7631 7.8065,9.5882 C7.7454,9.4122 7.6379,9.2737 7.4834,9.1718 C7.3285,9.0671 7.1356,9.0153 6.9026,9.0153 C6.6364,9.0153 6.3967,9.0824 6.1889,9.2145 C5.9767,9.3478 5.8238,9.5471 5.7273,9.8133 C5.6289,10.08 5.5799,10.4737 5.5818,10.9949 L5.5799,14.1008 L3.9728,14.1008 L3.9728,5.2871 L5.5818,5.2871 Z" id="Clip-5" fill="#1E1E1E"></path>
                    <mask id="mask-2" fill="white">
                        <use xlink:href="#path-1"></use>
                    </mask>
                    <use id="Clip-8" fill="#1E1E1E" xlink:href="#path-1"></use>
                </g>
            </g>
        </g>
    </g>
</svg>