<?xml version="1.0" encoding="UTF-8"?>
<svg width="22px" height="20px" viewBox="0 0 22 20" version="1.1" xmlns="http://www.w3.org/2000/svg" xmlns:xlink="http://www.w3.org/1999/xlink">
    <!-- Generator: Sketch 58 (84663) - https://sketch.com -->
    <title>Главная Copy 10</title>
    <desc>Created with Sketch.</desc>
    <g id="Page-1" stroke="none" stroke-width="1" fill="none" fill-rule="evenodd">
        <g id="Главная" transform="translate(-119.000000, -2347.000000)" fill="#1E1E1E" fill-rule="nonzero">
            <g id="Group-11" transform="translate(119.000000, 2347.000000)">
                <path d="M10.9043074,1.14255714 C13.2389393,1.14255714 15.2155018,1.91957188 16.8339949,3.47361183 C18.4524879,5.02765179 19.2617292,6.88962746 19.2617292,9.05954933 C19.2617292,10.5562906 18.9394636,11.7003336 18.2949324,12.4916782 C17.6504011,13.2830229 16.8339949,13.67869 15.8457136,13.67869 C15.5091286,13.67869 15.1976051,13.6267729 14.9111433,13.5229282 C14.6246815,13.4190836 14.3937244,13.2901773 14.2182722,13.1362095 C14.04282,12.9822416 13.8924294,12.8282738 13.7671003,12.6743059 C13.6417713,12.5203381 13.5504627,12.3932257 13.4931746,12.2929688 L13.4287214,12.1425781 C13.414402,12.1855469 13.3857527,12.2392578 13.3427839,12.3037109 C13.2998152,12.3681641 13.1941872,12.488122 13.0258894,12.6635742 C12.8575916,12.8390265 12.6731806,12.996582 12.4726562,13.1362305 C12.2721319,13.2758789 12.0035772,13.4012079 11.6669922,13.512207 C11.3304071,13.6232061 10.9651728,13.6787109 10.5712891,13.6787109 C9.56152344,13.6787109 8.68603516,13.2866211 7.94482422,12.5024414 C7.20361328,11.7182617 6.83300781,10.7532587 6.83300781,9.60742188 C6.83300781,8.46158504 7.20361328,7.49658203 7.94482422,6.71240234 C8.68603516,5.92822266 9.56152344,5.53613281 10.5712891,5.53613281 C11.1298828,5.53613281 11.6293736,5.63996696 12.0698032,5.84764576 C12.5102329,6.05532455 12.8092203,6.25942612 12.9667759,6.45995045 L13.2138462,6.74998951 L13.2138462,5.65428638 L14.5351353,5.65428638 L14.5351353,10.6708879 C14.5351353,11.8023949 14.9719877,12.3645658 15.8456821,12.3574009 C16.4185953,12.3574009 16.8930454,12.0942173 17.269022,11.5678501 C17.6449986,11.0414829 17.8329868,10.2053862 17.8329868,9.05954933 C17.8329868,7.18324375 17.1759195,5.61488438 15.8617954,4.35447121 C14.5476713,3.09405804 12.8951683,2.46384621 10.9042864,2.46384621 C8.97069263,2.46384621 7.33071518,3.14239788 5.98436451,4.49949074 C4.63801384,5.8565836 3.96483326,7.52341652 3.96483326,9.49997902 C3.96483326,11.4765415 4.63621998,13.1433744 5.97899342,14.5004673 C7.32176685,15.8575602 8.96352768,16.5361118 10.9042864,16.5361118 C11.6848888,16.5361118 12.4225225,16.4197416 13.1171875,16.1869907 C13.8118525,15.9542398 14.313158,15.7197056 14.6211042,15.4833775 L15.0830183,15.1074009 L15.8457136,16.0956821 L15.6416121,16.2836704 L15.5346265,16.369171 C15.422819,16.4528434 15.2543793,16.5675711 15.0293074,16.7133579 C14.7142067,16.9174595 14.379405,17.0964994 14.0249128,17.2504673 C13.6704206,17.4044352 13.2120838,17.5440836 12.6499128,17.6694126 C12.0877419,17.7947416 11.5058699,17.8574009 10.9043074,17.8574009 C8.64844799,17.8574009 6.68979263,17.0284586 5.0283308,15.3705845 C3.36686897,13.7127104 2.5361433,11.7558384 2.5361433,9.49997902 C2.5361433,7.24411964 3.3650856,5.28724766 5.02295971,3.62937355 C6.68083382,1.97149944 8.64128304,1.14255714 10.9043074,1.14255714 Z M10.6787109,6.85742188 C10.0055304,6.85742188 9.43440056,7.11523438 8.96532154,7.63085938 C8.49624252,8.14648438 8.26170826,8.80712891 8.26170826,9.61279297 C8.26170826,10.418457 8.49624252,11.0773077 8.96532154,11.5893555 C9.43440056,12.1014032 10.0055304,12.3574219 10.6787109,12.3574219 C11.3948603,12.3574219 11.9964228,12.1014032 12.4833984,11.5893555 C12.9703741,11.0773077 13.2138672,10.418457 13.2138672,9.61279297 C13.2138672,8.80712891 12.9703741,8.14648438 12.4833984,7.63085938 C11.9964228,7.11523438 11.3948603,6.85742188 10.6787109,6.85742188 Z" id="@"></path>
            </g>
        </g>
    </g>
</svg>