<?xml version="1.0" encoding="UTF-8"?>
<svg width="22px" height="20px" viewBox="0 0 22 20" version="1.1" xmlns="http://www.w3.org/2000/svg" xmlns:xlink="http://www.w3.org/1999/xlink">
    <!-- Generator: Sketch 58 (84663) - https://sketch.com -->
    <title>Главная Copy 9</title>
    <desc>Created with Sketch.</desc>
    <g id="Page-1" stroke="none" stroke-width="1" fill="none" fill-rule="evenodd">
        <g id="Главная" transform="translate(-537.000000, -2348.000000)">
            <g id="Group-14" transform="translate(537.000000, 2348.000000)">
                <path d="M11.060721,15.1761465 C8.03381327,15.1761465 6.67966281,13.6879811 6.67966281,12.5727144 C6.67966281,12.0006508 7.10199545,11.5997491 7.68406013,11.5997491 C8.9793469,11.5997491 8.64388106,13.4596701 11.060721,13.4596701 C12.2980013,13.4596701 12.9812201,12.7878812 12.9812201,12.1003762 C12.9812201,11.6869017 12.7771974,11.228565 11.9625355,11.0276856 L9.27023638,10.3556109 C7.10199545,9.81183624 6.70852316,8.63970598 6.70852316,7.53786927 C6.70852316,5.25018652 8.86247677,4.39123394 10.8852729,4.39123394 C12.7486228,4.39123394 14.9451526,5.42106265 14.9451526,6.79350085 C14.9451526,7.38156619 14.4359531,7.7236042 13.8541742,7.7236042 C12.7486228,7.7236042 12.952074,6.19343418 10.7252552,6.19343418 C9.62027525,6.19343418 9.00820725,6.69377549 9.00820725,7.40985505 C9.00820725,8.12450591 9.88087564,8.35281694 10.6386741,8.5254076 L12.6314669,8.96774244 C14.814281,9.45408218 15.367771,10.7285095 15.367771,11.9289286 C15.367771,13.7879923 13.9407553,15.1761465 11.060721,15.1761465 Z" id="Path" fill="#1E1E1E" fill-rule="nonzero"></path>
                <path d="M13.0228281,18.2830532 L13.3652264,18.1967209 L13.5072748,18.2466501 C13.9824035,18.413655 14.4849579,18.5 15,18.5 C17.4852814,18.5 19.5,16.4852814 19.5,14 C19.5,13.4386895 19.3974301,12.8922437 19.2000078,12.3805208 L19.1451184,12.2382463 L19.1789707,12.0895557 C19.3152562,11.4909443 19.3847046,10.8751719 19.3847046,10.25 C19.3847046,5.69365081 15.6910538,2 11.1347046,2 C10.6056953,2 10.082954,2.0497262 9.57226598,2.14748862 L9.39062136,2.18226136 L9.23007053,2.09046079 C8.55661766,1.70539048 7.79385046,1.5 7,1.5 C4.51471863,1.5 2.5,3.51471863 2.5,6 C2.5,6.75132685 2.68392645,7.47481802 3.03055012,8.12096674 L3.11809098,8.28415357 L3.07821476,8.46499392 C2.94999432,9.04647904 2.88470459,9.64383284 2.88470459,10.25 C2.88470459,14.8063492 6.5783554,18.5 11.1347046,18.5 C11.7768314,18.5 12.4090168,18.4267331 13.0228281,18.2830532 Z" id="Combined-Shape" stroke="#1E1E1E"></path>
            </g>
        </g>
    </g>
</svg>