<?xml version="1.0" encoding="UTF-8"?>
<svg width="22px" height="20px" viewBox="0 0 22 20" version="1.1" xmlns="http://www.w3.org/2000/svg" xmlns:xlink="http://www.w3.org/1999/xlink">
    <title>Path Copy 8</title>
    <g id="Page-1" stroke="none" stroke-width="1" fill="none" fill-rule="evenodd">
        <g id="Главная-Copy-5" transform="translate(-315.000000, -1511.000000)" stroke="#1E1E1E">
            <g id="Path-Copy-8" transform="translate(315.000000, 1511.000000)">
                <path d="M7.97512,17.4386165 C15.14496,17.4386165 19.06656,11.4984565 19.06656,6.34717646 C19.06656,6.17845646 19.06656,6.01049646 19.05516,5.84329646 C19.8180718,5.29146871 20.4766302,4.6082048 21,3.82549646 C20.2885481,4.14074581 19.5338302,4.34748624 18.76104,4.43881646 C19.5748054,3.95164283 20.1838539,3.18540317 20.47484,2.28269646 C19.7096397,2.7367625 18.872491,3.0567656 17.99952,3.22889646 C16.7911829,1.94403612 14.8711467,1.62956203 13.3160574,2.46181321 C11.7609682,3.29406439 10.957569,5.06606402 11.35636,6.78417646 C8.22204076,6.62704611 5.30180159,5.14662215 3.3224,2.71133646 C2.28775329,4.49250646 2.81623079,6.77114967 4.52928,7.91505646 C3.90892331,7.8966702 3.30209232,7.72932248 2.76,7.42713646 C2.76,7.44309646 2.76,7.45981646 2.76,7.47653646 C2.76050778,9.33214712 4.06853113,10.9303832 5.8874,11.2978165 C5.31350089,11.4543309 4.71136125,11.4772101 4.12724,11.3646965 C4.63792043,12.9526578 6.10139667,14.0404922 7.76916,14.0718165 C6.38879863,15.1566647 4.68360523,15.7455855 2.92796,15.7438165 C2.61780671,15.743221 2.30795509,15.7244422 2,15.6875765 C3.78268332,16.8315866 5.85693419,17.4384013 7.97512,17.4355765" id="Path-Copy-7"></path>
            </g>
        </g>
    </g>
</svg>